<svg id="Layer_2" data-name="Layer 2" xmlns="http://www.w3.org/2000/svg" viewBox="0 0 135.04 289.88"><title>cat_error</title><rect width="135.04" height="289.88" style="fill:#fff"/><path d="M1.54,220.59a9.5,9.5,0,0,0,4.24,6.14c1.62,1.05,3.13-1.55,1.51-2.59a6.56,6.56,0,0,1-2.86-4.35c-.37-1.89-3.26-1.09-2.89.8Z"/><path d="M12.46,232.62a9.2,9.2,0,0,0,8.44,2,1.5,1.5,0,0,0-.79-2.89,6.06,6.06,0,0,1-5.53-1.26c-1.45-1.26-3.58.85-2.12,2.12Z"/><path d="M15.27,259a60.81,60.81,0,0,0,25.08-18l-2.51-.67a5.28,5.28,0,0,1-.71,5.17,1.52,1.52,0,0,0,1.69,2.21l5.93-1.92-1.84-1.85a7.61,7.61,0,0,1-4.27,5.47c-1.25.66-.75,3,.76,2.8s4.45-.81,2.22,3c-.42.73-2.66,1.54-3.41,2l-9.37,5.41L11,273a1.5,1.5,0,0,0,1.52,2.59l17-9.84c4.8-2.77,10.52-5.18,14.84-8.65,5.43-4.38.25-8.43-4.94-7.84l.75,2.79a10.62,10.62,0,0,0,5.65-7.26A1.51,1.51,0,0,0,44,242.9L38,244.82l1.69,2.2a9,9,0,0,0,1-7.48,1.51,1.51,0,0,0-2.5-.67A58,58,0,0,1,14.47,256.1c-1.78.69-1,3.59.8,2.89Z"/><path d="M-2.51,214.93a305.17,305.17,0,0,1,22.12-28.07l-2.56-1.06.36,22a1.53,1.53,0,0,0,1.5,1.5,42,42,0,0,0,10.67-1,38.58,38.58,0,0,0,6.53-2.2c2.06-.9,2.54-2.11,2.66,1.94.11,3.5-2.24,8.36-3.7,11.43a64.8,64.8,0,0,1-5.62,9.41c-4,5.66-9.41,10.4-12.57,16.59a62.72,62.72,0,0,0-4.28,11,1.5,1.5,0,0,0,2.89.8c1.62-5.58,3.82-11.19,7.57-15.68,5.58-6.71,11.23-13.3,14.92-21.3,1.69-3.65,6.67-13.8,3-17.43-1.42-1.42-2.91-.79-4.5-.23-6,2.12-11.07,3.85-17.6,3.69l1.5,1.5-.36-22a1.52,1.52,0,0,0-2.57-1.06A313.81,313.81,0,0,0-5.1,213.42c-1.1,1.59,1.5,3.09,2.59,1.51Z"/><path d="M13.44,274.49A12.16,12.16,0,0,1,8.91,290.9a1.5,1.5,0,0,0,1.52,2.59A15.21,15.21,0,0,0,16,273a1.5,1.5,0,0,0-2.59,1.52Z"/></svg>