<svg viewBox="0 0 737.11 483.54" xmlns="http://www.w3.org/2000/svg"><path d="m14.1 23.78h708.9v435.99h-708.9z" fill="#fff" transform="matrix(.99764853 -.06853767 .06853767 .99764853 -15.7 25.82)"/><path d="m177.18 84.1-6.58 84.19-35.13 4.09-11.67-42.17-3.75 40.51-35.05 4.56-22.48-80.21 30.48-5.57 10.95 49 3.55-50.39 24.17-2.31 14.48 49.26.15-50.66z"/><path d="m261.72 159.69-30.84 4.4-2.88-27.58-14.26 1.37 1.64 26.25-27.77 2.65-5.68-84.22 29.62-1.51 2.25 43.07 13.76-1.31-4.29-46.14 28.33-2z"/><path d="m345.78 146.46-30.38 6.76-5-13.14-14.13 1.35-1.8 13.8h-31.9l17.05-81.94 34.3-5zm-39.37-24.46-6.7-20.34-2.59 21.23z"/><path d="m398.09 60.42 1.81 25.39-18.4 2.48.71 57.09-26 3.82-5.29-56.65-18.38 2.73-2-28.28z"/><path d="m142.41 208.92 1.8 25.39-18.4 2.48.71 57.09-26 3.82-5.32-56.65-18.38 2.72-1.95-28.27z"/><path d="m228.06 286.94-30.85 4.4-2.89-27.58-14.25 1.36 1.64 26.25-27.77 2.63-5.68-84.22 29.62-1.51 2.25 43.07 13.76-1.32-4.29-46.13 28.32-2z"/><path d="m284.9 194.56c.11 3.76.24 7.49.38 11.17s.23 7.42.26 11.19l-26.15 3.83.1 7.59 18.51-1.77.41 18.65-18.54 2.38.22 8.78 15.37-1.47 10.9-1c.18 4.4.33 8.78.48 13.13s.32 8.7.53 13.06l-53.37 6.27-6.24-86.37z"/><path d="m371.5 186.27c.11 3.76.24 7.49.38 11.17s.23 7.42.26 11.19l-26.14 3.83.72 7.53 22.81-2.18.53 18.64-21.63 2.67 3.51 35.36-31.31 3.6-6.26-86.34z"/><path d="m451.18 198.53q.42 4.42.5 9.79t-.38 11.12q-.45 5.77-1.47 11.75a80 80 0 0 1 -2.83 11.58 66.39 66.39 0 0 1 -4.52 10.59 40.46 40.46 0 0 1 -6.41 8.88 32.09 32.09 0 0 1 -8.55 6.36 30.06 30.06 0 0 1 -11 3.07 32 32 0 0 1 -12.71-1.05 28.09 28.09 0 0 1 -9.65-5.16 32.18 32.18 0 0 1 -7.05-8.25 54.73 54.73 0 0 1 -4.8-10.33 79.9 79.9 0 0 1 -3-11.35q-1.08-5.84-1.61-11.27a164.86 164.86 0 0 1 -.73-16.78q.07-8.43.89-16.88l29.14-1.7q-.78 9.54-1.08 19.12a151.18 151.18 0 0 0 .61 19.15c.07.68.19 1.68.38 3s.45 2.81.77 4.44.73 3.31 1.2 5a26.91 26.91 0 0 0 1.73 4.63 11.73 11.73 0 0 0 2.29 3.34 3.44 3.44 0 0 0 2.82 1.12 4.25 4.25 0 0 0 3.07-2 15.24 15.24 0 0 0 2.09-4.63 43.13 43.13 0 0 0 1.28-6.51q.47-3.66.65-7.6t.16-7.85q0-3.91-.14-7.28t-.28-5.95c-.13-1.71-.23-3-.31-3.82-.3-3.11-.64-6.2-1-9.28s-.85-6.14-1.35-9.19l29-2.77q1.47 8.24 2.29 16.71z"/><path d="m515.7 174.63-1.06 25.55a21.7 21.7 0 0 0 -3.66-.31 33.42 33.42 0 0 0 -3.61.16 32.36 32.36 0 0 0 -8.63 2 22.05 22.05 0 0 0 -7 4.26 17.68 17.68 0 0 0 -4.51 6.46 17.89 17.89 0 0 0 -1.08 8.6 13 13 0 0 0 1.53 5.28 10 10 0 0 0 3.25 3.49 12.28 12.28 0 0 0 4.61 1.79 20.15 20.15 0 0 0 5.64.18 24.54 24.54 0 0 0 4.73-.93 43.09 43.09 0 0 0 4.77-1.72 46.74 46.74 0 0 0 4.54-2.25c1.47-.82 2.8-1.65 4-2.49l.21 28.31a39.73 39.73 0 0 1 -5 2.63q-2.73 1.2-5.64 2.16a56.55 56.55 0 0 1 -5.85 1.62 47 47 0 0 1 -5.66.9 38.16 38.16 0 0 1 -15-1.4 37 37 0 0 1 -12.58-6.57 36.16 36.16 0 0 1 -13.26-24.9 60.44 60.44 0 0 1 1.19-19.56 46.93 46.93 0 0 1 7.41-16.71 41.87 41.87 0 0 1 13.58-12.18 48.41 48.41 0 0 1 19.67-5.87 61.56 61.56 0 0 1 8.84-.18 30 30 0 0 1 8.57 1.68z"/><path d="m598.54 165.14-26.06 42.65 29.21 39.88-28.29 7.66-21.31-24 1.6 27.1-25.69 3.41-6.78-91.71 29-1.21.35 27.21 16.48-30.39z"/><path d="m122.25 336.2 1 82-26.05 3.8-7.76-81z"/><path d="m195.51 382a32.74 32.74 0 0 1 -1.58 14.59 28.82 28.82 0 0 1 -7.08 11 35.25 35.25 0 0 1 -11.37 7.24 51.78 51.78 0 0 1 -14.48 3.4 32.89 32.89 0 0 1 -6.74-.14q-3.69-.43-7.53-1.24t-7.44-1.85q-3.57-1-6.35-2l.37-24.87a45 45 0 0 0 12.13 3.51 52.78 52.78 0 0 0 12.76.37c.78-.07 1.73-.19 2.84-.36a14.35 14.35 0 0 0 3.14-.84 7.07 7.07 0 0 0 2.44-1.59 3.19 3.19 0 0 0 .81-2.67 2.75 2.75 0 0 0 -.93-1.87 5.51 5.51 0 0 0 -2-1.13 11.8 11.8 0 0 0 -2.74-.52 27 27 0 0 0 -2.95-.11c-1 0-1.85.05-2.68.13l-2 .19a25.54 25.54 0 0 1 -9.87-.86 22.25 22.25 0 0 1 -8-4.27 22.69 22.69 0 0 1 -5.59-7.13 25.72 25.72 0 0 1 -2.65-9.36 26.78 26.78 0 0 1 1.74-12.92 29.61 29.61 0 0 1 7-10.25 36.38 36.38 0 0 1 10.73-7.09 42.52 42.52 0 0 1 13-3.35q3-.29 6.28-.39a63.9 63.9 0 0 1 6.49.13q3.24.24 6.36.78a37.71 37.71 0 0 1 6 1.54v24.48a79.52 79.52 0 0 0 -9-1.45 45.58 45.58 0 0 0 -9.11-.07c-.54 0-1.23.13-2.07.23s-1.73.25-2.65.44-1.85.42-2.78.71a11.6 11.6 0 0 0 -2.46 1.06 4.8 4.8 0 0 0 -1.67 1.51 3 3 0 0 0 .8 4.05 6.69 6.69 0 0 0 2.59 1 18.08 18.08 0 0 0 3.41.31c1.23 0 2.45 0 3.65-.14s2.31-.2 3.34-.32a18.15 18.15 0 0 1 2.55-.15 26.13 26.13 0 0 1 9.12 1.17 21.08 21.08 0 0 1 7.17 4 19.37 19.37 0 0 1 4.86 6.44 25.29 25.29 0 0 1 2.14 8.66z"/><g fill="#f00"><path d="m285.59 319.24 1.8 25.39-18.39 2.48.72 57.09-26 3.82-5.3-56.65-18.42 2.72-1.95-28.27z"/><path d="m371.25 397.25-30.85 4.4-2.89-27.57-14.26 1.36 1.64 26.25-27.76 2.66-5.69-84.23 29.62-1.51 2.25 43.08 13.76-1.32-4.29-46.13 28.33-2z"/><path d="m455.3 384-30.37 6.77-5-13.15-14.15 1.38-1.78 13.79h-31.89l17-81.94 34.3-5zm-39.37-24.44-6.7-20.35-2.59 21.24z"/><path d="m507.62 298 1.8 25.39-18.42 2.47.71 57.09-26 3.82-5.29-56.65-18.42 2.72-2-28.27z"/></g><path d="m554.41 356.21-20.94 2a31.94 31.94 0 0 1 -.27-10.67 22.71 22.71 0 0 1 2.51-7.42 18.88 18.88 0 0 1 4.08-5 48.35 48.35 0 0 1 4.61-3.52c1.5-1 2.83-2 4-2.88a6.22 6.22 0 0 0 2.23-3.23 4.9 4.9 0 0 0 0-2.5 5.2 5.2 0 0 0 -1.53-2.54 8.36 8.36 0 0 0 -3.42-1.81 15 15 0 0 0 -5.63-.33 43.43 43.43 0 0 0 -5.26.89 59.67 59.67 0 0 0 -6.3 1.81 65.8 65.8 0 0 0 -6.42 2.6 37.45 37.45 0 0 0 -5.6 3.22l-5-23.16q2.17-1.53 4.92-3.21a47.71 47.71 0 0 1 6.11-3.12 58 58 0 0 1 7.39-2.54 51 51 0 0 1 8.73-1.56 50.12 50.12 0 0 1 14.6.65 36 36 0 0 1 12.44 4.84 28.94 28.94 0 0 1 9 8.94 28.62 28.62 0 0 1 4.24 12.94 21.16 21.16 0 0 1 -.8 9.27 17.16 17.16 0 0 1 -3.74 6.06 25.56 25.56 0 0 1 -5.47 4.26c-2 1.2-4 2.49-6 3.86a27 27 0 0 0 -5.22 4.87 16.67 16.67 0 0 0 -3.26 7.28zm4.59 15.47a11.46 11.46 0 0 1 -.58 5 13.31 13.31 0 0 1 -2.44 4.25 13.47 13.47 0 0 1 -3.87 3.08 12.8 12.8 0 0 1 -4.92 1.47 13.32 13.32 0 0 1 -5.19-.48 13.16 13.16 0 0 1 -4.37-2.3 12.67 12.67 0 0 1 -3.17-3.7 11.85 11.85 0 0 1 -1.5-4.81 12 12 0 0 1 .56-5 12.52 12.52 0 0 1 2.4-4.3 13.66 13.66 0 0 1 3.86-3.11 12.86 12.86 0 0 1 5-1.51 12.51 12.51 0 0 1 5.11.54 13.72 13.72 0 0 1 4.38 2.32 13 13 0 0 1 3.21 3.77 11.71 11.71 0 0 1 1.52 4.78z"/><path d="m625.26 349.43-20.94 2a32.24 32.24 0 0 1 -.28-10.67 22.62 22.62 0 0 1 2.52-7.42 18.88 18.88 0 0 1 4.08-5 48.27 48.27 0 0 1 4.6-3.52q2.26-1.52 4-2.88a6.2 6.2 0 0 0 2.22-3.23 4.8 4.8 0 0 0 0-2.5 5.07 5.07 0 0 0 -1.52-2.54 8.22 8.22 0 0 0 -3.43-1.81 15.19 15.19 0 0 0 -5.63-.34 46.12 46.12 0 0 0 -5.26.9 58.66 58.66 0 0 0 -6.3 1.81 65.63 65.63 0 0 0 -6.41 2.6 37.45 37.45 0 0 0 -5.6 3.22l-5-23.16c1.45-1 3.08-2.09 4.92-3.21a47.05 47.05 0 0 1 6.11-3.12 56.31 56.31 0 0 1 7.38-2.54 52.32 52.32 0 0 1 8.74-1.57 50.46 50.46 0 0 1 14.6.66 36 36 0 0 1 12.44 4.84 29 29 0 0 1 9 8.93 28.55 28.55 0 0 1 4.25 12.95 21 21 0 0 1 -.81 9.27 17.14 17.14 0 0 1 -3.73 6.06 25.56 25.56 0 0 1 -5.47 4.26q-3.09 1.8-6 3.86a27 27 0 0 0 -5.23 4.87 16.66 16.66 0 0 0 -3.25 7.28zm4.61 15.47a11.61 11.61 0 0 1 -.58 5 13.31 13.31 0 0 1 -2.44 4.25 13.47 13.47 0 0 1 -3.87 3.08 13.52 13.52 0 0 1 -10.1 1 13.28 13.28 0 0 1 -4.38-2.29 12.89 12.89 0 0 1 -3.17-3.71 11.9 11.9 0 0 1 -1.49-4.8 12 12 0 0 1 .56-5 12.43 12.43 0 0 1 2.4-4.3 13.72 13.72 0 0 1 3.86-3.12 13 13 0 0 1 5-1.5 12.54 12.54 0 0 1 5.12.54 13.53 13.53 0 0 1 4.38 2.32 13 13 0 0 1 3.21 3.76 11.8 11.8 0 0 1 1.5 4.77z"/><path d="m696.11 342.65-21 2a32.53 32.53 0 0 1 -.27-10.68 22.64 22.64 0 0 1 2.51-7.41 18.91 18.91 0 0 1 4.09-5 48.27 48.27 0 0 1 4.6-3.52q2.26-1.51 4-2.88a6.24 6.24 0 0 0 2.22-3.23 4.8 4.8 0 0 0 0-2.5 5.07 5.07 0 0 0 -1.52-2.54 8.35 8.35 0 0 0 -3.43-1.81 15.21 15.21 0 0 0 -5.63-.34 42.07 42.07 0 0 0 -5.26.9 58.66 58.66 0 0 0 -6.3 1.81 64.63 64.63 0 0 0 -6.41 2.6 36.12 36.12 0 0 0 -5.6 3.22l-5-23.16q2.16-1.53 4.91-3.21a47.86 47.86 0 0 1 6.12-3.12 57.8 57.8 0 0 1 7.38-2.55 51 51 0 0 1 8.73-1.56 50.18 50.18 0 0 1 14.61.66 36.22 36.22 0 0 1 12.44 4.83 29.13 29.13 0 0 1 9 8.94 28.54 28.54 0 0 1 4.29 12.9 20.88 20.88 0 0 1 -.8 9.27 17.14 17.14 0 0 1 -3.73 6.06 25.81 25.81 0 0 1 -5.47 4.26q-3.09 1.8-6 3.86a27 27 0 0 0 -5.23 4.87 16.66 16.66 0 0 0 -3.25 7.33zm4.61 15.47a11.48 11.48 0 0 1 -.59 5 13 13 0 0 1 -2.44 4.24 13.11 13.11 0 0 1 -8.78 4.55 12.93 12.93 0 0 1 -5.18-.5 13.28 13.28 0 0 1 -4.38-2.29 12.74 12.74 0 0 1 -3.17-3.71 11.74 11.74 0 0 1 -1.49-4.8 12.19 12.19 0 0 1 .55-5 12.62 12.62 0 0 1 2.41-4.3 13.72 13.72 0 0 1 3.86-3.12 12.75 12.75 0 0 1 5-1.5 12.56 12.56 0 0 1 5.12.54 13.74 13.74 0 0 1 4.38 2.32 13.14 13.14 0 0 1 3.21 3.76 12 12 0 0 1 1.5 4.81z"/></svg>