<svg viewBox="0 0 874.34 472.25" xmlns="http://www.w3.org/2000/svg"><path d="m3 3h868.34v466.25h-868.34z" fill="#9e005d" stroke="#000" stroke-miterlimit="10" stroke-width="6"/><g fill="#fff"><path d="m92.11 133.14c-.27-1.55-.52-3.17-.76-4.86s-.46-3.39-.68-5.11-.45-3.4-.72-5.07-.56-3.39-.88-4.89a24.33 24.33 0 0 0 -.84-2.51c-.39-1-.78-2.16-1.15-3.35s-.71-2.39-1-3.6a13.86 13.86 0 0 1 -.44-3.32 1.38 1.38 0 0 1 1.91-.38 6.61 6.61 0 0 1 1.92 2.35 27.42 27.42 0 0 1 1.88 4.39q.91 2.65 1.68 5.67t1.44 6.2q.68 3.2 1.16 6c.32 1.88.58 3.55.8 5a25.64 25.64 0 0 1 .32 3.32v.75a3.38 3.38 0 0 1 -.08.72 1.18 1.18 0 0 1 -.44.63 2.49 2.49 0 0 1 -1.08.41 1.12 1.12 0 0 1 -1-.22 9.54 9.54 0 0 1 -1-.79 5.15 5.15 0 0 1 -.76-.84z"/><path d="m120.3 152.94a1.89 1.89 0 0 1 0-1.57 3 3 0 0 1 1-1.13 3.36 3.36 0 0 1 1.4-.56 1.88 1.88 0 0 1 1.27.16 1.3 1.3 0 0 1 .64 1 3.8 3.8 0 0 1 -.51 2.07 3.71 3.71 0 0 0 1.47 2.69 15.13 15.13 0 0 0 3.84 2.38 46.45 46.45 0 0 0 5.16 2q2.79.87 5.43 1.5c1.76.42 3.33.73 4.72.94a19.38 19.38 0 0 0 2.88.31 6.65 6.65 0 0 0 3.39-.81 8.41 8.41 0 0 0 2.4-2.13 11.06 11.06 0 0 0 1.6-3 22.84 22.84 0 0 0 .92-3.32 25 25 0 0 0 .4-3.23c.05-1 .08-1.92.08-2.63 0-.33 0-1-.12-1.85s-.2-1.93-.36-3.1-.35-2.38-.56-3.63-.45-2.43-.72-3.51a16.78 16.78 0 0 0 -.84-2.63c-.29-.67-.6-1-.92-1a5.9 5.9 0 0 0 -1.88.38c-.72.25-1.46.52-2.24.81s-1.55.57-2.35.82a7.79 7.79 0 0 1 -2.32.37 13.34 13.34 0 0 1 -4.4-.75 13.13 13.13 0 0 1 -3.71-1.94 9.66 9.66 0 0 1 -2.52-2.82 6.57 6.57 0 0 1 -1-3.38 12.75 12.75 0 0 1 1.4-5.64 18.94 18.94 0 0 1 3.83-5.27 20.12 20.12 0 0 1 5.76-3.88 16.81 16.81 0 0 1 7.07-1.51 8 8 0 0 1 4.68 2.86 16.18 16.18 0 0 1 2.8 5.48 40.56 40.56 0 0 1 1.44 7.23c.29 2.66.49 5.36.59 8.12s.2 5.46.28 8.11a62.81 62.81 0 0 0 .6 7.24 32.76 32.76 0 0 1 -.2 3.42 31.86 31.86 0 0 1 -.68 4 26.35 26.35 0 0 1 -1.31 4.1 13.75 13.75 0 0 1 -2.2 3.64 10.43 10.43 0 0 1 -3.32 2.57 10.15 10.15 0 0 1 -4.52 1 40.11 40.11 0 0 1 -5-.38 50.41 50.41 0 0 1 -6.08-1.19 59.15 59.15 0 0 1 -6.27-2 33.92 33.92 0 0 1 -5.6-2.73 15.16 15.16 0 0 1 -4-3.45 6.5 6.5 0 0 1 -1.42-4.16zm16.78-28.64a5.53 5.53 0 0 0 .44 2.16 5.69 5.69 0 0 0 1.28 1.85 6.12 6.12 0 0 0 2.08 1.29 7.83 7.83 0 0 0 2.76.47 12.26 12.26 0 0 0 6.19-1.26 6.73 6.73 0 0 0 2.92-3.13 10.18 10.18 0 0 0 .8-4c-.05-1.46-.13-2.78-.24-4a9.42 9.42 0 0 0 -.16-1.75 4.52 4.52 0 0 0 -.64-1.63 3.38 3.38 0 0 0 -1.32-1.19 4.44 4.44 0 0 0 -2.12-.44 10.47 10.47 0 0 0 -4.87 1.16 13.29 13.29 0 0 0 -3.8 2.88 13.71 13.71 0 0 0 -2.44 3.76 9.73 9.73 0 0 0 -.88 3.83z"/><path d="m192.74 126.43a12.15 12.15 0 0 0 -3.15 2c-.88.78-1.78 1.51-2.68 2.2a15.94 15.94 0 0 1 -3 1.78 10 10 0 0 1 -4.2.76 13.26 13.26 0 0 1 -5.19-1 13.73 13.73 0 0 1 -4.12-2.63 18.26 18.26 0 0 1 -3.12-3.76 23.5 23.5 0 0 1 -2.15-4.32 28.14 28.14 0 0 1 -1.28-4.39 19.25 19.25 0 0 1 -.44-3.91 8.88 8.88 0 0 1 .24-5.3 4.51 4.51 0 0 1 2.11-2.44 1.85 1.85 0 0 1 2.12.25c.59.52.67 1.43.24 2.72a2.39 2.39 0 0 0 -.24.79c0 .35-.1.72-.16 1.09s-.1.74-.16 1.07a5.75 5.75 0 0 0 -.08.69 18.2 18.2 0 0 0 .32 3.1 25.34 25.34 0 0 0 1 3.73 26.11 26.11 0 0 0 1.72 3.85 15.6 15.6 0 0 0 2.48 3.42 11.79 11.79 0 0 0 3.32 2.44 9 9 0 0 0 4.11.94 6.52 6.52 0 0 0 3.28-1.1 20.4 20.4 0 0 0 3.48-2.63 20.73 20.73 0 0 0 2.79-3.16 5.08 5.08 0 0 0 1.16-2.76c0-.41 0-1.1 0-2.07s0-2 0-3.07 0-2.11 0-3.07 0-1.63 0-2a3.92 3.92 0 0 1 1-1 2.55 2.55 0 0 1 1.36-.35 1.89 1.89 0 0 1 1.6 1 8.93 8.93 0 0 1 1 2.57 21.41 21.41 0 0 1 .56 3.39c.1 1.21.19 2.38.24 3.51s.11 2.12.16 3a7.07 7.07 0 0 0 .24 1.73 20.93 20.93 0 0 0 1.16 2.82c.5 1 1 2.05 1.48 3s.9 1.88 1.28 2.69a5 5 0 0 1 .55 1.85c0 .62-.22 1-.67 1.13a6.92 6.92 0 0 1 -1.72.18 2.86 2.86 0 0 1 -1.88-.5 2.92 2.92 0 0 1 -.88-1.28 10.16 10.16 0 0 1 -.44-1.73 12 12 0 0 0 -.52-1.94 7 7 0 0 0 -1-1.88 5 5 0 0 0 -1.92-1.41z"/><path d="m205.72 118.72a16 16 0 0 1 1.24-6.23 15.24 15.24 0 0 1 3.59-5.23 17.49 17.49 0 0 1 5.76-3.61 21.41 21.41 0 0 1 7.87-1.34 14.58 14.58 0 0 1 4.6 1.12 10.13 10.13 0 0 1 3.22 2.17 7.57 7.57 0 0 1 1.8 3 12.41 12.41 0 0 1 .48 3.51 5.83 5.83 0 0 1 -1.68 4.07 13.58 13.58 0 0 1 -4.23 3 25.1 25.1 0 0 1 -5.52 1.88 25.39 25.39 0 0 1 -5.51.66h-2a5.89 5.89 0 0 1 -1.8-.25 3 3 0 0 1 -1.28-.75 2.11 2.11 0 0 1 -.48-1.5 1.13 1.13 0 0 1 .12-.54c.08-.14.31-.25.68-.31a8.58 8.58 0 0 1 1.68 0c.74.08 1.76.21 3 .37a12.85 12.85 0 0 0 3.23-.59 35.1 35.1 0 0 0 4.32-1.54 17.18 17.18 0 0 0 3.8-2.16 3.29 3.29 0 0 0 1.6-2.41 6.42 6.42 0 0 0 -.52-2.48 6.28 6.28 0 0 0 -1.56-2.16 8.26 8.26 0 0 0 -2.44-1.5 7 7 0 0 0 -3.16-.44 14.79 14.79 0 0 0 -5.07 1.19 12.64 12.64 0 0 0 -3.88 2.6 12.08 12.08 0 0 0 -2.48 3.54 9.71 9.71 0 0 0 -.88 4.07c0 1.09 0 2.18.08 3.26a11.75 11.75 0 0 0 .6 3.2 9.26 9.26 0 0 0 5 5.54 23.58 23.58 0 0 0 5.55 1.82 50 50 0 0 0 8.32.91l14.3-.75a9.72 9.72 0 0 1 -3.23 2.25 23.13 23.13 0 0 1 -4.16 1.41 36.07 36.07 0 0 1 -4.36.79 37 37 0 0 1 -4.07.25 31.14 31.14 0 0 1 -8.72-1.19 24.68 24.68 0 0 1 -7.19-3.36 16.31 16.31 0 0 1 -4.92-5.26 13.77 13.77 0 0 1 -1.7-7.01z"/><path d="m248.82 127.94a3.44 3.44 0 0 1 1.16-.47 6 6 0 0 1 1.16-.1 4.09 4.09 0 0 1 1.44.28 6.87 6.87 0 0 1 1.32.69c.4.27.81.53 1.24.79a7.27 7.27 0 0 0 1.36.62l3.32 1.13c.82.29 1.58.52 2.27.69a12.62 12.62 0 0 0 2.4.31c.91.05 2.08.07 3.52.07h4.08a26.72 26.72 0 0 0 4.55-.32 10.17 10.17 0 0 0 3.68-1.25 3 3 0 0 0 1.52-2.79 3.23 3.23 0 0 0 -1.24-2.85 9.57 9.57 0 0 0 -3.56-1.6 31.48 31.48 0 0 0 -5-.78l-5.76-.47q-3-.26-5.79-.72a20.76 20.76 0 0 1 -5.08-1.47 9.28 9.28 0 0 1 -3.6-2.76 7.6 7.6 0 0 1 -1.44-4.51 5.56 5.56 0 0 1 2.52-3.36 16 16 0 0 1 4.88-2.06 25.4 25.4 0 0 1 6-.75 23.69 23.69 0 0 1 5.88.62 11.38 11.38 0 0 1 4.47 2.1 4.63 4.63 0 0 1 1.88 3.57 3.56 3.56 0 0 1 -.24 2.07 2.75 2.75 0 0 1 -1.08 1.22 2.49 2.49 0 0 1 -1.4.38 1.57 1.57 0 0 1 -1.11-.44 1.49 1.49 0 0 1 -.36-1.19 3.94 3.94 0 0 1 .91-2 3 3 0 0 0 -1.83-1.88 13 13 0 0 0 -3.52-1 20.73 20.73 0 0 0 -4.28-.12 21.08 21.08 0 0 0 -4.15.66 9.45 9.45 0 0 0 -3 1.31 1.92 1.92 0 0 0 -1 1.88 3.42 3.42 0 0 0 1.4 2.92 10.13 10.13 0 0 0 3.64 1.59 32.53 32.53 0 0 0 5.15.82c2 .17 3.94.32 6 .47s4 .35 6 .63a22.34 22.34 0 0 1 5.2 1.34 9.37 9.37 0 0 1 3.67 2.54 6.21 6.21 0 0 1 1.36 4.17 4.79 4.79 0 0 1 -1.28 3.35 10.4 10.4 0 0 1 -3.23 2.35 17.17 17.17 0 0 1 -4.28 1.38 23.93 23.93 0 0 1 -4.4.44h-4.43c-1.57 0-3.17-.1-4.8-.22s-3.26-.33-4.91-.6a22 22 0 0 1 -4.6-1.25 15.83 15.83 0 0 1 -3.8-2.16 10.18 10.18 0 0 1 -2.81-3.27z"/><path d="m292 127.94a3.44 3.44 0 0 1 1.16-.47 6 6 0 0 1 1.16-.1 4.09 4.09 0 0 1 1.44.28 6.87 6.87 0 0 1 1.32.69c.4.27.81.53 1.24.79a7.27 7.27 0 0 0 1.36.62l3.32 1.13c.82.29 1.58.52 2.27.69a12.41 12.41 0 0 0 2.4.31c.91.05 2.08.07 3.52.07h4.07a26.76 26.76 0 0 0 4.56-.32 10.17 10.17 0 0 0 3.68-1.25 3 3 0 0 0 1.52-2.79 3.23 3.23 0 0 0 -1.24-2.85 9.57 9.57 0 0 0 -3.56-1.6 31.44 31.44 0 0 0 -5-.78l-5.75-.47q-3-.26-5.8-.72a20.8 20.8 0 0 1 -5.07-1.47 9.28 9.28 0 0 1 -3.6-2.7 7.54 7.54 0 0 1 -1.44-4.51 5.56 5.56 0 0 1 2.52-3.36 16 16 0 0 1 4.88-2.06 25.4 25.4 0 0 1 6-.75 23.69 23.69 0 0 1 5.88.62 11.45 11.45 0 0 1 4.47 2.1 4.63 4.63 0 0 1 1.88 3.57 3.56 3.56 0 0 1 -.24 2.07 2.88 2.88 0 0 1 -1.08 1.22 2.49 2.49 0 0 1 -1.4.38 1.61 1.61 0 0 1 -1.12-.44 1.52 1.52 0 0 1 -.35-1.19 3.94 3.94 0 0 1 .91-2 3 3 0 0 0 -1.83-1.88 13 13 0 0 0 -3.52-1 20.73 20.73 0 0 0 -4.28-.12 21.08 21.08 0 0 0 -4.15.66 9.45 9.45 0 0 0 -3 1.31 1.92 1.92 0 0 0 -1 1.88 3.4 3.4 0 0 0 1.4 2.92 10.13 10.13 0 0 0 3.64 1.59 32.53 32.53 0 0 0 5.15.82c2 .17 3.94.32 6 .47s4 .35 6 .63a22.34 22.34 0 0 1 5.2 1.34 9.37 9.37 0 0 1 3.67 2.54 6.21 6.21 0 0 1 1.36 4.17 4.79 4.79 0 0 1 -1.28 3.35 10.4 10.4 0 0 1 -3.27 2.37 17.17 17.17 0 0 1 -4.28 1.38 23.93 23.93 0 0 1 -4.4.44h-4.43c-1.58 0-3.17-.1-4.8-.22s-3.26-.33-4.91-.6a22 22 0 0 1 -4.6-1.25 15.83 15.83 0 0 1 -3.8-2.16 10.18 10.18 0 0 1 -2.78-3.35z"/><path d="m373.28 133.14c-.27-1.55-.52-3.17-.76-4.86s-.47-3.39-.68-5.11-.46-3.4-.72-5.07-.56-3.39-.88-4.89a24.33 24.33 0 0 0 -.84-2.51c-.4-1-.79-2.16-1.16-3.35s-.71-2.39-1-3.6a14.39 14.39 0 0 1 -.44-3.32 1.39 1.39 0 0 1 1.92-.38 6.61 6.61 0 0 1 1.92 2.35 28.36 28.36 0 0 1 1.88 4.39q.92 2.65 1.68 5.67t1.43 6.2c.46 2.13.84 4.14 1.16 6s.59 3.55.8 5a25.64 25.64 0 0 1 .32 3.32v.75a2.84 2.84 0 0 1 -.08.72 1.13 1.13 0 0 1 -.44.63 2.49 2.49 0 0 1 -1.08.41 1.12 1.12 0 0 1 -1-.22 9.46 9.46 0 0 1 -1-.79 4.72 4.72 0 0 1 -.76-.84z"/><path d="m439.83 129.5a19.28 19.28 0 0 1 -6.43 4.73 13.93 13.93 0 0 1 -6.16 1.19 12 12 0 0 1 -5.51-1.66 16.29 16.29 0 0 1 -4.48-3.76 19.15 19.15 0 0 1 -3-5.1 16.72 16.72 0 0 1 -1.24-5.8 14.68 14.68 0 0 1 1-5.73 12.53 12.53 0 0 1 3.64-5c.85.26 1.33.59 1.44 1a6.76 6.76 0 0 1 .16 1.44 7.48 7.48 0 0 1 -.28 2q-.29 1-.6 2t-.6 2.07a8.43 8.43 0 0 0 -.28 2.19 11 11 0 0 0 .24 2 24.56 24.56 0 0 0 .68 2.6 16 16 0 0 0 1.16 2.72 11.84 11.84 0 0 0 1.72 2.45 9.82 9.82 0 0 0 2.19 1.81 5.19 5.19 0 0 0 2.72.72 10 10 0 0 0 3.24-.65 21.72 21.72 0 0 0 3.6-1.66 12.32 12.32 0 0 0 2.87-2.26 3.71 3.71 0 0 0 1.16-2.51l.48-8.14c0-.13.11-.25.32-.38a7.18 7.18 0 0 1 .68-.34 7.51 7.51 0 0 1 .76-.29 2.33 2.33 0 0 1 .56-.12 1.51 1.51 0 0 1 1.52 1.13 14.54 14.54 0 0 1 .64 2.91c.16 1.19.35 2.46.56 3.79a13.9 13.9 0 0 0 1.16 3.79 7.17 7.17 0 0 0 2.52 2.92 8 8 0 0 0 4.63 1.12 10.78 10.78 0 0 0 4.72-1 5.83 5.83 0 0 0 2.56-2.41 6.69 6.69 0 0 0 .75-3.35 12.6 12.6 0 0 0 -.63-3.7 18.14 18.14 0 0 0 -1.6-3.54 15.87 15.87 0 0 0 -2.2-2.94q-.16-.51 0-.72a.81.81 0 0 1 .44-.32 2.88 2.88 0 0 1 .68-.12h.64a5.76 5.76 0 0 1 2.75 1.66 14.4 14.4 0 0 1 2.6 3.35 16.6 16.6 0 0 1 1.72 4.32 12.75 12.75 0 0 1 .32 4.7 9.27 9.27 0 0 1 -1.72 4.33 10.06 10.06 0 0 1 -4.39 3.25c-2.35.13-4.27.2-5.76.22a33.63 33.63 0 0 1 -3.72-.12 8.55 8.55 0 0 1 -2.35-.53 8.37 8.37 0 0 1 -1.68-1 20.73 20.73 0 0 1 -1.72-1.41c-.65-.45-1.47-1.1-2.48-1.85z"/><path d="m467.91 98.11a.92.92 0 0 1 .56-1 3.89 3.89 0 0 1 1.44-.22 2.46 2.46 0 0 1 1.48.53 6.46 6.46 0 0 1 1.52 1.35 2.94 2.94 0 0 1 .68 1.38q.07.75-1.2.87h-.39a13.82 13.82 0 0 1 -2-.12 3.33 3.33 0 0 1 -1.24-.41 1.6 1.6 0 0 1 -.64-.85 4.88 4.88 0 0 1 -.21-1.53zm4.09 15.73v-.94c0-.46 0-.94 0-1.45s0-1 0-1.44v-.94c-.21-1.29.27-1.94 1.44-1.94a2.87 2.87 0 0 1 1.36.31 3.63 3.63 0 0 1 1 .94 23.46 23.46 0 0 0 .36 6.3c.4 2 .85 4 1.35 6s1 4 1.44 6a28 28 0 0 1 .68 6.27 2.81 2.81 0 0 1 -.68 1.75 2.4 2.4 0 0 1 -2 .88c-.69 0-1.29-.47-1.79-1.41a15.8 15.8 0 0 1 -1.32-3.57 44.21 44.21 0 0 1 -1-4.8q-.4-2.62-.6-5c-.13-1.61-.23-3.05-.28-4.32s.04-2.18.04-2.64z"/><path d="m485.6 135a69.2 69.2 0 0 1 -1-8.87c-.13-3-.2-5.9-.2-8.87s.06-5.91.16-8.83.14-5.85.08-8.78a.68.68 0 0 1 .48-.68 3 3 0 0 1 1.12-.19 2.12 2.12 0 0 1 1.28.4 4.2 4.2 0 0 1 1 1 4.59 4.59 0 0 1 .6 1.19 3.33 3.33 0 0 1 .2 1q.48 9 .64 14.94t0 9.65a38 38 0 0 1 -.52 5.42 5.47 5.47 0 0 1 -.92 2.39 1.4 1.4 0 0 1 -1.32.5z"/><path d="m496.5 135a67.46 67.46 0 0 1 -1-8.87c-.13-3-.2-5.9-.2-8.87s.05-5.91.16-8.83.13-5.85.08-8.78a.68.68 0 0 1 .46-.65 3 3 0 0 1 1.12-.19 2.14 2.14 0 0 1 1.28.4 4.2 4.2 0 0 1 1 1 4.88 4.88 0 0 1 .59 1.19 3.09 3.09 0 0 1 .21 1q.48 9 .63 14.94t0 9.65a38.31 38.31 0 0 1 -.51 5.42 5.6 5.6 0 0 1 -.92 2.39 1.42 1.42 0 0 1 -1.32.5z"/><path d="m538.19 111.08a.68.68 0 0 1 .52-.72 3.83 3.83 0 0 1 1.16-.16 1 1 0 0 1 .68.19 1 1 0 0 1 .28.44 1.5 1.5 0 0 0 .24.47.67.67 0 0 0 .56.22 7.13 7.13 0 0 0 2.72-.69l3.48-1.51q1.88-.81 4-1.5a13.48 13.48 0 0 1 4.2-.69 11.34 11.34 0 0 1 5 1.1 14.63 14.63 0 0 1 4.08 2.91 19.21 19.21 0 0 1 3.08 4.07 33.16 33.16 0 0 1 2.16 4.61 27.41 27.41 0 0 1 1.28 4.57 23 23 0 0 1 .4 3.86c0 .37 0 .94-.12 1.69a20.23 20.23 0 0 1 -.4 2.26 5.51 5.51 0 0 1 -.92 2 2 2 0 0 1 -1.6.85 5.24 5.24 0 0 1 -.56 0 5.52 5.52 0 0 1 -.8-.12 3.89 3.89 0 0 1 -.68-.22.4.4 0 0 1 -.28-.38 28.59 28.59 0 0 0 0-9 26.36 26.36 0 0 0 -2.32-7.43 15.05 15.05 0 0 0 -3.92-5.07 7.67 7.67 0 0 0 -4.95-1.88 16.89 16.89 0 0 0 -4.64.62 11.69 11.69 0 0 0 -3.75 1.82 8.87 8.87 0 0 0 -2.52 2.88 7.58 7.58 0 0 0 -.92 3.7 16.73 16.73 0 0 0 .48 4c.32 1.32.68 2.63 1.08 4s.76 2.64 1.08 4a17.17 17.17 0 0 1 .48 4 5.24 5.24 0 0 1 -3.76-1.44 10.48 10.48 0 0 1 -2.44-3.7 26.29 26.29 0 0 1 -1.44-5.08 51.91 51.91 0 0 1 -.72-5.54c-.13-1.82-.2-3.53-.2-5.14z"/><path d="m576.11 118.72a16 16 0 0 1 1.24-6.23 15.24 15.24 0 0 1 3.59-5.23 17.49 17.49 0 0 1 5.76-3.61 21.41 21.41 0 0 1 7.87-1.34 14.58 14.58 0 0 1 4.6 1.12 10.13 10.13 0 0 1 3.19 2.17 7.57 7.57 0 0 1 1.8 3 12.41 12.41 0 0 1 .48 3.51 5.83 5.83 0 0 1 -1.68 4.07 13.58 13.58 0 0 1 -4.23 3 25.1 25.1 0 0 1 -5.52 1.88 25.39 25.39 0 0 1 -5.51.66h-2a5.89 5.89 0 0 1 -1.8-.25 3 3 0 0 1 -1.28-.75 2.11 2.11 0 0 1 -.48-1.5 1.13 1.13 0 0 1 .12-.54c.08-.14.31-.25.68-.31a8.58 8.58 0 0 1 1.68 0c.75.08 1.76.21 3 .37a12.85 12.85 0 0 0 3.23-.59 35.1 35.1 0 0 0 4.32-1.54 17.18 17.18 0 0 0 3.8-2.16 3.29 3.29 0 0 0 1.6-2.41 6.42 6.42 0 0 0 -.52-2.48 6.28 6.28 0 0 0 -1.56-2.16 8.14 8.14 0 0 0 -2.44-1.5 7 7 0 0 0 -3.16-.44 14.85 14.85 0 0 0 -5.07 1.19 12.76 12.76 0 0 0 -3.88 2.6 12.08 12.08 0 0 0 -2.48 3.54 9.87 9.87 0 0 0 -.88 4.07c0 1.09 0 2.18.08 3.26a12.56 12.56 0 0 0 .6 3.2 9.26 9.26 0 0 0 5 5.54 23.74 23.74 0 0 0 5.55 1.82 50 50 0 0 0 8.32.91l14.3-.75a9.72 9.72 0 0 1 -3.23 2.25 23.13 23.13 0 0 1 -4.16 1.41 36.07 36.07 0 0 1 -4.36.79 36.82 36.82 0 0 1 -4.07.25 31.14 31.14 0 0 1 -8.72-1.19 24.68 24.68 0 0 1 -7.19-3.36 16.17 16.17 0 0 1 -4.91-5.26 13.68 13.68 0 0 1 -1.68-7.01z"/><path d="m619.38 118.72a16.14 16.14 0 0 1 1.23-6.23 15.41 15.41 0 0 1 3.6-5.23 17.49 17.49 0 0 1 5.76-3.61 21.37 21.37 0 0 1 7.87-1.34 14.58 14.58 0 0 1 4.6 1.12 10.13 10.13 0 0 1 3.19 2.17 7.57 7.57 0 0 1 1.8 3 12.41 12.41 0 0 1 .48 3.51 5.83 5.83 0 0 1 -1.68 4.07 13.58 13.58 0 0 1 -4.23 3 25.1 25.1 0 0 1 -5.52 1.88 25.39 25.39 0 0 1 -5.51.66h-2a5.89 5.89 0 0 1 -1.8-.25 3 3 0 0 1 -1.28-.75 2.11 2.11 0 0 1 -.48-1.5 1.13 1.13 0 0 1 .12-.54c.08-.14.31-.25.68-.31a8.58 8.58 0 0 1 1.68 0c.74.08 1.76.21 3 .37a12.85 12.85 0 0 0 3.23-.59 35.7 35.7 0 0 0 4.32-1.54 17.41 17.41 0 0 0 3.8-2.16 3.29 3.29 0 0 0 1.6-2.41 6.42 6.42 0 0 0 -.52-2.48 6.28 6.28 0 0 0 -1.56-2.16 8.26 8.26 0 0 0 -2.44-1.5 7 7 0 0 0 -3.16-.44 14.79 14.79 0 0 0 -5.07 1.19 12.64 12.64 0 0 0 -3.88 2.6 12.08 12.08 0 0 0 -2.48 3.54 9.71 9.71 0 0 0 -.88 4.07c0 1.09 0 2.18.08 3.26a11.75 11.75 0 0 0 .6 3.2 9.26 9.26 0 0 0 5 5.54 23.58 23.58 0 0 0 5.55 1.82 50 50 0 0 0 8.31.91l14.31-.75a9.72 9.72 0 0 1 -3.23 2.25 23.4 23.4 0 0 1 -4.16 1.41 36.07 36.07 0 0 1 -4.36.79 37 37 0 0 1 -4.07.25 31.14 31.14 0 0 1 -8.72-1.19 24.68 24.68 0 0 1 -7.19-3.36 16.31 16.31 0 0 1 -4.92-5.26 13.67 13.67 0 0 1 -1.67-7.01z"/><path d="m662.64 121.29a17.44 17.44 0 0 1 .76-4.88 15.19 15.19 0 0 1 2.4-4.77 13.09 13.09 0 0 1 4.2-3.64 12.51 12.51 0 0 1 6.19-1.41 17.34 17.34 0 0 1 3.84.44 26.84 26.84 0 0 1 4 1.25c1.35.55 2.77 1.18 4.23 1.91s3 1.54 4.68 2.42a15.64 15.64 0 0 0 -.24-5.17 43.21 43.21 0 0 0 -1.44-5.24q-.88-2.56-1.8-4.85a27 27 0 0 1 -1.32-4.11 6.56 6.56 0 0 1 -.08-3 2.18 2.18 0 0 1 1.92-1.51 11.58 11.58 0 0 1 3.72 3.54 24.79 24.79 0 0 1 2.68 5.3 45.5 45.5 0 0 1 1.83 6.42c.48 2.28.88 4.58 1.2 6.92s.58 4.62.76 6.83.39 4.25.6 6.11.41 3.45.6 4.77a7 7 0 0 0 .84 2.78 1.18 1.18 0 0 1 -.92 1.26 7.41 7.41 0 0 1 -1.88.25 2.08 2.08 0 0 1 -1.36-.47 3.72 3.72 0 0 1 -.88-1.1 11.74 11.74 0 0 1 -.59-1.41q-.29-.78-.6-1.44a5.24 5.24 0 0 0 -.72-1.1 1.37 1.37 0 0 0 -1-.44c-.11 0-.26 0-.44 0s-.28 0-.28.09a26.55 26.55 0 0 1 -3.56 3.16 25.53 25.53 0 0 1 -4.47 2.7 28.91 28.91 0 0 1 -5.12 1.85 21.62 21.62 0 0 1 -5.4.69 9.11 9.11 0 0 1 -5.31-1.57 15.26 15.26 0 0 1 -3.84-3.76 16.41 16.41 0 0 1 -2.32-4.64 14.83 14.83 0 0 1 -.88-4.18zm5 1.13c.53 1.5 1 2.82 1.44 4a8.84 8.84 0 0 0 1.56 2.76 5.69 5.69 0 0 0 2.2 1.59 8.72 8.72 0 0 0 3.35.54 14.64 14.64 0 0 0 5.44-1.16 24.75 24.75 0 0 0 5.35-3 19.1 19.1 0 0 0 4.08-4 7 7 0 0 0 1.6-4.17v-1.5a33.51 33.51 0 0 0 -7.79-4.67 18.1 18.1 0 0 0 -6.36-1.44 10.83 10.83 0 0 0 -4.88 1 10.2 10.2 0 0 0 -3.43 2.63 10.73 10.73 0 0 0 -2 3.64 11 11 0 0 0 -.6 3.78z"/><path d="m95.31 226.25h-2.24a25.58 25.58 0 0 1 -3.32-.22 14.05 14.05 0 0 1 -3.11-.72c-.94-.33-1.4-.81-1.4-1.44a3.11 3.11 0 0 1 .12-.72c.08-.31.33-.47.76-.47l8.23-.56c.21-1.55.37-2.81.48-3.8a17.27 17.27 0 0 0 .08-2.75c0-.86-.12-1.76-.2-2.7s-.15-2.16-.2-3.66a1 1 0 0 1 .24-.69 1.54 1.54 0 0 1 .6-.38 5.23 5.23 0 0 1 .8-.19 5.35 5.35 0 0 1 .68-.06 2.42 2.42 0 0 1 1 .25 4 4 0 0 1 .92.63 3.78 3.78 0 0 1 .64.78 1.54 1.54 0 0 1 .24.79l.63 11.71 6.88.25a5 5 0 0 1 2.52.41 2.14 2.14 0 0 1 1.24 2 4.33 4.33 0 0 1 -2.32 1 21.86 21.86 0 0 1 -2.84.12c-1 0-2 0-2.92 0a5.85 5.85 0 0 0 -2.56.6c0 .25 0 .94.08 2.06s.11 2.47.16 4 .12 3.2.2 5 .15 3.37.2 4.85.1 2.75.12 3.79 0 1.63 0 1.76a2.47 2.47 0 0 1 -3-.16 7.12 7.12 0 0 1 -1.8-3.07 21.5 21.5 0 0 1 -1-4.76c-.19-1.82-.3-3.62-.32-5.39s0-3.42 0-4.92a28.46 28.46 0 0 1 .41-3.34z"/><path d="m113.88 235a9.76 9.76 0 0 1 1.92-6 15.78 15.78 0 0 1 5-4.32 25.25 25.25 0 0 1 7-2.61 36.65 36.65 0 0 1 7.79-.84 12.47 12.47 0 0 1 3.88.59 15.61 15.61 0 0 1 3.43 1.63 15.17 15.17 0 0 1 2.92 2.38 18.69 18.69 0 0 1 2.2 2.79 12.78 12.78 0 0 1 1.4 2.92 9.16 9.16 0 0 1 .48 2.85 10.42 10.42 0 0 1 -1.6 5.7 13.86 13.86 0 0 1 -4.32 4.23 21.59 21.59 0 0 1 -6.15 2.63 27.25 27.25 0 0 1 -7 .91 23.6 23.6 0 0 1 -6.75-.91 17.61 17.61 0 0 1 -5.36-2.54 11.56 11.56 0 0 1 -3.55-4 11.17 11.17 0 0 1 -1.29-5.41zm3.92-.5a8.06 8.06 0 0 0 .91 3.73 9.62 9.62 0 0 0 2.56 3.1 12.88 12.88 0 0 0 3.88 2.1 14.2 14.2 0 0 0 4.79.79 10.67 10.67 0 0 0 3.32-.35 20.39 20.39 0 0 0 3.92-1.38 23 23 0 0 0 3.76-2.19 14.46 14.46 0 0 0 3-2.82 7.11 7.11 0 0 0 1.48-3.2 4.74 4.74 0 0 0 -.72-3.32 10 10 0 0 0 -3.63-3.19 31.85 31.85 0 0 0 -7.28-2.85 26.35 26.35 0 0 0 -5.47.59 20.26 20.26 0 0 0 -5.16 1.79 12.16 12.16 0 0 0 -3.84 3 6.39 6.39 0 0 0 -1.52 4.22z"/><path d="m212.09 227.88c1.12 0 1.59.42 1.43 1.25.48.46.47.89 0 1.29a5.56 5.56 0 0 1 -2.51.88 27.62 27.62 0 0 1 -4.4.25 38.37 38.37 0 0 1 -5.75-.54 7.8 7.8 0 0 0 1.39 4.45 37.73 37.73 0 0 0 3.08 3.95c1.12 1.25 2.16 2.47 3.12 3.63a5.58 5.58 0 0 1 1.44 3.51 1 1 0 0 1 -.64 1.07 3.18 3.18 0 0 1 -1.44.25 3.85 3.85 0 0 1 -1.72-.47 7.74 7.74 0 0 1 -1.68-1.16 17.24 17.24 0 0 1 -1.4-1.44c-.37-.5-.66-.92-.88-1.25l-.91-1.45c-.4-.62-.87-1.35-1.4-2.19s-1.07-1.7-1.6-2.6l-1.56-2.6c-.51-.83-1-1.59-1.32-2.26a11 11 0 0 1 -.88-1.44l-.88-.69a10.79 10.79 0 0 1 -1.48.29l-2.28.34-2.31.38a12.12 12.12 0 0 1 -1.6.19h-.4a1 1 0 0 1 -.88-.35 1.44 1.44 0 0 1 -.24-.85 1.77 1.77 0 0 1 1-1.62 7 7 0 0 1 2.32-.82 22.82 22.82 0 0 1 2.83-.34l2.44-.16c-.11-1.25-.18-2.74-.24-4.45a31.55 31.55 0 0 1 .32-5.33 30.38 30.38 0 0 1 1.32-5.42 15.65 15.65 0 0 1 2.64-4.79 12.9 12.9 0 0 1 4.36-3.45 14.45 14.45 0 0 1 6.47-1.31 15.25 15.25 0 0 1 4.72.84 22 22 0 0 1 4.75 2.23 15.14 15.14 0 0 1 3.64 3.1 5.43 5.43 0 0 1 1.44 3.48h-1.84a4.62 4.62 0 0 1 -2.84-.94c-.83-.63-1.69-1.33-2.6-2.1a23.72 23.72 0 0 0 -2.87-2.1 6.39 6.39 0 0 0 -3.44-.94 12.64 12.64 0 0 0 -5 .94 12 12 0 0 0 -3.83 2.51 10.38 10.38 0 0 0 -3.2 7.45v.63l1.44 9a2.26 2.26 0 0 0 .88.22c.48.06 1.24.15 2.28.25s2.42.22 4.15.34 3.89.22 6.56.34z"/><path d="m218 210.4a.91.91 0 0 1 .56-1 3.87 3.87 0 0 1 1.43-.22 2.44 2.44 0 0 1 1.48.53 6.46 6.46 0 0 1 1.52 1.35 2.85 2.85 0 0 1 .68 1.38q.07.75-1.2.87h-.47a13.91 13.91 0 0 1 -2-.12 3.27 3.27 0 0 1 -1.23-.41 1.55 1.55 0 0 1 -.64-.85 4.61 4.61 0 0 1 -.13-1.53zm4 15.73v-.94c0-.46 0-.94 0-1.45s0-1 0-1.44v-.94c-.21-1.29.27-1.94 1.44-1.94a2.85 2.85 0 0 1 1.36.31 3.63 3.63 0 0 1 1 .94 23.46 23.46 0 0 0 .36 6.3c.4 2 .85 4 1.36 6s1 4 1.44 6a28.62 28.62 0 0 1 .68 6.27 2.87 2.87 0 0 1 -.68 1.75 2.43 2.43 0 0 1 -2 .88q-1 0-1.8-1.41a15.8 15.8 0 0 1 -1.32-3.57q-.56-2.16-1-4.8t-.6-5c-.13-1.61-.23-3.05-.28-4.32s.04-2.18.04-2.64z"/><path d="m221.65 265.23a1.86 1.86 0 0 1 0-1.57 3 3 0 0 1 1-1.13 3.36 3.36 0 0 1 1.4-.56 1.88 1.88 0 0 1 1.27.16 1.3 1.3 0 0 1 .64 1 3.74 3.74 0 0 1 -.52 2.07 3.72 3.72 0 0 0 1.48 2.69 15.13 15.13 0 0 0 3.84 2.38 46.45 46.45 0 0 0 5.16 1.95q2.79.87 5.43 1.5c1.76.42 3.33.73 4.72.94a19.28 19.28 0 0 0 2.93.34 6.66 6.66 0 0 0 3.4-.81 8.41 8.41 0 0 0 2.4-2.13 11.06 11.06 0 0 0 1.6-3 22.84 22.84 0 0 0 .92-3.32 25 25 0 0 0 .4-3.23c.05-1 .08-1.92.08-2.63 0-.33 0-.95-.12-1.85s-.2-1.93-.36-3.1-.35-2.38-.56-3.63-.45-2.43-.72-3.51a16.78 16.78 0 0 0 -.84-2.63c-.29-.67-.6-1-.92-1a5.9 5.9 0 0 0 -1.88.38c-.72.25-1.46.52-2.24.81s-1.55.57-2.35.82a7.79 7.79 0 0 1 -2.32.37 13.94 13.94 0 0 1 -8.12-2.69 9.77 9.77 0 0 1 -2.51-2.82 6.57 6.57 0 0 1 -1-3.38 12.75 12.75 0 0 1 1.4-5.64 18.94 18.94 0 0 1 3.83-5.27 20.12 20.12 0 0 1 5.76-3.88 16.81 16.81 0 0 1 7.07-1.51 8 8 0 0 1 4.68 2.86 16.18 16.18 0 0 1 2.8 5.48 39.66 39.66 0 0 1 1.43 7.24q.45 4 .6 8.11t.28 8.11a62.81 62.81 0 0 0 .6 7.24 32.76 32.76 0 0 1 -.2 3.42 31.86 31.86 0 0 1 -.68 4 26.35 26.35 0 0 1 -1.31 4.1 13.75 13.75 0 0 1 -2.2 3.64 10.43 10.43 0 0 1 -3.32 2.57 10.15 10.15 0 0 1 -4.52 1 40.11 40.11 0 0 1 -5-.38 50.41 50.41 0 0 1 -6.08-1.19 59.15 59.15 0 0 1 -6.27-2 33.92 33.92 0 0 1 -5.6-2.73 15.16 15.16 0 0 1 -4-3.45 6.5 6.5 0 0 1 -1.48-4.14zm16.78-28.64a5.53 5.53 0 0 0 .44 2.16 5.69 5.69 0 0 0 1.28 1.85 6.12 6.12 0 0 0 2.08 1.29 7.8 7.8 0 0 0 2.76.47 12.26 12.26 0 0 0 6.19-1.26 6.73 6.73 0 0 0 2.92-3.1 10.18 10.18 0 0 0 .8-4c-.05-1.46-.13-2.78-.24-4a9.42 9.42 0 0 0 -.16-1.75 4.52 4.52 0 0 0 -.64-1.63 3.38 3.38 0 0 0 -1.32-1.19 4.44 4.44 0 0 0 -2.12-.44 10.47 10.47 0 0 0 -4.87 1.16 13.15 13.15 0 0 0 -3.8 2.88 13.71 13.71 0 0 0 -2.44 3.76 9.73 9.73 0 0 0 -.88 3.8z"/><path d="m294.09 238.72a12.38 12.38 0 0 0 -3.16 2c-.87.78-1.77 1.51-2.67 2.2a15.94 15.94 0 0 1 -3 1.78 10 10 0 0 1 -4.2.76 13.23 13.23 0 0 1 -5.19-1 13.73 13.73 0 0 1 -4.12-2.63 18.26 18.26 0 0 1 -3.12-3.76 24.21 24.21 0 0 1 -2.16-4.32 29.21 29.21 0 0 1 -1.27-4.39 19.25 19.25 0 0 1 -.44-3.91 8.88 8.88 0 0 1 .24-5.3 4.51 4.51 0 0 1 2.11-2.44 1.85 1.85 0 0 1 2.12.25c.59.52.67 1.43.24 2.72a2.39 2.39 0 0 0 -.24.79c-.05.35-.1.72-.16 1.09s-.1.74-.16 1.07a5.75 5.75 0 0 0 -.08.69 18.2 18.2 0 0 0 .32 3.1 25.34 25.34 0 0 0 1 3.73 26.11 26.11 0 0 0 1.72 3.85 15.6 15.6 0 0 0 2.48 3.42 11.79 11.79 0 0 0 3.32 2.44 9 9 0 0 0 4.11.94 6.52 6.52 0 0 0 3.28-1.1 20.4 20.4 0 0 0 3.48-2.63 20.73 20.73 0 0 0 2.79-3.16 5.08 5.08 0 0 0 1.16-2.76c0-.41 0-1.1 0-2.07s0-2 0-3.07 0-2.11 0-3.07 0-1.63 0-2a3.92 3.92 0 0 1 1-1 2.55 2.55 0 0 1 1.36-.35 1.89 1.89 0 0 1 1.6 1 8.93 8.93 0 0 1 1 2.57 21.41 21.41 0 0 1 .56 3.39q.15 1.81.24 3.51c.05 1.12.1 2.12.16 3a7.07 7.07 0 0 0 .24 1.73 20.93 20.93 0 0 0 1.16 2.82c.5 1 1 2.05 1.48 3s.9 1.88 1.27 2.69a4.84 4.84 0 0 1 .56 1.85c0 .62-.22 1-.68 1.13a6.78 6.78 0 0 1 -1.71.18 2.52 2.52 0 0 1 -2.76-1.78 10.16 10.16 0 0 1 -.44-1.73 12 12 0 0 0 -.52-1.94 7 7 0 0 0 -1-1.88 5 5 0 0 0 -1.92-1.41z"/><path d="m314.34 247.81a31.58 31.58 0 0 1 -3-5.45 52 52 0 0 1 -2.16-6 57.47 57.47 0 0 1 -1.39-5.86 44.73 44.73 0 0 1 -.68-5.17 7.15 7.15 0 0 0 -.08-1 4.39 4.39 0 0 1 0-1.09 3.21 3.21 0 0 1 .24-1.07 2.1 2.1 0 0 1 .68-.88h.05.08s0 0 .08 0 .08 0 .08 0 .05 0 .16 0h.16a6.74 6.74 0 0 0 .8.25 2.71 2.71 0 0 1 .79.32c1-.25 1.95-.56 3-.91s2-.69 3.08-1a31 31 0 0 1 3.16-.79 16 16 0 0 1 3.11-.31c.75 0 1.4 0 2 .06a16.1 16.1 0 0 1 1.68.22c.56.11 1.16.23 1.8.38l2.24.53c.42.25.81.49 1.16.72a7.12 7.12 0 0 1 1 .78 3.26 3.26 0 0 1 .68 1.07 4.64 4.64 0 0 1 .24 1.63 11.8 11.8 0 0 1 -3-.16q-1.72-.28-3.6-.72c-1.25-.29-2.55-.54-3.88-.75a20.3 20.3 0 0 0 -3.83-.25 8.68 8.68 0 0 0 -3.44.81 6.76 6.76 0 0 0 -3 2.26 10.6 10.6 0 0 0 -.48 3.57 15.08 15.08 0 0 0 .56 3.42 24 24 0 0 0 1.24 3.32c.51 1.1 1 2.21 1.44 3.32s.87 2.2 1.24 3.29a14.7 14.7 0 0 1 .72 3.32 1.91 1.91 0 0 1 -.88 1.35 3.07 3.07 0 0 1 -2.05.79z"/><path d="m336.51 231a16 16 0 0 1 1.24-6.23 15.24 15.24 0 0 1 3.59-5.23 17.49 17.49 0 0 1 5.76-3.61 21.41 21.41 0 0 1 7.9-1.33 14.58 14.58 0 0 1 4.6 1.12 10.13 10.13 0 0 1 3.19 2.17 7.57 7.57 0 0 1 1.8 3 12.41 12.41 0 0 1 .48 3.51 5.83 5.83 0 0 1 -1.68 4.07 13.47 13.47 0 0 1 -4.23 3 25.1 25.1 0 0 1 -5.52 1.88 25.39 25.39 0 0 1 -5.51.66h-2a5.89 5.89 0 0 1 -1.8-.25 3 3 0 0 1 -1.28-.75 2.1 2.1 0 0 1 -.48-1.5 1.13 1.13 0 0 1 .12-.54c.08-.14.31-.25.68-.31a8.58 8.58 0 0 1 1.68 0c.75.08 1.76.21 3 .37a13 13 0 0 0 3.24-.59 35.57 35.57 0 0 0 4.31-1.54 17.18 17.18 0 0 0 3.8-2.16 3.29 3.29 0 0 0 1.6-2.41 6.42 6.42 0 0 0 -.52-2.48 6.28 6.28 0 0 0 -1.56-2.16 8.14 8.14 0 0 0 -2.44-1.5 7 7 0 0 0 -3.16-.44 14.85 14.85 0 0 0 -5.07 1.19 12.76 12.76 0 0 0 -3.88 2.6 12.08 12.08 0 0 0 -2.48 3.54 9.87 9.87 0 0 0 -.88 4.07c0 1.09 0 2.18.08 3.26a12.56 12.56 0 0 0 .6 3.2 9.26 9.26 0 0 0 5 5.54 23.74 23.74 0 0 0 5.55 1.82 50 50 0 0 0 8.32.91l14.31-.75a9.87 9.87 0 0 1 -3.24 2.25 23.13 23.13 0 0 1 -4.16 1.41 36.27 36.27 0 0 1 -4.35.79 37.14 37.14 0 0 1 -4.08.25 31 31 0 0 1 -8.71-1.19 24.62 24.62 0 0 1 -7.2-3.36 16.28 16.28 0 0 1 -4.91-5.26 13.68 13.68 0 0 1 -1.71-7.02z"/><path d="m411 210.4a.92.92 0 0 1 .56-1 4 4 0 0 1 1.44-.22 2.44 2.44 0 0 1 1.48.53 6.46 6.46 0 0 1 1.52 1.35 2.85 2.85 0 0 1 .68 1.38q.08.75-1.2.87h-.4a13.91 13.91 0 0 1 -2-.12 3.39 3.39 0 0 1 -1.24-.41 1.59 1.59 0 0 1 -.63-.85 4.57 4.57 0 0 1 -.21-1.53zm4.08 15.73v-.94c0-.46 0-.94 0-1.45s0-1 0-1.44v-.94c-.21-1.29.27-1.94 1.44-1.94a2.85 2.85 0 0 1 1.36.31 3.63 3.63 0 0 1 1 .94 23.46 23.46 0 0 0 .36 6.3c.4 2 .85 4 1.36 6s1 4 1.44 6a28.62 28.62 0 0 1 .67 6.27 2.85 2.85 0 0 1 -.67 1.75 2.43 2.43 0 0 1 -2 .88c-.7 0-1.29-.47-1.8-1.41a15.8 15.8 0 0 1 -1.32-3.57q-.56-2.16-1-4.8t-.6-5c-.13-1.61-.23-3.05-.28-4.32s.01-2.18.01-2.64z"/><path d="m436.26 226.25h-2.26a25.58 25.58 0 0 1 -3.32-.22 14.05 14.05 0 0 1 -3.11-.72c-.94-.33-1.4-.81-1.4-1.44a3.11 3.11 0 0 1 .12-.72c.08-.31.33-.47.76-.47l8.23-.56c.21-1.55.37-2.81.48-3.8a16.16 16.16 0 0 0 .08-2.75c-.05-.86-.12-1.76-.2-2.7s-.15-2.16-.2-3.66a1 1 0 0 1 .24-.69 1.54 1.54 0 0 1 .6-.38 5.23 5.23 0 0 1 .8-.19 5.35 5.35 0 0 1 .68-.06 2.42 2.42 0 0 1 1 .25 4 4 0 0 1 .92.63 3.78 3.78 0 0 1 .64.78 1.54 1.54 0 0 1 .24.79l.64 11.71 6.87.25a5 5 0 0 1 2.52.41 2.14 2.14 0 0 1 1.24 2 4.33 4.33 0 0 1 -2.32 1 21.86 21.86 0 0 1 -2.84.12c-1 0-2 0-2.92 0a5.77 5.77 0 0 0 -2.55.6c0 .25 0 .94.07 2.06s.11 2.47.16 4 .12 3.2.2 5 .15 3.37.2 4.85.1 2.75.12 3.79 0 1.63 0 1.76a2.47 2.47 0 0 1 -2.95-.16 7.12 7.12 0 0 1 -1.8-3.07 21.5 21.5 0 0 1 -1-4.76c-.19-1.82-.29-3.62-.32-5.39s0-3.42 0-4.92a28.46 28.46 0 0 1 .38-3.34z"/><path d="m486.59 235a9.76 9.76 0 0 1 1.92-6 15.67 15.67 0 0 1 5-4.32 25.3 25.3 0 0 1 7-2.61 36.81 36.81 0 0 1 7.8-.84 12.51 12.51 0 0 1 3.88.59 15.83 15.83 0 0 1 3.43 1.63 15.48 15.48 0 0 1 2.92 2.38 19.36 19.36 0 0 1 2.2 2.79 12.78 12.78 0 0 1 1.4 2.92 9.16 9.16 0 0 1 .48 2.85 10.42 10.42 0 0 1 -1.6 5.7 13.86 13.86 0 0 1 -4.32 4.23 21.59 21.59 0 0 1 -6.15 2.63 27.3 27.3 0 0 1 -7 .91 23.6 23.6 0 0 1 -6.75-.91 17.61 17.61 0 0 1 -5.36-2.54 11.46 11.46 0 0 1 -3.55-4 11.17 11.17 0 0 1 -1.3-5.41zm3.91-.5a8.07 8.07 0 0 0 .92 3.73 9.5 9.5 0 0 0 2.56 3.1 12.76 12.76 0 0 0 3.88 2.1 14.2 14.2 0 0 0 4.79.79 10.7 10.7 0 0 0 3.32-.35 20.39 20.39 0 0 0 3.92-1.38 22.91 22.91 0 0 0 3.75-2.19 14.53 14.53 0 0 0 3-2.82 7.11 7.11 0 0 0 1.48-3.2 4.74 4.74 0 0 0 -.72-3.32 10 10 0 0 0 -3.64-3.19 31.56 31.56 0 0 0 -7.27-2.85 26.51 26.51 0 0 0 -5.48.59 20.19 20.19 0 0 0 -5.15 1.79 12 12 0 0 0 -3.84 3 6.4 6.4 0 0 0 -1.52 4.22z"/><path d="m556.71 238.72a12.15 12.15 0 0 0 -3.15 2c-.88.78-1.78 1.51-2.68 2.2a15.94 15.94 0 0 1 -3 1.78 10 10 0 0 1 -4.2.76 13.26 13.26 0 0 1 -5.19-1 13.73 13.73 0 0 1 -4.12-2.63 18.26 18.26 0 0 1 -3.12-3.76 24.84 24.84 0 0 1 -2.15-4.32 28.14 28.14 0 0 1 -1.28-4.39 19.25 19.25 0 0 1 -.44-3.91 8.88 8.88 0 0 1 .24-5.3 4.48 4.48 0 0 1 2.12-2.44 1.83 1.83 0 0 1 2.11.25c.59.52.67 1.43.24 2.72a2.39 2.39 0 0 0 -.24.79c-.05.35-.1.72-.16 1.09s-.1.74-.16 1.07a5.75 5.75 0 0 0 -.08.69 18.2 18.2 0 0 0 .32 3.1 25.34 25.34 0 0 0 1 3.73 26.11 26.11 0 0 0 1.72 3.85 15.6 15.6 0 0 0 2.48 3.42 11.79 11.79 0 0 0 3.32 2.44 9 9 0 0 0 4.11.94 6.52 6.52 0 0 0 3.28-1.1 20 20 0 0 0 3.48-2.63 21.38 21.38 0 0 0 2.8-3.16 5.13 5.13 0 0 0 1.15-2.76c0-.41 0-1.1 0-2.07s0-2 0-3.07 0-2.11 0-3.07 0-1.63 0-2a3.92 3.92 0 0 1 1-1 2.57 2.57 0 0 1 1.36-.35 1.89 1.89 0 0 1 1.6 1 8.93 8.93 0 0 1 1 2.57 21.41 21.41 0 0 1 .56 3.39q.16 1.81.24 3.51c0 1.12.11 2.12.16 3a7.07 7.07 0 0 0 .24 1.73 22.32 22.32 0 0 0 1.16 2.82c.5 1 1 2.05 1.48 3s.9 1.88 1.28 2.69a5 5 0 0 1 .56 1.85c0 .62-.23 1-.68 1.13a6.92 6.92 0 0 1 -1.72.18 2.86 2.86 0 0 1 -1.88-.5 2.92 2.92 0 0 1 -.88-1.28 10.16 10.16 0 0 1 -.44-1.73 12 12 0 0 0 -.52-1.94 7 7 0 0 0 -1-1.88 5 5 0 0 0 -1.92-1.41z"/><path d="m579 226.25h-2.2a25.58 25.58 0 0 1 -3.32-.22 14.05 14.05 0 0 1 -3.11-.72c-.94-.33-1.4-.81-1.4-1.44a3.11 3.11 0 0 1 .12-.72c.08-.31.33-.47.76-.47l8.23-.56c.21-1.55.37-2.81.48-3.8a16.16 16.16 0 0 0 .08-2.75c0-.86-.12-1.76-.2-2.7s-.15-2.16-.2-3.66a1 1 0 0 1 .24-.69 1.54 1.54 0 0 1 .6-.38 5.53 5.53 0 0 1 .8-.19 5.35 5.35 0 0 1 .68-.06 2.42 2.42 0 0 1 1 .25 4 4 0 0 1 .92.63 3.78 3.78 0 0 1 .64.78 1.54 1.54 0 0 1 .24.79l.64 11.71 6.87.25a5 5 0 0 1 2.52.41 2.14 2.14 0 0 1 1.24 2 4.33 4.33 0 0 1 -2.32 1 21.86 21.86 0 0 1 -2.84.12c-1 0-2 0-2.92 0a5.77 5.77 0 0 0 -2.55.6c0 .25 0 .94.07 2.06s.11 2.47.16 4 .12 3.2.2 5 .15 3.37.2 4.85.1 2.75.12 3.79 0 1.63 0 1.76a2.47 2.47 0 0 1 -2.95-.16 7.12 7.12 0 0 1 -1.8-3.07 22.09 22.09 0 0 1 -1-4.76c-.19-1.82-.29-3.62-.32-5.39s0-3.42 0-4.92a28.46 28.46 0 0 1 .32-3.34z"/><path d="m86.76 330a36.67 36.67 0 0 0 -1-4.7 10.5 10.5 0 0 1 -.52-3.2 2.34 2.34 0 0 1 1-1.94 8.38 8.38 0 0 1 3.59-.94c.11.42.24 1.21.4 2.38s.33 2.5.52 4 .4 3 .64 4.64.47 3.08.68 4.42a21.93 21.93 0 0 0 .72 3.25q.4 1.38.72 1.26a11 11 0 0 0 2.84-.38 11.52 11.52 0 0 1 3-.37 40.68 40.68 0 0 1 5.11.34 43.9 43.9 0 0 1 5.4 1 35 35 0 0 1 5.19 1.79 20.82 20.82 0 0 1 4.4 2.54 11.91 11.91 0 0 1 3 3.32 8 8 0 0 1 1.11 4.13 6.07 6.07 0 0 1 -1.79 4.61 11.4 11.4 0 0 1 -4.6 2.6 27.12 27.12 0 0 1 -6.07 1.13q-3.36.25-6.24.25a23.76 23.76 0 0 1 -6.63-.78 12.33 12.33 0 0 1 -4.23-2.14 9.39 9.39 0 0 1 -2.61-3.21 15.6 15.6 0 0 1 -1.28-4 42.09 42.09 0 0 1 -.56-4.51c-.1-1.57-.26-3.15-.48-4.73 0-.3-.18-.95-.4-2s-.46-2.15-.75-3.38-.55-2.37-.76-3.42-.35-1.65-.4-1.96zm7.67 16.42a5.69 5.69 0 0 0 .44 4.76 9.29 9.29 0 0 0 3.6 3.29 17 17 0 0 0 5.43 1.78 22.05 22.05 0 0 0 6.12.16 17.34 17.34 0 0 0 5.43-1.47 7.71 7.71 0 0 0 3.68-3.26 5.08 5.08 0 0 0 -1-3.07 10 10 0 0 0 -2.6-2.44 18.24 18.24 0 0 0 -3.64-1.85 31.63 31.63 0 0 0 -4.15-1.29q-2.11-.49-4.2-.78a27.28 27.28 0 0 0 -3.68-.28 6 6 0 0 0 -4 1.19 4.06 4.06 0 0 0 -1.43 3.28z"/><path d="m129.86 379.65v-.85a1.46 1.46 0 0 1 .16-.69 1.35 1.35 0 0 1 .48-.47 4.69 4.69 0 0 1 1.12-.12l3.08 2.72a37 37 0 0 0 4.28 3.23 38.24 38.24 0 0 0 5 2.76 13 13 0 0 0 5.36 1.19 8.25 8.25 0 0 0 6.55-3.14 12.29 12.29 0 0 0 1.84-3.13 24.36 24.36 0 0 0 1.16-3.57 29.67 29.67 0 0 0 .64-3.51c.13-1.13.28-2.11.44-2.95a18.7 18.7 0 0 0 .36-2.09c.13-1 .27-2.07.4-3.26s.24-2.44.32-3.73a22.84 22.84 0 0 0 0-3.54 8.3 8.3 0 0 0 -.64-2.63 1.54 1.54 0 0 0 -1.44-1 7.51 7.51 0 0 0 -2.88.63q-1.52.63-3.15 1.41c-1.1.52-2.2 1-3.32 1.41a9.29 9.29 0 0 1 -3.28.63 15.18 15.18 0 0 1 -5.55-1 18.65 18.65 0 0 1 -4.6-2.53 19.09 19.09 0 0 1 -3.68-3.67 25.51 25.51 0 0 1 -2.68-4.35 22 22 0 0 1 -1.59-4.52 18.75 18.75 0 0 1 -.52-4.26 13.88 13.88 0 0 0 -.12-1.44 7.59 7.59 0 0 1 0-2.07 4.3 4.3 0 0 1 .72-1.88 2 2 0 0 1 1.75-.81c.22 0 .39.33.52 1s.3 1.54.48 2.6.43 2.29.72 3.67a38.88 38.88 0 0 0 1.16 4.2 32.36 32.36 0 0 0 1.76 4.19 15.06 15.06 0 0 0 2.56 3.67 11.93 11.93 0 0 0 3.64 2.6 11.12 11.12 0 0 0 4.83 1 12.32 12.32 0 0 0 3.68-.59 19.89 19.89 0 0 0 3.64-1.54 19.33 19.33 0 0 0 3.15-2.13 12.61 12.61 0 0 0 2.24-2.44c0-.17 0-.57-.08-1.19s-.11-1.35-.16-2.16-.11-1.71-.16-2.67-.11-1.87-.16-2.72-.09-1.6-.12-2.23 0-1 0-1.19c.11-2.54.35-4.1.72-4.67s.83-.38 1.36.54a21.21 21.21 0 0 1 1.68 4.63c.58 2.18 1.13 4.71 1.64 7.62s.9 6.07 1.2 9.49.41 6.86.36 10.31a73.26 73.26 0 0 1 -.84 10 33.65 33.65 0 0 1 -2.44 8.56 16.94 16.94 0 0 1 -4.4 6 10.53 10.53 0 0 1 -6.71 2.45 18.81 18.81 0 0 1 -3.8-.47 33.57 33.57 0 0 1 -4.44-1.29 38.18 38.18 0 0 1 -4.43-1.94 26.25 26.25 0 0 1 -3.92-2.44 14.39 14.39 0 0 1 -2.8-2.76 4.79 4.79 0 0 1 -1.09-2.87z"/><path d="m252.53 357.9a3.62 3.62 0 0 1 0-.5 4.44 4.44 0 0 0 0-.63v-.56l.08-.37c0-.13 0-.49.12-1.07s.17-1.21.28-1.88.19-1.3.24-1.91.08-1 .08-1.16a28.3 28.3 0 0 0 -.72-3.45 17.24 17.24 0 0 0 -1.72-4.19 13.15 13.15 0 0 0 -2.91-3.58 6.22 6.22 0 0 0 -4.16-1.5 13.23 13.23 0 0 0 -4.52.85 20.23 20.23 0 0 0 -4.39 2.19 12.7 12.7 0 0 0 -3.32 3.1 5.61 5.61 0 0 0 -1.36 3.57 4.47 4.47 0 0 0 .4 1.85c.27.61.55 1.2.84 1.79s.57 1.19.84 1.81a5.08 5.08 0 0 1 .4 1.95 3.44 3.44 0 0 1 -.36 1.5c-.24.5-.81.75-1.72.75a2.78 2.78 0 0 1 -2.36-1.31 15.43 15.43 0 0 1 -1.68-3.36c-.5-1.35-1-2.81-1.6-4.35a24.6 24.6 0 0 0 -2.07-4.36 11.67 11.67 0 0 0 -3-3.35 7.57 7.57 0 0 0 -4.6-1.31 9.58 9.58 0 0 0 -3.83.72 7.74 7.74 0 0 0 -2.76 1.91 8.83 8.83 0 0 0 -1.68 2.69 8.22 8.22 0 0 0 -.6 3.07 27.7 27.7 0 0 0 .44 4.92 27.37 27.37 0 0 1 .44 4.86 5.07 5.07 0 0 1 -.24 1.6c-.16.48-.69.72-1.6.72a2.92 2.92 0 0 1 -1.48-.35 3.26 3.26 0 0 1 -1-.88 4.68 4.68 0 0 1 -.64-1.19c-.16-.44-.29-.82-.4-1.16a40.17 40.17 0 0 0 0-4.76c-.08-1.46-.18-2.85-.32-4.17s-.26-2.64-.4-4-.19-2.76-.19-4.27v-.43a5.07 5.07 0 0 1 0-.66c0-.23 0-.44 0-.63v-.41a1.31 1.31 0 0 1 .39-.31 1.13 1.13 0 0 0 .4-.31h.4a2.49 2.49 0 0 1 2 .75 2.17 2.17 0 0 1 .64 1.63 18.22 18.22 0 0 1 2.28-1.66 10.31 10.31 0 0 1 1.92-.91 7.6 7.6 0 0 1 1.92-.38q1-.06 2.43-.06a21.48 21.48 0 0 1 4.2.38 14.73 14.73 0 0 1 3.4 1.09 11.3 11.3 0 0 1 2.8 1.91 25.85 25.85 0 0 1 2.55 2.64h.2.2a4 4 0 0 0 .8-.6q.72-.58 1.92-1.44c.8-.56 1.73-1.19 2.8-1.88a34.07 34.07 0 0 1 3.36-1.91 27.07 27.07 0 0 1 3.59-1.47 11.61 11.61 0 0 1 3.6-.6 12.69 12.69 0 0 1 4.84.88 13.78 13.78 0 0 1 3.79 2.35 16 16 0 0 1 2.88 3.32 22.48 22.48 0 0 1 2 3.82 20.71 20.71 0 0 1 1.16 3.92 19.79 19.79 0 0 1 .36 3.57v2.16a16.47 16.47 0 0 1 -.4 3.14 8.68 8.68 0 0 1 -1.16 2.82 2.54 2.54 0 0 1 -2.24 1.22 1.85 1.85 0 0 1 -1-.22 1.51 1.51 0 0 1 -.48-.53 1.46 1.46 0 0 1 -.16-.69z"/><path d="m265 379.65v-.85a1.35 1.35 0 0 1 .16-.69 1.21 1.21 0 0 1 .48-.47 4.63 4.63 0 0 1 1.12-.12c.79.71 1.82 1.61 3.07 2.72a37 37 0 0 0 4.28 3.23 38.36 38.36 0 0 0 5 2.76 12.91 12.91 0 0 0 5.35 1.19 8.29 8.29 0 0 0 6.56-3.14 12.56 12.56 0 0 0 1.83-3.13 24.36 24.36 0 0 0 1.16-3.57 27.77 27.77 0 0 0 .64-3.51c.13-1.13.28-2.11.44-2.95a18.7 18.7 0 0 0 .36-2.09c.13-1 .27-2.07.4-3.26s.24-2.44.32-3.73a21.66 21.66 0 0 0 0-3.54 8.3 8.3 0 0 0 -.64-2.63 1.54 1.54 0 0 0 -1.44-1 7.5 7.5 0 0 0 -2.87.63c-1 .42-2.07.89-3.16 1.41s-2.2 1-3.32 1.41a9.29 9.29 0 0 1 -3.28.63 15.26 15.26 0 0 1 -5.55-1 18.83 18.83 0 0 1 -4.6-2.53 19.38 19.38 0 0 1 -3.68-3.67 25.44 25.44 0 0 1 -2.67-4.35 21.45 21.45 0 0 1 -1.6-4.52 18.75 18.75 0 0 1 -.52-4.26 13.88 13.88 0 0 0 -.12-1.44 7.59 7.59 0 0 1 0-2.07 4.42 4.42 0 0 1 .72-1.88 2 2 0 0 1 1.76-.81c.21 0 .38.33.52 1s.29 1.54.48 2.6.42 2.29.72 3.67a36.63 36.63 0 0 0 1.15 4.2 32.36 32.36 0 0 0 1.76 4.19 15.06 15.06 0 0 0 2.56 3.67 11.93 11.93 0 0 0 3.64 2.6 11.12 11.12 0 0 0 4.83 1 12.32 12.32 0 0 0 3.68-.59 19.89 19.89 0 0 0 3.64-1.54 18.91 18.91 0 0 0 3.15-2.13 12.61 12.61 0 0 0 2.24-2.44c0-.17 0-.57-.08-1.19s-.1-1.35-.16-2.16-.1-1.71-.16-2.67-.1-1.87-.16-2.72-.09-1.6-.12-2.23 0-1 0-1.19c.11-2.54.35-4.1.72-4.67s.83-.38 1.36.54a21.21 21.21 0 0 1 1.68 4.63c.59 2.18 1.13 4.71 1.64 7.62s.9 6.07 1.2 9.49.41 6.86.36 10.31a73.26 73.26 0 0 1 -.84 10 33.65 33.65 0 0 1 -2.44 8.56 16.94 16.94 0 0 1 -4.4 6 10.53 10.53 0 0 1 -6.71 2.45 18.81 18.81 0 0 1 -3.8-.47 33.44 33.44 0 0 1 -4.43-1.29 38.31 38.31 0 0 1 -4.44-1.94 26.25 26.25 0 0 1 -3.92-2.44 14.61 14.61 0 0 1 -2.79-2.76 4.79 4.79 0 0 1 -1.08-2.87z"/><path d="m303.66 352.51a3.82 3.82 0 0 1 1.16-.47 6.83 6.83 0 0 1 1.18-.04 3.88 3.88 0 0 1 1.44.28 6.87 6.87 0 0 1 1.32.69q.6.4 1.23.78a7.31 7.31 0 0 0 1.36.63c1.39.46 2.49.84 3.32 1.13s1.59.52 2.28.69a12.41 12.41 0 0 0 2.4.31c.9 0 2.08.06 3.51.06h4.08a26.76 26.76 0 0 0 4.56-.32 10.12 10.12 0 0 0 3.67-1.25 3 3 0 0 0 1.52-2.79 3.23 3.23 0 0 0 -1.24-2.85 9.51 9.51 0 0 0 -3.55-1.6 31.62 31.62 0 0 0 -5-.78l-5.75-.47q-3-.25-5.8-.72a21.48 21.48 0 0 1 -5.08-1.47 9.18 9.18 0 0 1 -3.59-2.76 7.47 7.47 0 0 1 -1.44-4.51 5.56 5.56 0 0 1 2.52-3.36 15.93 15.93 0 0 1 4.87-2.06 26 26 0 0 1 6-.76 23.54 23.54 0 0 1 5.87.63 11.42 11.42 0 0 1 4.48 2.1 4.66 4.66 0 0 1 1.88 3.57 3.73 3.73 0 0 1 -.24 2.07 2.88 2.88 0 0 1 -1.08 1.22 2.51 2.51 0 0 1 -1.4.38 1.61 1.61 0 0 1 -1.12-.44 1.49 1.49 0 0 1 -.36-1.19 4 4 0 0 1 .92-2 3 3 0 0 0 -1.84-1.88 12.8 12.8 0 0 0 -3.52-1 20.64 20.64 0 0 0 -4.27-.12 21.19 21.19 0 0 0 -4.16.66 9.65 9.65 0 0 0 -3 1.31 1.94 1.94 0 0 0 -1 1.88 3.44 3.44 0 0 0 1.4 2.92 10.47 10.47 0 0 0 3.64 1.59 32.48 32.48 0 0 0 5.16.82c1.94.17 3.94.32 6 .47s4 .35 6 .62a22.62 22.62 0 0 1 5.19 1.35 9.3 9.3 0 0 1 3.68 2.54 6.25 6.25 0 0 1 1.36 4.17 4.84 4.84 0 0 1 -1.28 3.35 10.33 10.33 0 0 1 -3.24 2.35 16.91 16.91 0 0 1 -4.28 1.38 23.83 23.83 0 0 1 -4.39.44c-1.39 0-2.87 0-4.44 0s-3.17-.09-4.79-.21-3.27-.33-4.92-.6a22.32 22.32 0 0 1 -4.6-1.25 15.76 15.76 0 0 1 -3.79-2.16 10 10 0 0 1 -2.83-3.33z"/><path d="m347 343.3a16 16 0 0 1 1.24-6.23 15.14 15.14 0 0 1 3.59-5.23 17.59 17.59 0 0 1 5.76-3.61 21.21 21.21 0 0 1 7.87-1.34 14.58 14.58 0 0 1 4.6 1.12 10.3 10.3 0 0 1 3.2 2.17 7.66 7.66 0 0 1 1.79 3 12.06 12.06 0 0 1 .48 3.51 5.88 5.88 0 0 1 -1.67 4.07 13.63 13.63 0 0 1 -4.24 3 27.27 27.27 0 0 1 -11 2.54h-2a5.89 5.89 0 0 1 -1.8-.25 3 3 0 0 1 -1.28-.75 2.12 2.12 0 0 1 -.48-1.51 1.12 1.12 0 0 1 .12-.53c.08-.14.31-.25.68-.31a8.61 8.61 0 0 1 1.68 0c.75.08 1.76.21 3 .37a13.47 13.47 0 0 0 3.24-.59 35 35 0 0 0 4.31-1.54 17.59 17.59 0 0 0 3.91-2.19 3.29 3.29 0 0 0 1.6-2.41 6.42 6.42 0 0 0 -.52-2.48 6.28 6.28 0 0 0 -1.56-2.16 7.94 7.94 0 0 0 -2.44-1.5 7 7 0 0 0 -3.16-.44 14.85 14.85 0 0 0 -5.07 1.19 12.58 12.58 0 0 0 -3.88 2.6 12 12 0 0 0 -2.48 3.54 9.84 9.84 0 0 0 -.88 4.07c0 1.09 0 2.18.08 3.26a12.56 12.56 0 0 0 .6 3.2 10 10 0 0 0 1.68 3 9.81 9.81 0 0 0 3.36 2.53 23.68 23.68 0 0 0 5.56 1.82 49.7 49.7 0 0 0 8.31.91l14.31-.75a9.87 9.87 0 0 1 -3.24 2.25 23.13 23.13 0 0 1 -4.16 1.41 35.91 35.91 0 0 1 -4.35.79 37.14 37.14 0 0 1 -4.08.25 31 31 0 0 1 -8.71-1.19 24.88 24.88 0 0 1 -7.2-3.36 16.28 16.28 0 0 1 -4.91-5.26 13.68 13.68 0 0 1 -1.86-6.97z"/><path d="m392 359.6a65.8 65.8 0 0 1 -1-8.87c-.14-3-.2-5.9-.2-8.87s.05-5.91.16-8.83.13-5.85.08-8.78a.7.7 0 0 1 .48-.69 3.17 3.17 0 0 1 1.12-.18 2.11 2.11 0 0 1 1.27.4 3.85 3.85 0 0 1 1 1 4.59 4.59 0 0 1 .6 1.19 3.27 3.27 0 0 1 .2 1q.48 9 .64 14.94t0 9.65a38.13 38.13 0 0 1 -.52 5.42 5.24 5.24 0 0 1 -.92 2.38 1.39 1.39 0 0 1 -1.32.51z"/><path d="m426.67 340.17c1.12 0 1.6.42 1.44 1.25.48.46.47.89 0 1.29a5.67 5.67 0 0 1 -2.52.87 26.16 26.16 0 0 1 -4.39.26 40 40 0 0 1 -5.76-.54 7.81 7.81 0 0 0 1.4 4.45 36.44 36.44 0 0 0 3.08 3.95q1.68 1.88 3.12 3.63a5.58 5.58 0 0 1 1.43 3.51 1 1 0 0 1 -.64 1.07 3.13 3.13 0 0 1 -1.43.25 3.82 3.82 0 0 1 -1.72-.47 7.29 7.29 0 0 1 -1.68-1.16 15.79 15.79 0 0 1 -1.4-1.44c-.37-.5-.67-.92-.88-1.25l-.92-1.45c-.4-.62-.87-1.35-1.4-2.19s-1.06-1.7-1.6-2.6-1.05-1.76-1.55-2.6-.95-1.59-1.32-2.26a11 11 0 0 1 -.88-1.44l-.88-.69a10.79 10.79 0 0 1 -1.48.29c-.72.1-1.48.21-2.28.34l-2.32.38a11.49 11.49 0 0 1 -1.6.18h-.4a1 1 0 0 1 -.87-.34 1.38 1.38 0 0 1 -.25-.85 1.81 1.81 0 0 1 1-1.63 7.36 7.36 0 0 1 2.32-.81 25 25 0 0 1 2.84-.35l2.44-.15c-.11-1.25-.19-2.74-.24-4.45a29.6 29.6 0 0 1 .32-5.33 28.75 28.75 0 0 1 1.32-5.42 15.84 15.84 0 0 1 2.63-4.79 13 13 0 0 1 4.36-3.45 14.53 14.53 0 0 1 6.48-1.31 15.19 15.19 0 0 1 4.71.84 22.07 22.07 0 0 1 4.76 2.23 15.34 15.34 0 0 1 3.64 3.1 5.47 5.47 0 0 1 1.43 3.48h-1.84a4.59 4.59 0 0 1 -2.83-.94c-.83-.63-1.69-1.33-2.6-2.1a24.65 24.65 0 0 0 -2.88-2.1 6.37 6.37 0 0 0 -3.44-.94 12.59 12.59 0 0 0 -4.95.94 12.17 12.17 0 0 0 -3.84 2.51 10.63 10.63 0 0 0 -2.4 3.5 10.4 10.4 0 0 0 -.8 3.95v.61l1.44 9a2.32 2.32 0 0 0 .88.22c.48.06 1.24.15 2.28.25s2.42.22 4.16.34 3.84.19 6.51.36z"/><path d="m435.17 354.08a3.71 3.71 0 0 1 .52-1.5 18.87 18.87 0 0 1 1.24-2 13.05 13.05 0 0 1 1.48-1.79 2.06 2.06 0 0 1 1.32-.75 5.7 5.7 0 0 1 2.79.66 6.12 6.12 0 0 1 2 1.66 7.68 7.68 0 0 1 1.16 2.19 6.9 6.9 0 0 1 .4 2.2 3.43 3.43 0 0 1 -.56 1.69 8.22 8.22 0 0 1 -1.4 1.75 8 8 0 0 1 -1.88 1.38 4.26 4.26 0 0 1 -2.07.57 3.36 3.36 0 0 1 -2.08-.66 6.93 6.93 0 0 1 -1.56-1.63 7.26 7.26 0 0 1 -1-2 6.16 6.16 0 0 1 -.36-1.77z"/><path d="m452.94 354.08a3.71 3.71 0 0 1 .52-1.5 18.87 18.87 0 0 1 1.24-2 13.05 13.05 0 0 1 1.48-1.79 2.06 2.06 0 0 1 1.32-.75 5.7 5.7 0 0 1 2.79.66 6 6 0 0 1 2 1.66 7.68 7.68 0 0 1 1.16 2.19 6.9 6.9 0 0 1 .4 2.2 3.43 3.43 0 0 1 -.56 1.69 8.22 8.22 0 0 1 -1.4 1.75 8 8 0 0 1 -1.88 1.38 4.26 4.26 0 0 1 -2.07.57 3.36 3.36 0 0 1 -2.08-.66 6.93 6.93 0 0 1 -1.56-1.63 7.26 7.26 0 0 1 -1-2 6.16 6.16 0 0 1 -.36-1.77z"/><path d="m470.71 354.08a3.71 3.71 0 0 1 .52-1.5 18.87 18.87 0 0 1 1.24-2 13.05 13.05 0 0 1 1.48-1.79 2.06 2.06 0 0 1 1.32-.75 5.7 5.7 0 0 1 2.79.66 6.12 6.12 0 0 1 2 1.66 7.68 7.68 0 0 1 1.16 2.19 6.9 6.9 0 0 1 .4 2.2 3.43 3.43 0 0 1 -.56 1.69 8.22 8.22 0 0 1 -1.4 1.75 8 8 0 0 1 -1.88 1.38 4.26 4.26 0 0 1 -2.07.57 3.36 3.36 0 0 1 -2.08-.66 6.93 6.93 0 0 1 -1.56-1.63 7.26 7.26 0 0 1 -1-2 6.16 6.16 0 0 1 -.36-1.77z"/></g></svg>