<svg enable-background="new 0 0 559.4 572" viewBox="0 0 559.4 572" xmlns="http://www.w3.org/2000/svg"><path d="m0 30.7h139.9v139.9h-139.9z" fill="#49c193"/><path d="m69.3 48c8.4 1.2 24 8.8 31.4 13 11.1 6.2 11 18.1 9.3 29.4-.2 1.3-.8 3.6-.9 5-1.4.3-3.2-1.1-4.3-2-.7-1.4-.9-2.9-1.5-4.3-1-2.2-1.1-2.7-3.3-1.6-1.1.6-2.1 1.3-3.1 2.1-4.8 3.4-10 5.5-16 5.5-4.3 0-8-1.8-11.6-3.8-2.4-1.3-4.8-2.8-7.2-4.2-7.2-4-18-4.8-25.6 1.7-4.8 4.1-6.5 9.4-6.9 15.4-.1 1.7 0 3.4 0 5.1 0 1 .1 10.6-.9 11.3-2.4.6-4.5.6-6-1.4-4.3-5.9-1.6-22.5-.4-29.7.6-3.6.6-3.6-3.2-3.1-3 .5-5.8 1.5-8.5 2.8.4-2.9 1.3-5.7 2.8-8.3 3-5.7 7.6-10.4 13.1-13.6.8-.5 2.1-.8 2.1-1.9s-1.3-1.4-2.2-1.8c-2.3-1.3-4.6-2.6-7.5-4.2 12.1-3.7 23.7-7 35.9-7.3-.8-1.9-2.7-3-4.4-4.9.1-.1 14.3.1 18.9.8z" fill="#341c69"/><path d="m105.1 133.1c-.2 6.2-7 16.1-10.7 19.2-2.6 2.4-5.6 4.3-8.8 5.7-6.9 2.7-18 3.3-26 .9s-20.3-9.6-25.7-14.9c-8.1-8.1-8.4-14.5-9.4-23.1 1.9-.7 2.5-2.1 2.4-3.9-.1-2.1.9-3.1 3-3 4.2.1 4.3 0 5.7 4.2 1 3 3.1 5.4 4 8.4l12.1 8.5c1.1 0 2.2.1 3.3.2 8.1.6 14-3.6 16-11.5.2-.6.2-1.3.4-2 .4-1.5 0-3.5 1.6-4.3 2-.9 4.3-.6 6.5-.2 1.2.2 1.4 1.4 1.4 2.4 0 2.2.2 4.4.7 6.5 1.5 6.7 5.7 10.4 12.6 11.1.4 0 .8.1 1.2.2z" fill="#f1c244"/><path d="m46.9 134c-3.1-1.8-5.8-4.3-7.6-7.3-2-3.3-3.7-6.9-5-10.5-.4-1.2-4.2-1.6-4.2-1.6l-9.2-.3s-1.4-.1-2.1-.2-1.9.2-1.8-1.6c.1-1.5.9-1.5 1.9-1.4l8.6.6c1.7.1 3.4 0 5-.3-.4-4.4.4-8.8 2.3-12.8 4.3-9 13.7-10.9 21.7-7.4 8.8 3.9 13.6 11.1 15.9 20.3.4 1.6 2.7 3.2 2.7 3.2 4.4.1 4.8.1 5.8-2.7 2.5-6.9 6.5-12.7 12.9-16.6 2.4-1.5 5.2-2.4 8.1-2.5 1-.2 2 0 2.9.6 1.2.1 2.4.4 3.5 1 5.9 3.1 8.2 8.3 8.4 14.7.2 9.5-3.4 17.4-10.4 23.8-.5.4-1 .9-1.4 1.4-2.3 2.8-5.9 4.2-9.5 3.7-10.8.3-15.1-8.5-15.2-16.6 0-3.6 0-3.6-3.5-3.6-3.9 0-3.8 0-4.5 4-1.2 6.5-4.3 11.8-11.1 13.8-3.1.7-10.7.5-14.2-1.7z" fill="#111"/><ellipse cx="98.6" cy="115.6" fill="#a4936a" rx="20.6" ry="14.2" transform="matrix(.4217 -.9067 .9067 .4217 -47.8135 156.2332)"/><g fill="#220b38"><path d="m69.5 30c-.9 2.5-1.5 5.1-1.9 7.8l-1.1 10.5c-.3 8.8.4 17.5 2 26.1.4 1.9 1.3 3.8 1.8 5.7.4 1 .3 2.2-.2 3.2-.4.6-1.1.8-1.8.6-.8-.2-1.3-.8-1.4-1.6-.4-2.8-1-5.6-1.4-8.3-1.5-8.6-2-17.3-1.6-26.1.2-4.5.7-9 1.4-13.4.2-1.1.4-3.5.5-4.6"/><path d="m65.8 29.9c0-.2.4-1.7.4-1.9.2-.5.3-1 .5-1.5.3-.8.6-1.6.9-2.4.4-.8.7-1.6 1-2.4.3-.7.6-1.4 1-2.1s1-1.5 1.5-2.2l.6-.9c2.5-3.7 5.8-6.8 9.7-9 1.2-.6 2.3-1.4 3.4-2.2 1.2-1.2 3-1.3 4.4-.3 1.1.8 1.5 2.4.9 3.6-.5 1.6-2.1 2.5-3.7 2h-.1c-1.4-.3-2.9.1-4 1-2 1.5-3.9 3.1-5.6 5-.8.8-1.5 1.7-2.1 2.6-.4.6-.8 1.3-1.1 1.9-.6.8-1 1.6-1.4 2.4-.2.4-.3.8-.5 1.2s-.4 1-.6 1.5c-.3.8-1.1 2.8-1.4 3.7"/><path d="m99.5 38.9c-1.4 1.9-2.5 3.9-3.5 6.1l-3.4 8.6c-2.4 7.3-3.9 14.8-4.7 22.4-.2 1.7.2 3.5.1 5.2.1 1-.3 1.9-1 2.6-.5.4-1.1.4-1.6.1-.6-.3-.9-1-.8-1.7.3-2.4.5-4.9.8-7.3.9-7.6 2.5-15 5-22.2 1.2-3.8 2.7-7.4 4.4-11 .4-.8 1.2-2.8 1.5-3.7"/><path d="m96.4 37.9c.1-.2.7-1.4.8-1.5.3-.4.5-.8.8-1.1.4-.6.9-1.2 1.4-1.8s1-1.1 1.4-1.8c.4-.5.9-1 1.4-1.5s1.2-1 1.8-1.5l.7-.6c3-2.5 6.5-4.3 10.3-5.2 1.1-.3 2.3-.6 3.4-1 1.3-.7 2.9-.3 3.8.9.7 1 .7 2.4-.1 3.3-.8 1.2-2.4 1.6-3.7.8-1.1-.6-2.4-.6-3.6-.2-2.1.7-4.1 1.7-5.9 2.9-.9.5-1.7 1-2.5 1.6-.5.4-1 .9-1.4 1.4-.7.5-1.3 1.1-1.8 1.7-.2.3-.5.6-.7.9s-.6.7-.9 1.1c-.5.6-1.6 2.1-2.1 2.7"/></g><path d="m104.9 93.3c-10.8-.3-16.9 6.1-21.6 14.7-.9 1.7-1.6 3.5-2 5.4-.4 1.5-2.4 1.8-2.4 1.8s-4.1.5-5.7-.2c-1.8-.8-1.9-4-1.9-4-.7-5.5-6.4-15.1-13.7-18.9-10.6-5.5-22 .2-23.9 11.9-.3 1.8-.4 5.5-.4 5.5l.1 2.3-5.8-.3c-.1-3.7 0-7.3.4-11 1.2-10.9 12.4-18.8 23.7-17.1 3.9.5 7.7 1.8 11.1 3.9 2.2 1.4 4.5 2.6 6.8 4 7.9 4.7 15.7 3.8 23.4-.8 1.8-1.1 3.4-2.4 5.2-3.5 3-1.8 4.5-1.3 5.8 1.9.6 1.5.9 2.9.9 4.4z" fill="#f1c244"/><path d="m82 151.4c-8.5 2.7-15.3 1.1-21.3-4-.8-.7-1.8-1.5-.7-2.7s1.8 0 2.6.6c7.5 6 15.6 6.4 23.7 1 .9-.6 1.9-1.6 2.7-.2s-.4 1.9-1.3 2.5c-1.8 1.3-3.7 2.2-5.7 2.8z" fill="#260f3a"/><path d="m42.4 125.7c-3.5-4.6-7.8-14.3-5.6-22.8 2.3-8.9 10.6-12.6 19-8.7 10.8 5 16.9 19.5 12.8 30.5-2.5 6.8-9.3 10.2-15.7 8-4.2-1-7.9-3.5-10.5-7z" fill="#a4936a"/><path d="m51.4 103c2.7-.1 5.4.4 7.8 1.5.6.3 1.4.6 1 1.5-.2.7-1 1-1.6.8-.1 0-.2-.1-.3-.1-4.7-2.2-10.2-1.6-14.3 1.5-.7.5-1.4.6-1.9-.3s.2-1.3.7-1.6c2.5-1.9 5.5-3.1 8.6-3.3z" fill="#260f3a"/><path d="m54 120.2c-1.1.2-2.2-.3-2.9-1.2-.8-1.2-1.3-2.5-2.7-3.1-.4-.1-.6-.5-.5-.9 0-.1.1-.2.2-.3.5-.5 1-.3 1.6 0 1.8 1.1 3.9 1.7 6 1.6.9-.1 1.8-.3 2.7-.4.7-.1 1.6-.6 1.9.5.2.8-.7 1.2-1.3 1.3-1.3.1-2.4.8-3.1 1.9-.4.4-1.2.7-1.9.6z" fill="#260f3a"/><path d="m100 118.2c.3-.1.5-.1.8-.1.5-.1 1-.4 1.3.2s-.2 1-.8 1.3l-.9.4c-.7-.1-1.1.4-1.5.8-.9 1.2-2.6 1.5-3.8.6-.4-.3-.6-.6-.8-1-.3-.8-.9-1.4-1.6-1.8-.4-.2-1-.6-.7-1.1s1.1-.4 1.7-.1c1.8 1 4.1 1.3 6.3.8z" fill="#260f3a"/><path d="m101.5 107.4c.5.1 1 .3 1.5.5.6.3 1.2.6 1.7 1 .8.6 2.4.9 1.6 2.3s-1.8.1-2.7-.3c-.7-.4-1.4-.7-2.1-.9-2.4-.8-5-.8-7.4 0-.7.2-1.5.6-1.9-.4s.3-1.4 1.2-1.8c2.5-1 5.4-1.1 8.1-.4z" fill="#260f3a"/><path d="m139.9 30.7h139.9v139.9h-139.9z" fill="#725211"/><path d="m209.2 48c8.4 1.2 24 8.8 31.4 13 11.1 6.2 11 18.1 9.3 29.4-.2 1.3-.8 3.6-.9 5-1.4.3-3.2-1.1-4.3-2-.7-1.4-.9-2.9-1.5-4.3-1-2.2-1.1-2.7-3.3-1.6-1.1.6-2.1 1.3-3.1 2.1-4.8 3.4-10 5.5-16 5.5-4.3 0-8-1.8-11.6-3.8-2.4-1.3-4.8-2.8-7.2-4.2-7.2-4-18-4.8-25.6 1.7-4.8 4.1-6.5 9.4-6.9 15.4-.1 1.7 0 3.4 0 5.1 0 1 .1 10.6-.9 11.3-2.4.6-4.5.6-6-1.4-4.3-5.9-1.6-22.5-.4-29.7.6-3.6.6-3.6-3.1-3.1-3 .5-5.8 1.5-8.5 2.8.4-2.9 1.3-5.7 2.8-8.3 3-5.7 7.6-10.4 13.1-13.6.9-.5 2.1-.8 2.1-1.9s-1.4-1.4-2.2-1.8c-2.3-1.3-4.6-2.6-7.5-4.2 12.1-3.7 23.7-7 35.9-7.3-.8-1.9-2.7-3-4.4-4.9 0-.1 14.1.1 18.8.8z" fill="#f0d89b"/><path d="m244.9 133.1c-.2 6.2-7 16.1-10.7 19.2-2.6 2.4-5.6 4.3-8.8 5.7-6.9 2.7-18 3.3-26 .9s-20.3-9.6-25.6-14.9c-8.1-8.1-8.4-14.5-9.4-23.1 1.9-.7 2.5-2.1 2.4-3.9-.1-2.1.9-3.1 3-3 4.2.1 4.4 0 5.7 4.2 1 3 3.1 5.4 4 8.4l12 8.5c1.1 0 2.2.1 3.3.2 8.1.6 14-3.6 16-11.5.2-.6.2-1.3.4-2 .4-1.5 0-3.5 1.6-4.3 2-.9 4.3-.6 6.5-.2 1.2.2 1.4 1.4 1.4 2.4 0 2.2.2 4.4.7 6.5 1.5 6.7 5.7 10.4 12.5 11.1.4 0 .8.1 1.2.2z" fill="#ffe9c7"/><path d="m186.8 134c-3.1-1.8-5.8-4.3-7.6-7.3-2-3.3-3.7-6.9-5-10.5-.4-1.2-4.2-1.6-4.2-1.6l-9.1-.3s-1.4-.1-2.1-.2-1.9.2-1.8-1.6c.1-1.5.9-1.5 1.9-1.4l8.6.6c1.7.1 3.4 0 5-.3-.4-4.4.4-8.8 2.3-12.8 4.3-9 13.7-10.9 21.6-7.4 8.8 3.9 13.6 11.1 15.9 20.3.4 1.6 2.7 3.2 2.7 3.2 4.4.1 4.8.1 5.8-2.7 2.5-6.9 6.5-12.7 12.9-16.6 2.4-1.5 5.2-2.4 8.1-2.5 1-.2 2 0 2.9.6 1.2.1 2.4.4 3.5 1 5.9 3.1 8.2 8.3 8.4 14.7.2 9.5-3.4 17.4-10.4 23.8-.5.4-1 .9-1.5 1.4-2.3 2.8-5.9 4.2-9.5 3.7-10.8.3-15.1-8.5-15.2-16.6 0-3.6 0-3.6-3.5-3.6-3.9 0-3.8 0-4.5 4-1.2 6.5-4.3 11.8-11.1 13.8-3.1.7-10.6.5-14.1-1.7z" fill="#111"/><ellipse cx="238.4" cy="115.6" fill="#a4936a" rx="20.6" ry="14.2" transform="matrix(.4217 -.9067 .9067 .4217 33.0654 283.0431)"/><path d="m209.3 30c-.9 2.5-1.5 5.1-1.9 7.8l-1 10.5c-.3 8.8.4 17.5 2 26.1.4 1.9 1.3 3.8 1.8 5.7.4 1 .3 2.2-.2 3.2-.4.6-1.1.8-1.8.6-.8-.2-1.3-.8-1.4-1.6-.4-2.8-1-5.6-1.4-8.3-1.5-8.6-2-17.3-1.6-26.1.2-4.5.7-9 1.4-13.4.2-1.1.4-3.5.5-4.6" fill="#b19e72"/><path d="m205.7 29.9c0-.2.4-1.7.4-1.9.2-.5.3-1 .5-1.5.3-.8.6-1.6.9-2.4.4-.8.7-1.6 1-2.4.3-.7.6-1.4 1-2.1s1-1.5 1.5-2.2l.5-.9c2.5-3.7 5.8-6.8 9.7-9 1.2-.6 2.3-1.4 3.4-2.2 1.2-1.2 3.1-1.3 4.4-.2 1.1.8 1.5 2.4.9 3.6-.5 1.6-2.2 2.5-3.8 2-1.4-.3-2.9.1-4 1-2 1.5-3.9 3.1-5.6 5-.8.8-1.5 1.7-2.1 2.6-.4.6-.8 1.3-1.1 1.9-.6.8-1 1.6-1.4 2.4-.2.4-.3.8-.5 1.2s-.4 1-.6 1.5c-.3.8-1.1 2.8-1.4 3.7" fill="#b19e72"/><path d="m239.4 38.9c-1.4 1.9-2.5 3.9-3.5 6.1l-3.5 8.6c-2.4 7.3-3.9 14.8-4.7 22.4-.2 1.7.1 3.5.1 5.2.1 1-.3 1.9-1 2.6-.5.4-1.1.4-1.6.1-.6-.3-.9-1-.8-1.7.3-2.4.5-4.9.8-7.3.9-7.6 2.5-15 5-22.2 1.2-3.8 2.7-7.4 4.4-11 .4-.8 1.2-2.8 1.5-3.7" fill="#b19e72"/><path d="m236.3 37.9c.1-.2.7-1.4.8-1.5.3-.4.5-.8.8-1.1.4-.6.9-1.2 1.4-1.8.5-.5 1-1.1 1.4-1.8.4-.5.9-1 1.4-1.5s1.2-1 1.8-1.5l.7-.6c3-2.5 6.5-4.3 10.3-5.2 1.1-.3 2.3-.6 3.4-1 1.3-.7 2.9-.3 3.7.9.7 1 .7 2.4-.1 3.3-.8 1.2-2.4 1.6-3.7.8-1.1-.6-2.4-.6-3.6-.2-2.1.7-4.1 1.7-5.9 2.8-.8.5-1.7 1.1-2.4 1.7-.5.4-1 .8-1.4 1.3-.7.5-1.3 1.1-1.8 1.7-.2.3-.5.6-.7.9s-.6.7-.9 1.1c-.5.6-1.6 2.1-2.1 2.7" fill="#b19e72"/><path d="m244.7 93.3c-10.7-.3-16.9 6.1-21.5 14.7-.9 1.7-1.6 3.5-2 5.4-.4 1.5-2.4 1.8-2.4 1.8s-4.1.5-5.7-.2c-1.9-.8-1.9-4-1.9-4-.7-5.5-6.4-15.1-13.7-18.9-10.5-5.5-21.9.2-23.8 11.9-.2 1.8-.4 3.7-.4 5.5l.1 2.3-5.7-.3c-.1-3.7 0-7.3.4-11 1.2-10.9 12.4-18.8 23.7-17.1 3.9.5 7.7 1.8 11.1 3.9 2.2 1.4 4.5 2.6 6.7 4 8 4.7 15.7 3.8 23.4-.8 1.8-1.1 3.5-2.4 5.2-3.5 3-1.8 4.5-1.3 5.8 1.9.4 1.5.8 2.9.7 4.4z" fill="#ffe9c7"/><path d="m221.8 151.4c-8.5 2.7-15.3 1.1-21.3-4-.8-.7-1.8-1.5-.7-2.7s1.8 0 2.6.6c7.5 6 15.6 6.4 23.7 1 .9-.6 1.9-1.6 2.7-.2s-.4 1.9-1.3 2.5c-1.7 1.3-3.6 2.2-5.7 2.8z" fill="#2d2d2d"/><path d="m182.2 125.7c-3.5-4.6-7.8-14.3-5.6-22.8 2.4-8.9 10.6-12.6 19-8.7 10.8 5 16.9 19.5 12.8 30.5-2.5 6.8-9.3 10.2-15.7 8-4.2-1-7.9-3.5-10.5-7z" fill="#a4936a"/><path d="m191.2 103c2.7-.1 5.4.4 7.8 1.5.6.3 1.4.6 1 1.5-.2.7-1 1-1.6.8-.1 0-.2-.1-.3-.1-4.7-2.2-10.2-1.6-14.3 1.5-.7.5-1.4.6-2-.3s.2-1.3.7-1.6c2.6-1.9 5.6-3.1 8.7-3.3z" fill="#2d2d2d"/><path d="m193.8 120.2c-1.1.2-2.2-.3-2.9-1.2-.8-1.2-1.3-2.5-2.7-3.1-.4-.1-.6-.5-.5-.9 0-.1.1-.2.2-.3.5-.5 1-.3 1.6 0 1.8 1.1 3.9 1.7 6 1.6.9-.1 1.8-.3 2.7-.4.7-.1 1.6-.6 1.9.5.2.8-.7 1.2-1.3 1.3-1.3.1-2.4.8-3.1 1.9-.3.4-1.1.7-1.9.6z" fill="#2d2d2d"/><path d="m239.8 118.2.8-.1c.5-.1 1-.4 1.3.2s-.2 1-.8 1.3l-1 .4c-.7-.1-1.1.4-1.5.8-.9 1.2-2.6 1.5-3.8.6-.4-.3-.6-.6-.8-1-.3-.8-.9-1.4-1.6-1.8-.4-.2-1-.6-.7-1.1s1.1-.4 1.7-.1c1.9 1 4.2 1.3 6.4.8z" fill="#2d2d2d"/><path d="m241.3 107.4c.5.1 1 .3 1.5.5.6.3 1.2.6 1.7 1 .8.6 2.4.9 1.5 2.3s-1.8.1-2.7-.3c-.7-.4-1.4-.7-2.1-.9-2.4-.8-5-.8-7.4 0-.7.2-1.5.6-1.9-.4s.3-1.4 1.2-1.8c2.6-1 5.5-1.1 8.2-.4z" fill="#2d2d2d"/><path d="m279.7 30.7h139.9v139.9h-139.9z" fill="#02998a"/><path d="m349 48c8.4 1.2 24 8.8 31.4 13 11.1 6.2 11 18.1 9.3 29.4-.2 1.3-.8 3.6-.9 5-1.4.3-3.2-1.1-4.3-2-.7-1.4-.9-2.9-1.5-4.3-1-2.2-1.1-2.7-3.3-1.6-1.1.6-2.1 1.3-3.1 2.1-4.8 3.4-10 5.5-16 5.5-4.3 0-8-1.8-11.6-3.8-2.4-1.3-4.8-2.8-7.2-4.2-7.2-4-18-4.8-25.6 1.7-4.8 4.1-6.5 9.4-6.9 15.4-.1 1.7 0 3.4 0 5.1 0 1 .1 10.6-.9 11.3-2.4.6-4.5.6-6-1.4-4.3-5.9-1.5-22.5-.4-29.7.6-3.6.5-3.6-3.2-3.1-3 .5-5.8 1.5-8.5 2.8.4-2.9 1.3-5.7 2.8-8.3 3-5.7 7.5-10.4 13.1-13.7.9-.5 2.1-.8 2.1-1.9s-1.4-1.4-2.2-1.8c-2.3-1.3-4.6-2.6-7.5-4.2 12.1-3.7 23.7-7 35.9-7.3-.8-1.9-2.7-3-4.4-4.9.1 0 14.3.2 18.9.9z" fill="#ff7d08"/><path d="m384.8 133.1c-.2 6.2-7 16.1-10.7 19.2-2.6 2.4-5.6 4.3-8.8 5.7-6.9 2.7-18 3.3-26 .9s-20.3-9.6-25.6-14.9c-8.1-8.1-8.4-14.5-9.4-23.1 1.9-.7 2.5-2.1 2.4-3.9-.1-2.1.9-3.1 3-3 4.2.1 4.3 0 5.7 4.2 1 3 3.1 5.4 4 8.4l12.1 8.5c1.1 0 2.2.1 3.3.2 8.1.6 14-3.6 16-11.5.2-.6.2-1.3.4-2 .4-1.5 0-3.5 1.6-4.3 2-.9 4.3-.6 6.5-.2 1.2.2 1.4 1.4 1.4 2.4 0 2.2.2 4.4.7 6.5 1.5 6.7 5.7 10.4 12.5 11.1.4 0 .8.1 1.2.2z" fill="#efb745"/><path d="m326.6 134c-3.1-1.8-5.8-4.3-7.6-7.3-2-3.3-3.7-6.9-5-10.5-.4-1.2-4.2-1.6-4.2-1.6l-9.2-.3s-1.4-.1-2.1-.2-1.9.2-1.8-1.6c.1-1.5.9-1.5 1.9-1.4l8.6.6c1.7.1 3.4 0 5-.3-.4-4.4.4-8.8 2.3-12.8 4.3-8.9 13.7-10.9 21.7-7.5 8.8 3.9 13.6 11.2 15.9 20.3.4 1.6 2.7 3.2 2.7 3.2 4.4.1 4.8.1 5.8-2.7 2.5-6.9 6.5-12.7 12.9-16.6 2.4-1.5 5.2-2.4 8.1-2.5 1-.2 2 0 2.9.6 1.2.1 2.4.4 3.5 1 5.9 3.1 8.2 8.3 8.4 14.7.2 9.5-3.4 17.4-10.4 23.8-.5.4-1 .9-1.5 1.4-2.3 2.8-5.9 4.2-9.5 3.7-10.8.3-15.1-8.5-15.2-16.6 0-3.6 0-3.6-3.5-3.6-3.9 0-3.8 0-4.5 4-1.2 6.5-4.3 11.8-11 13.8-3.1.8-10.7.6-14.2-1.6z" fill="#111"/><ellipse cx="378.3" cy="115.6" fill="#a4936a" rx="20.6" ry="14.2" transform="matrix(.4217 -.9067 .9067 .4217 113.9385 409.844)"/><path d="m349.2 30c-.9 2.5-1.5 5.1-1.9 7.8-.4 3.5-.7 7-1.1 10.5-.3 8.8.4 17.5 2 26.1.4 1.9 1.3 3.8 1.8 5.7.4 1 .3 2.2-.2 3.2-.4.6-1.1.9-1.8.6-.7-.2-1.3-.8-1.4-1.6-.5-2.8-1-5.6-1.4-8.3-1.5-8.6-2-17.3-1.6-26.1.2-4.5.7-9 1.4-13.4.2-1.1.4-3.5.5-4.6" fill="#ffab66"/><path d="m345.5 29.9c0-.2.4-1.7.4-1.9.2-.5.3-1 .5-1.5.3-.8.6-1.6.9-2.4.4-.8.7-1.6 1-2.4.3-.7.6-1.4 1-2.1s1-1.5 1.5-2.2c.2-.3.4-.6.6-.9 2.5-3.7 5.8-6.8 9.7-9 1.2-.6 2.3-1.4 3.4-2.2 1.2-1.2 3.1-1.3 4.4-.2 1.1.8 1.5 2.4.9 3.6-.5 1.6-2.2 2.5-3.8 2-1.4-.3-2.9.1-4 1-2 1.5-3.9 3.1-5.6 5-.8.8-1.5 1.7-2.1 2.6-.4.6-.8 1.3-1.1 1.9-.6.8-1 1.6-1.4 2.4-.2.4-.3.8-.5 1.2s-.4 1-.6 1.5c-.3.8-1.1 2.8-1.4 3.7" fill="#ffab66"/><path d="m379.2 38.9c-1.4 1.9-2.5 3.9-3.5 6.1l-3.5 8.6c-2.4 7.3-3.9 14.8-4.7 22.4-.2 1.7.1 3.5.1 5.2.1 1-.3 1.9-1 2.6-.5.4-1.1.4-1.6.1-.6-.3-.9-1-.8-1.7.3-2.4.5-4.9.8-7.3.9-7.6 2.5-15 5-22.2 1.2-3.8 2.7-7.4 4.4-11 .4-.8 1.2-2.8 1.5-3.7" fill="#ffab66"/><path d="m376.1 37.9c.1-.2.7-1.4.8-1.5.3-.4.5-.8.8-1.1.4-.6.9-1.2 1.4-1.8.5-.5 1-1.1 1.4-1.8.4-.5.9-1 1.4-1.5s1.2-1 1.8-1.5l.7-.6c3-2.5 6.5-4.3 10.3-5.2 1.1-.3 2.3-.6 3.4-1 1.3-.7 2.9-.3 3.8.9.7 1 .7 2.4-.1 3.3-.8 1.2-2.4 1.6-3.7.8-1.1-.6-2.4-.6-3.6-.2-2.1.7-4.1 1.7-5.9 2.9-.8.5-1.7 1.1-2.4 1.7-.5.4-1 .8-1.4 1.3-.7.5-1.3 1.1-1.8 1.7-.2.3-.5.6-.7.9s-.6.7-.9 1.1c-.5.6-1.6 2.1-2.1 2.7" fill="#ffab66"/><path d="m384.6 93.3c-10.8-.3-16.9 6.1-21.6 14.7-.9 1.7-1.6 3.5-2 5.4-.4 1.5-2.5 1.8-2.5 1.8s-4.1.5-5.7-.2c-1.8-.8-1.9-4-1.9-4-.7-5.5-6.4-15.1-13.7-18.9-10.5-5.5-21.9.2-23.8 11.9-.3 1.8-.4 5.5-.4 5.5l.1 2.3-5.8-.3c-.1-3.7 0-7.3.4-11 1.2-10.9 12.4-18.8 23.7-17.1 3.9.5 7.7 1.8 11.1 3.9 2.2 1.4 4.5 2.6 6.7 4 8 4.7 15.7 3.8 23.4-.8 1.8-1.1 3.4-2.4 5.2-3.5 3-1.8 4.5-1.3 5.8 1.9.7 1.4 1 2.9 1 4.4z" fill="#efb745"/><path d="m361.7 151.4c-8.5 2.7-15.3 1.1-21.3-4-.9-.7-1.9-1.5-.7-2.7s1.8 0 2.6.6c7.5 6 15.6 6.4 23.7 1 .9-.6 1.9-1.6 2.7-.2s-.4 1.9-1.3 2.5c-1.8 1.3-3.7 2.2-5.7 2.8z" fill="#2d2d2d"/><path d="m322.1 125.7c-3.5-4.6-7.8-14.3-5.6-22.8 2.3-8.9 10.6-12.6 19-8.7 10.8 5 16.9 19.5 12.8 30.5-2.5 6.8-9.3 10.2-15.7 8-4.2-1-7.9-3.5-10.5-7z" fill="#a4936a"/><path d="m331.1 103c2.7-.1 5.4.4 7.8 1.5.6.3 1.4.6 1 1.5-.2.7-1 1-1.6.8-.1 0-.2-.1-.3-.1-4.7-2.2-10.2-1.6-14.3 1.5-.7.5-1.4.6-1.9-.3s.2-1.3.7-1.6c2.5-1.9 5.5-3.1 8.6-3.3z" fill="#2d2d2d"/><path d="m333.7 120.2c-1.1.2-2.2-.3-2.9-1.2-.8-1.2-1.3-2.5-2.7-3.1-.4-.1-.6-.5-.5-.9 0-.1.1-.2.2-.3.5-.5 1.1-.3 1.6 0 1.8 1.1 3.9 1.7 6 1.6.9-.1 1.8-.3 2.7-.4.7-.1 1.6-.6 1.9.5.2.8-.7 1.2-1.3 1.3-1.3.1-2.4.8-3.1 1.9-.4.4-1.1.7-1.9.6z" fill="#2d2d2d"/><path d="m379.7 118.2.8-.1c.5-.1 1-.4 1.3.2s-.2 1-.8 1.3l-1 .4c-.7-.1-1.1.4-1.5.8-.9 1.2-2.6 1.5-3.8.6-.4-.3-.6-.6-.8-1-.3-.8-.9-1.4-1.6-1.8-.4-.2-1-.6-.7-1.1s1.1-.4 1.7-.1c1.9 1 4.2 1.3 6.4.8z" fill="#2d2d2d"/><path d="m381.2 107.4c.5.1 1 .3 1.5.5.6.3 1.2.6 1.7 1 .8.6 2.4.9 1.5 2.3s-1.8.1-2.7-.3c-.7-.4-1.4-.7-2.1-.9-2.4-.8-5-.8-7.4 0-.7.2-1.5.6-1.9-.4s.3-1.4 1.2-1.8c2.6-1 5.5-1.1 8.2-.4z" fill="#2d2d2d"/><path d="m419.6 30.7h139.9v139.9h-139.9z" fill="#631159"/><path d="m488.9 48c8.4 1.2 24 8.8 31.4 13 11.1 6.2 11 18.1 9.3 29.4-.2 1.3-.8 3.6-.9 5-1.4.3-3.2-1.1-4.3-2-.7-1.4-.9-2.9-1.5-4.3-1-2.2-1.1-2.7-3.3-1.6-1.1.6-2.1 1.3-3.1 2.1-4.8 3.4-10 5.5-16 5.5-4.3 0-8-1.8-11.6-3.8-2.4-1.3-4.8-2.8-7.2-4.2-7.2-4-18-4.8-25.6 1.7-4.8 4.1-6.5 9.4-6.9 15.4-.1 1.7 0 3.4 0 5.1 0 1 .1 10.6-.9 11.3-2.4.6-4.5.6-6-1.4-4.3-5.9-1.6-22.5-.4-29.7.6-3.6.6-3.6-3.2-3.1-3 .5-5.8 1.5-8.5 2.8.4-2.9 1.3-5.7 2.9-8.3 3-5.7 7.6-10.4 13.1-13.6.8-.5 2.1-.8 2.1-1.9s-1.3-1.4-2.2-1.8c-2.3-1.3-4.6-2.6-7.5-4.2 12.1-3.7 23.7-7 35.9-7.3-.8-1.9-2.7-3-4.4-4.9 0-.1 14.1.1 18.8.8z" fill="#30d1c5"/><path d="m524.7 133.1c-.2 6.2-7 16.1-10.7 19.2-2.6 2.4-5.6 4.3-8.8 5.7-6.9 2.7-18 3.3-26 .9s-20.3-9.6-25.7-14.9c-8.1-8.1-8.4-14.5-9.4-23.1 1.9-.7 2.5-2.1 2.4-3.9-.1-2.1.9-3.1 3-3 4.2.1 4.3 0 5.7 4.2 1 3 3.1 5.4 4 8.4l12.1 8.5c1.1 0 2.2.1 3.3.2 8.1.6 14-3.6 16-11.5.2-.6.2-1.3.4-2 .4-1.5 0-3.5 1.6-4.3 2-.9 4.3-.6 6.5-.2 1.2.2 1.4 1.4 1.4 2.4 0 2.2.2 4.4.7 6.5 1.5 6.7 5.7 10.4 12.5 11.1.4 0 .8.1 1.2.2z" fill="#f7da9f"/><path d="m466.5 134c-3.1-1.8-5.8-4.3-7.6-7.3-2-3.3-3.7-6.9-5-10.5-.4-1.2-4.2-1.6-4.2-1.6l-9.2-.3s-1.4-.1-2.1-.2-1.9.2-1.8-1.6c.1-1.5.9-1.5 1.9-1.4l8.6.6c1.7.1 3.4 0 5-.3-.4-4.4.4-8.8 2.3-12.8 4.3-9 13.7-10.9 21.7-7.4 8.8 3.9 13.6 11.1 15.9 20.3.4 1.6 2.7 3.2 2.7 3.2 4.4.1 4.8.1 5.8-2.7 2.5-6.9 6.5-12.7 12.9-16.6 2.4-1.5 5.2-2.4 8.1-2.5 1-.2 2 0 2.9.6 1.2.1 2.4.4 3.5 1 5.9 3.1 8.2 8.3 8.4 14.7.2 9.5-3.4 17.4-10.4 23.8-.5.4-1 .9-1.5 1.4-2.3 2.8-5.9 4.2-9.5 3.7-10.8.3-15.1-8.5-15.2-16.6 0-3.6 0-3.6-3.5-3.6-3.9 0-3.8 0-4.5 4-1.2 6.5-4.3 11.8-11 13.8-3.2.7-10.7.5-14.2-1.7z" fill="#111"/><ellipse cx="518.1" cy="115.6" fill="#bdb194" rx="20.6" ry="14.2" transform="matrix(.4217 -.9067 .9067 .4217 194.8281 536.6525)"/><path d="m489 30c-.9 2.5-1.5 5.1-1.9 7.8-.3 3.5-.7 7-1.1 10.5-.3 8.8.4 17.5 2 26.1.4 1.9 1.3 3.8 1.8 5.7.4 1 .3 2.2-.2 3.2-.4.6-1.1.8-1.8.6-.8-.2-1.3-.8-1.4-1.6-.5-2.8-1-5.6-1.4-8.3-1.5-8.6-2-17.3-1.6-26.1.2-4.5.7-9 1.4-13.4.2-1.1.4-3.5.5-4.6" fill="#1c726a"/><path d="m485.4 29.9c0-.2.4-1.7.4-1.9.2-.5.3-1 .5-1.5.3-.8.6-1.6.9-2.4.4-.8.7-1.6 1-2.4.3-.7.7-1.4 1-2.1s1-1.5 1.5-2.2l.6-.9c2.5-3.7 5.8-6.8 9.7-9 1.2-.6 2.3-1.4 3.4-2.2 1.2-1.2 3.1-1.3 4.4-.2 1.1.8 1.5 2.4.9 3.6-.5 1.6-2.1 2.5-3.7 2h-.1c-1.4-.3-2.9.1-4 1-2 1.5-3.9 3.1-5.6 5-.8.8-1.5 1.7-2.1 2.6-.4.6-.8 1.3-1.2 1.9-.6.8-1 1.6-1.4 2.4-.2.4-.3.8-.5 1.2s-.4 1-.6 1.5c-.3.8-1.1 2.8-1.4 3.7" fill="#1c726a"/><path d="m519.1 38.9c-1.4 1.9-2.5 3.9-3.5 6.1l-3.5 8.6c-2.4 7.3-3.9 14.8-4.7 22.4-.2 1.7.2 3.5.1 5.2.1 1-.3 1.9-1 2.6-.5.4-1.1.4-1.6.1-.6-.3-.9-1-.8-1.7.3-2.4.5-4.9.8-7.3.9-7.6 2.5-15 5-22.2 1.2-3.8 2.7-7.4 4.4-11 .4-.8 1.2-2.8 1.5-3.7" fill="#1c726a"/><path d="m516 37.9c.1-.2.7-1.4.8-1.5.3-.4.5-.8.8-1.1.4-.6.9-1.2 1.4-1.8s1-1.1 1.4-1.8c.4-.5.9-1 1.4-1.5.6-.5 1.2-1 1.8-1.5l.7-.6c3-2.5 6.5-4.3 10.3-5.2 1.1-.3 2.3-.6 3.4-1 1.3-.7 2.9-.3 3.8.9.7 1 .7 2.4-.2 3.3-.8 1.2-2.4 1.6-3.7.8-1.1-.6-2.4-.6-3.6-.2-2.1.7-4.1 1.7-6 2.9-.8.5-1.7 1.1-2.4 1.7-.5.4-1 .8-1.4 1.3-.7.5-1.3 1.1-1.8 1.7-.2.3-.5.6-.7.9s-.6.7-.9 1.1c-.5.6-1.6 2.1-2.1 2.7" fill="#1c726a"/><path d="m524.4 93.3c-10.8-.4-16.9 6.1-21.6 14.6-.9 1.7-1.6 3.5-2 5.4-.3 1.5-2.4 1.8-2.4 1.8s-4.1.5-5.7-.2c-1.8-.8-1.9-4-1.9-4-.7-5.5-6.4-15.1-13.7-18.9-10.5-5.5-21.9.2-23.8 11.9-.3 1.8-.4 5.5-.4 5.5l.1 2.3-5.8-.3c-.1-3.7 0-7.3.4-11 1.2-10.9 12.4-18.8 23.7-17.1 3.9.5 7.7 1.8 11 3.9 2.2 1.4 4.5 2.6 6.7 4 8 4.7 15.7 3.8 23.4-.8 1.8-1.1 3.5-2.4 5.2-3.5 3-1.8 4.5-1.3 5.8 1.9.7 1.5 1.1 3 1 4.5z" fill="#f7da9f"/><path d="m501.5 151.4c-8.5 2.7-15.3 1.1-21.3-4-.8-.7-1.8-1.5-.7-2.7s1.8 0 2.6.6c7.5 6 15.6 6.4 23.7 1 .9-.6 1.9-1.6 2.7-.2s-.4 1.9-1.3 2.5c-1.7 1.3-3.6 2.2-5.7 2.8z" fill="#2d2d2d"/><path d="m461.9 125.7c-3.5-4.6-7.8-14.3-5.6-22.8 2.3-8.9 10.6-12.6 19-8.7 10.8 5 16.9 19.5 12.8 30.5-2.5 6.8-9.3 10.2-15.7 8-4.2-1-7.9-3.5-10.5-7z" fill="#bdb194"/><path d="m470.9 103c2.7-.1 5.4.4 7.8 1.5.6.3 1.4.6 1 1.5-.2.7-1 1-1.6.8-.1 0-.2-.1-.3-.1-4.7-2.2-10.2-1.6-14.3 1.5-.7.5-1.4.6-1.9-.3s.2-1.3.7-1.6c2.5-1.9 5.5-3.1 8.6-3.3z" fill="#2d2d2d"/><path d="m473.5 120.2c-1.1.2-2.2-.3-2.9-1.2-.8-1.2-1.3-2.5-2.7-3.1-.4-.1-.6-.5-.5-.9 0-.1.1-.2.2-.3.5-.5 1-.3 1.6 0 1.8 1.1 3.9 1.7 6 1.6.9-.1 1.8-.3 2.7-.4.7-.1 1.6-.6 1.9.5.2.8-.7 1.2-1.3 1.3-1.3.1-2.4.8-3.1 1.9-.3.4-1.1.7-1.9.6z" fill="#2d2d2d"/><path d="m519.5 118.2c.3-.1.5-.1.8-.1.5-.1 1-.4 1.3.2s-.2 1-.8 1.3l-1 .4c-.7-.1-1.1.4-1.5.8-.9 1.2-2.6 1.5-3.8.6-.4-.3-.6-.6-.8-1-.3-.8-.9-1.4-1.6-1.9-.4-.2-1-.6-.7-1.1s1.1-.4 1.7-.1c1.9 1.1 4.2 1.4 6.4.9z" fill="#2d2d2d"/><path d="m521 107.4c.5.1 1 .3 1.5.5.6.3 1.2.6 1.7 1 .8.6 2.4.9 1.5 2.3s-1.8.1-2.7-.3c-.7-.4-1.4-.7-2.1-.9-2.4-.8-5-.8-7.4 0-.7.2-1.5.6-1.9-.4s.3-1.4 1.2-1.8c2.7-1 5.5-1.1 8.2-.4z" fill="#2d2d2d"/><path d="m0 211.3h139.9v139.8h-139.9z" fill="#00a8f2"/><path d="m69.3 228.6c8.4 1.2 24 8.8 31.4 13 11.1 6.2 11 18.1 9.3 29.4-.2 1.3-.8 3.6-.9 5-1.4.3-3.2-1.1-4.3-2-.7-1.4-.9-2.9-1.5-4.3-1-2.2-1.1-2.7-3.3-1.6-1.1.6-2.1 1.3-3.1 2.1-4.8 3.4-10 5.5-16 5.5-4.3 0-8-1.8-11.6-3.8-2.4-1.4-4.8-2.8-7.2-4.2-7.2-4-18-4.8-25.6 1.7-4.8 4.1-6.5 9.4-6.9 15.4-.1 1.7 0 3.4 0 5 0 1 .1 10.6-.9 11.3-2.4.6-4.5.6-6-1.4-4.3-5.9-1.6-22.5-.4-29.7.6-3.6.6-3.6-3.2-3.1-3 .5-5.8 1.5-8.5 2.8.4-2.9 1.3-5.7 2.8-8.2 3-5.7 7.6-10.4 13.1-13.6.8-.5 2.1-.8 2.1-1.9s-1.3-1.4-2.2-1.9c-2.3-1.3-4.6-2.6-7.5-4.2 12.1-3.6 23.7-7 35.9-7.4-.8-1.9-2.7-3-4.4-4.9.1 0 14.3.3 18.9 1z" fill="#596642"/><path d="m105.1 313.7c-.2 6.1-7 16.1-10.7 19.2-2.6 2.4-5.6 4.3-8.8 5.7-6.9 2.7-18 3.3-26 .9s-20.3-9.6-25.6-15c-8.1-8.1-8.4-14.5-9.4-23.1 1.9-.7 2.5-2.1 2.4-3.9-.1-2.1.9-3.1 3-3 4.2.1 4.3 0 5.7 4.2 1 3 3.1 5.4 4 8.4l12.1 8.5c1.1 0 2.2.1 3.3.2 8.1.6 14-3.6 16-11.5.2-.7.2-1.3.4-2 .4-1.5 0-3.5 1.6-4.3 2-.9 4.3-.6 6.5-.2 1.2.2 1.4 1.4 1.4 2.4 0 2.2.2 4.4.7 6.5 1.5 6.7 5.7 10.4 12.6 11.1.4 0 .8.1 1.2.2z" fill="#f9ecd2"/><path d="m46.9 314.6c-3.1-1.8-5.8-4.3-7.6-7.3-2-3.3-3.7-6.9-5-10.5-.4-1.2-4.2-1.6-4.2-1.6l-9.2-.3-2.1-.2c-.7-.1-1.9.2-1.8-1.5.1-1.5.9-1.5 1.9-1.4l8.6.6c1.7.1 3.4 0 5-.3-.4-4.4.4-8.8 2.3-12.8 4.3-9 13.7-11 21.7-7.5 8.8 3.9 13.6 11.1 15.9 20.3.4 1.5 2.7 3.2 2.7 3.2 4.4.2 4.8.1 5.8-2.7 2.5-6.9 6.5-12.7 12.9-16.6 2.4-1.5 5.2-2.4 8.1-2.5 1-.2 2 0 2.9.6 1.2.1 2.4.5 3.5 1 5.9 3.1 8.2 8.3 8.4 14.7.2 9.5-3.4 17.4-10.4 23.8-.5.5-1 .9-1.4 1.4-2.4 2.8-6 4.2-9.6 3.7-10.8.3-15.1-8.5-15.2-16.6 0-3.6 0-3.6-3.5-3.6-3.9 0-3.8 0-4.5 4-1.2 6.5-4.3 11.8-11.1 13.8-3 .7-10.6.5-14.1-1.7z" fill="#111"/><ellipse cx="98.6" cy="296.2" fill="#a4936a" rx="20.6" ry="14.2" transform="matrix(.4217 -.9067 .9067 .4217 -211.5359 260.6587)"/><path d="m69.5 210.6c-.9 2.5-1.5 5.1-1.9 7.8l-1.1 10.5c-.3 8.8.4 17.5 2 26.1.4 1.9 1.3 3.8 1.8 5.7.4 1 .3 2.2-.2 3.1-.4.6-1.1.9-1.8.6-.8-.2-1.3-.8-1.4-1.6-.4-2.8-1-5.5-1.4-8.3-1.5-8.6-2-17.3-1.6-26.1.2-4.5.6-9 1.4-13.5.2-1.1.4-3.5.5-4.6" fill="#282d1e"/><path d="m65.8 210.5c0-.2.4-1.7.4-1.9.2-.5.3-1 .5-1.5.3-.8.6-1.6.9-2.4.4-.8.7-1.6 1-2.4.3-.7.6-1.4 1-2.1s1-1.5 1.5-2.2l.6-.9c2.5-3.7 5.8-6.8 9.7-9 1.2-.6 2.3-1.4 3.4-2.2 1.2-1.2 3.1-1.3 4.4-.2 1.1.8 1.5 2.4.9 3.6-.5 1.6-2.1 2.5-3.7 2h-.1c-1.4-.3-2.9.1-4 1-2 1.5-3.9 3.1-5.6 5-.8.8-1.5 1.7-2.1 2.6-.4.6-.8 1.3-1.1 1.9-.6.8-1 1.6-1.4 2.4-.2.4-.3.8-.5 1.2s-.4 1-.6 1.5c-.3.8-1.1 2.8-1.4 3.7" fill="#282d1e"/><path d="m99.5 219.5c-1.4 1.9-2.5 3.9-3.5 6.1l-3.4 8.6c-2.4 7.3-3.9 14.8-4.7 22.4-.2 1.7.2 3.5.1 5.2.1 1-.3 1.9-1 2.6-.5.4-1.1.4-1.6.1-.6-.3-.9-1-.8-1.7.3-2.4.5-4.9.8-7.3.9-7.6 2.5-15 5-22.3 1.2-3.8 2.7-7.4 4.4-11 .4-.9 1.2-2.8 1.5-3.7" fill="#282d1e"/><path d="m96.4 218.5c.1-.2.7-1.4.8-1.5.3-.4.5-.8.8-1.1.4-.6.9-1.2 1.4-1.8.5-.5 1-1.1 1.4-1.8.4-.5.9-1 1.4-1.5s1.2-1 1.8-1.5l.7-.6c3-2.5 6.5-4.3 10.3-5.2 1.1-.3 2.3-.6 3.4-1 1.3-.7 2.9-.3 3.8.9.7 1 .7 2.4-.1 3.3-.8 1.2-2.4 1.6-3.7.8-1.1-.6-2.4-.6-3.6-.2-2.1.7-4.1 1.7-5.9 2.8-.8.5-1.7 1.1-2.4 1.7-.5.4-1 .9-1.4 1.3-.7.5-1.3 1.1-1.8 1.7-.2.3-.5.6-.7.9s-.6.7-.9 1.1c-.5.6-1.6 2.1-2.1 2.7" fill="#282d1e"/><path d="m104.9 273.9c-10.8-.4-16.9 6-21.6 14.6-.9 1.7-1.6 3.5-2 5.4-.4 1.5-2.4 1.8-2.4 1.8s-4.1.5-5.7-.2c-1.8-.8-1.9-4-1.9-4-.7-5.5-6.4-15.1-13.7-18.9-10.5-5.5-21.9.2-23.8 12-.3 1.8-.4 5.5-.4 5.5l.1 2.3-5.8-.3c-.1-3.7 0-7.3.4-11 1.2-10.9 12.4-18.8 23.7-17.1 3.9.5 7.7 1.8 11.1 3.9 2.2 1.4 4.5 2.6 6.8 4 7.9 4.7 15.7 3.8 23.4-.7 1.8-1.1 3.4-2.4 5.2-3.5 3-1.8 4.5-1.3 5.8 1.9.5 1.3.8 2.8.8 4.3z" fill="#f9ecd2"/><path d="m82 332c-8.5 2.7-15.3 1.1-21.3-4-.8-.7-1.8-1.5-.7-2.7s1.8 0 2.6.6c7.5 6 15.6 6.4 23.7 1 .9-.6 1.9-1.5 2.7-.2s-.4 1.9-1.3 2.5c-1.8 1.3-3.7 2.2-5.7 2.8z" fill="#2d2d2d"/><path d="m42.4 306.3c-3.5-4.6-7.8-14.3-5.6-22.8 2.3-8.9 10.6-12.6 19-8.7 10.8 5 16.9 19.5 12.8 30.5-2.5 6.8-9.3 10.2-15.7 8-4.2-1-7.9-3.5-10.5-7z" fill="#a4936a"/><path d="m51.4 283.6c2.7-.1 5.4.4 7.8 1.5.6.3 1.4.6 1 1.5-.2.7-1 1-1.6.8-.1 0-.2-.1-.3-.1-4.7-2.2-10.2-1.6-14.3 1.5-.7.5-1.4.6-1.9-.3s.2-1.3.7-1.6c2.5-2 5.5-3.1 8.6-3.3z" fill="#2d2d2d"/><path d="m54 300.8c-1.1.2-2.2-.3-2.9-1.2-.8-1.2-1.3-2.5-2.7-3.1-.4-.1-.6-.5-.5-.9 0-.1.1-.2.2-.3.5-.5 1-.4 1.6 0 1.8 1.1 3.9 1.7 6 1.6.9-.1 1.8-.3 2.7-.4.7-.1 1.6-.6 1.9.5.2.8-.7 1.2-1.3 1.3-1.3.1-2.4.8-3.1 1.9-.4.4-1.2.7-1.9.6z" fill="#2d2d2d"/><path d="m100 298.8c.3 0 .5-.1.8-.1.5-.1 1-.4 1.3.2s-.2 1-.8 1.3l-.9.4c-.7-.1-1.1.3-1.5.8-.9 1.2-2.6 1.5-3.9.5-.4-.3-.6-.6-.8-1-.3-.8-.9-1.4-1.6-1.8-.4-.2-1-.6-.7-1.1s1.1-.4 1.7-.1c1.9 1.1 4.2 1.4 6.4.9z" fill="#2d2d2d"/><path d="m101.5 288c.5.1 1 .3 1.5.5.6.3 1.2.6 1.7 1 .8.6 2.4.9 1.6 2.3s-1.8.1-2.7-.3c-.7-.4-1.4-.7-2.1-.9-2.4-.8-5-.8-7.4 0-.7.2-1.5.6-1.9-.4s.3-1.4 1.2-1.8c2.5-1 5.4-1.1 8.1-.4z" fill="#2d2d2d"/><path d="m139.9 211.3h139.9v139.8h-139.9z" fill="#cdf987"/><path d="m209.2 228.6c8.4 1.2 24 8.8 31.4 13 11.1 6.2 11 18.1 9.3 29.4-.2 1.3-.8 3.6-.9 5-1.4.3-3.2-1.1-4.3-2-.7-1.4-.9-2.9-1.5-4.3-1-2.2-1.1-2.7-3.3-1.6-1.1.6-2.1 1.3-3.1 2.1-4.8 3.4-10 5.5-16 5.5-4.3 0-8-1.8-11.6-3.8-2.4-1.4-4.8-2.8-7.2-4.2-7.2-4-18-4.8-25.6 1.7-4.8 4.1-6.5 9.4-6.9 15.4-.1 1.7 0 3.4 0 5 0 1 .1 10.6-.9 11.3-2.4.6-4.5.6-6-1.4-4.3-5.9-1.6-22.5-.4-29.7.6-3.6.6-3.6-3.1-3.1-3 .5-5.8 1.5-8.5 2.8.4-2.9 1.3-5.7 2.8-8.2 3-5.7 7.6-10.4 13.1-13.6.9-.5 2.1-.8 2.1-1.9s-1.4-1.4-2.2-1.9c-2.3-1.3-4.6-2.6-7.5-4.2 12.1-3.6 23.7-7 35.9-7.4-.8-1.9-2.7-3-4.4-4.9 0 0 14.1.3 18.8 1z" fill="#5317e5"/><path d="m244.9 313.7c-.2 6.1-7 16.1-10.7 19.2-2.6 2.4-5.6 4.3-8.8 5.7-6.9 2.7-18 3.3-26 .9s-20.3-9.6-25.6-14.9c-8.1-8.1-8.4-14.5-9.4-23.1 1.9-.7 2.5-2.1 2.4-3.9-.1-2.1.9-3.1 3-3 4.2.1 4.4 0 5.7 4.2 1 3 3.1 5.4 4 8.4l12 8.5c1.1 0 2.2.1 3.3.2 8.1.6 14-3.6 16-11.5.2-.7.2-1.3.4-2 .4-1.5 0-3.5 1.6-4.3 2-.9 4.3-.6 6.5-.2 1.2.2 1.4 1.4 1.4 2.4 0 2.2.2 4.4.7 6.5 1.5 6.7 5.7 10.4 12.5 11.1.4 0 .8.1 1.2.2z" fill="#cebd9f"/><path d="m186.8 314.6c-3.1-1.8-5.7-4.3-7.6-7.3-2-3.3-3.7-6.9-5-10.5-.4-1.2-4.2-1.6-4.2-1.6l-9.1-.3-2.1-.2c-.7-.1-1.9.2-1.8-1.5.1-1.5.9-1.5 1.9-1.4l8.6.6c1.7.1 3.4 0 5-.3-.4-4.4.4-8.8 2.3-12.8 4.3-9 13.7-11 21.6-7.5 8.8 3.9 13.6 11.1 15.9 20.3.4 1.5 2.7 3.2 2.7 3.2 4.4.2 4.8.1 5.8-2.7 2.5-6.9 6.5-12.7 12.9-16.6 2.4-1.5 5.2-2.4 8.1-2.5 1-.2 2 0 2.9.6 1.2.1 2.4.5 3.5 1 5.9 3.1 8.2 8.3 8.4 14.7.2 9.5-3.4 17.4-10.4 23.8-.5.5-1 .9-1.5 1.4-2.4 2.8-5.9 4.2-9.5 3.7-10.8.3-15.1-8.5-15.2-16.6 0-3.6 0-3.6-3.5-3.6-3.9 0-3.8 0-4.5 4-1.2 6.5-4.3 11.8-11.1 13.8-3.1.7-10.6.5-14.1-1.7z" fill="#111"/><ellipse cx="238.4" cy="296.2" fill="#90e3e8" rx="20.6" ry="14.2" transform="matrix(.4217 -.9067 .9067 .4217 -130.6628 387.4596)"/><path d="m209.3 210.6c-.9 2.5-1.5 5.1-1.9 7.8l-1 10.5c-.3 8.8.4 17.5 2 26.1.4 1.9 1.3 3.8 1.8 5.7.4 1 .3 2.2-.2 3.1-.4.6-1 .8-1.7.7-.8-.2-1.3-.8-1.4-1.6-.4-2.8-1-5.5-1.4-8.3-1.5-8.6-2-17.3-1.6-26.1.2-4.5.6-9 1.4-13.5.2-1.1.4-3.5.5-4.6" fill="#2b1293"/><path d="m205.7 210.5c0-.2.4-1.7.4-1.9.2-.5.3-1 .5-1.5.3-.8.6-1.6.9-2.4.4-.8.7-1.6 1-2.4.3-.7.6-1.4 1-2.1s1-1.5 1.5-2.2l.5-.9c2.5-3.7 5.8-6.8 9.7-9 1.2-.6 2.3-1.4 3.4-2.2 1.2-1.2 3.1-1.3 4.4-.2 1.1.8 1.5 2.4.9 3.6-.5 1.6-2.1 2.5-3.7 2h-.1c-1.4-.3-2.9.1-4 1-2 1.5-3.9 3.1-5.6 5-.8.8-1.5 1.7-2.1 2.6-.4.6-.8 1.3-1.1 1.9-.6.8-1 1.6-1.4 2.4-.2.4-.3.8-.5 1.2s-.4 1-.6 1.5c-.3.8-1.1 2.8-1.4 3.7" fill="#2b1293"/><path d="m239.4 219.5c-1.4 1.9-2.5 3.9-3.5 6.1l-3.5 8.6c-2.4 7.3-3.9 14.8-4.7 22.4-.2 1.7.1 3.5.1 5.2.1 1-.3 1.9-1 2.6-.5.4-1.1.4-1.6.1-.6-.3-.9-1-.8-1.7.3-2.4.5-4.9.8-7.3.9-7.6 2.5-15 5-22.3 1.2-3.8 2.7-7.4 4.4-11 .4-.9 1.2-2.8 1.5-3.7" fill="#2b1293"/><path d="m236.3 218.5c.1-.2.7-1.4.8-1.5.3-.4.5-.8.8-1.1.4-.6.9-1.2 1.4-1.8.5-.5 1-1.1 1.4-1.8.4-.5.9-1 1.4-1.5s1.2-1 1.8-1.5l.7-.6c3-2.5 6.5-4.3 10.3-5.2 1.1-.3 2.3-.6 3.4-1 1.3-.7 2.9-.3 3.7.9.8 1 .7 2.4-.1 3.3-.8 1.2-2.5 1.6-3.7.8-1.1-.6-2.4-.6-3.6-.2-2.1.7-4.1 1.7-5.9 2.8-.8.5-1.7 1.1-2.4 1.7-.5.4-1 .9-1.4 1.3-.7.5-1.3 1.1-1.8 1.7-.2.3-.5.6-.7.9s-.6.7-.9 1.1c-.5.6-1.6 2.1-2.1 2.7" fill="#2b1293"/><path d="m244.7 273.9c-10.8-.4-16.9 6-21.6 14.6-.9 1.7-1.6 3.5-2 5.4-.4 1.5-2.4 1.8-2.4 1.8s-4.1.5-5.7-.2c-1.9-.8-1.9-4-1.9-4-.7-5.5-6.4-15.1-13.7-18.9-10.5-5.5-21.9.2-23.8 12-.2 1.8-.4 3.7-.4 5.5l.1 2.3-5.7-.3c-.1-3.7 0-7.3.4-11 1.2-10.9 12.4-18.8 23.7-17.1 3.9.5 7.7 1.8 11.1 3.9 2.2 1.4 4.5 2.6 6.7 4 8 4.7 15.7 3.8 23.4-.7 1.8-1.1 3.5-2.4 5.2-3.5 3-1.8 4.5-1.3 5.8 1.9.5 1.3.9 2.8.8 4.3z" fill="#cebd9f"/><path d="m221.8 332c-8.5 2.7-15.3 1.1-21.3-4-.8-.7-1.8-1.5-.7-2.7s1.8 0 2.6.6c7.5 6 15.6 6.4 23.7 1 .9-.6 1.9-1.5 2.7-.2s-.4 1.9-1.3 2.5c-1.7 1.3-3.6 2.2-5.7 2.8z" fill="#2d2d2d"/><path d="m182.2 306.3c-3.5-4.6-7.8-14.3-5.6-22.8 2.4-8.9 10.6-12.6 19-8.7 10.8 5 16.9 19.5 12.8 30.5-2.5 6.8-9.3 10.2-15.7 8-4.2-1-7.9-3.5-10.5-7z" fill="#90e3e8"/><path d="m191.2 283.6c2.7-.1 5.4.4 7.8 1.5.6.3 1.4.6 1 1.5-.2.7-1 1-1.6.8-.1 0-.2-.1-.3-.1-4.7-2.2-10.2-1.6-14.3 1.5-.7.5-1.4.6-2-.3s.2-1.3.7-1.6c2.6-2 5.6-3.1 8.7-3.3z" fill="#2d2d2d"/><path d="m193.8 300.8c-1.1.2-2.2-.3-2.9-1.2-.8-1.2-1.3-2.5-2.7-3.1-.4-.1-.6-.5-.5-.9 0-.1.1-.2.2-.3.5-.5 1-.4 1.6 0 1.8 1.1 3.9 1.7 6 1.6.9-.1 1.8-.3 2.7-.4.7-.1 1.6-.6 1.9.5.2.8-.7 1.2-1.3 1.3-1.3.1-2.4.8-3.1 1.9-.3.4-1.1.7-1.9.6z" fill="#2d2d2d"/><path d="m239.8 298.8.8-.1c.5-.1 1-.4 1.3.2s-.2 1-.8 1.3l-1 .4c-.7-.1-1.1.3-1.5.8-.9 1.2-2.6 1.5-3.8.6-.4-.3-.6-.6-.8-1-.3-.8-.9-1.4-1.6-1.8-.4-.2-1-.6-.7-1.1s1.1-.4 1.7-.1c1.9 1 4.2 1.3 6.4.8z" fill="#2d2d2d"/><path d="m241.3 288c.5.1 1 .3 1.5.5.6.3 1.2.6 1.7 1 .8.6 2.4.9 1.5 2.3s-1.8.1-2.7-.3c-.7-.4-1.4-.7-2.1-.9-2.4-.8-5-.8-7.4 0-.7.2-1.5.6-1.9-.4s.3-1.4 1.2-1.8c2.6-1 5.5-1.1 8.2-.4z" fill="#2d2d2d"/><path d="m279.7 211.3h139.9v139.8h-139.9z" fill="#ffb93e"/><path d="m349 228.6c8.4 1.2 24 8.8 31.4 13 11.1 6.2 11 18.1 9.3 29.4-.2 1.3-.8 3.6-.9 5-1.4.3-3.2-1.1-4.3-2-.7-1.4-.9-2.9-1.5-4.3-1-2.2-1.1-2.7-3.3-1.6-1.1.6-2.1 1.3-3.1 2.1-4.8 3.4-10 5.5-16 5.5-4.3 0-8-1.8-11.6-3.8-2.4-1.4-4.8-2.8-7.2-4.2-7.2-4-18-4.8-25.6 1.7-4.8 4.1-6.5 9.4-6.9 15.4-.1 1.7 0 3.4 0 5 0 1 .1 10.6-.9 11.3-2.4.6-4.5.6-6-1.4-4.3-5.9-1.5-22.5-.4-29.7.6-3.6.5-3.6-3.2-3.1-3 .5-5.8 1.5-8.5 2.8.4-2.9 1.3-5.7 2.8-8.2 3-5.7 7.5-10.4 13.1-13.6.9-.5 2.1-.8 2.1-1.9s-1.4-1.4-2.2-1.9c-2.3-1.3-4.6-2.6-7.5-4.2 12.1-3.6 23.7-7 35.9-7.4-.8-1.9-2.7-3-4.4-4.9.1 0 14.3.3 18.9 1z" fill="#ed48ed"/><path d="m384.8 313.7c-.2 6.1-7 16.1-10.7 19.2-2.6 2.4-5.6 4.3-8.8 5.7-6.9 2.7-18 3.3-26 .9s-20.3-9.6-25.6-14.9c-8.1-8.1-8.4-14.5-9.4-23.1 1.9-.7 2.5-2.1 2.4-3.9-.1-2.1.9-3.1 3-3 4.2.1 4.3 0 5.7 4.2 1 3 3.1 5.4 4 8.4l12.1 8.5c1.1 0 2.2.1 3.3.2 8.1.6 14-3.6 16-11.5.2-.7.2-1.3.4-2 .4-1.5 0-3.5 1.6-4.3 2-.9 4.3-.6 6.5-.2 1.2.2 1.4 1.4 1.4 2.4 0 2.2.2 4.4.7 6.5 1.5 6.7 5.7 10.4 12.5 11.1.4 0 .8.1 1.2.2z" fill="#eaeaea"/><path d="m326.6 314.6c-3.1-1.8-5.8-4.3-7.6-7.3-2-3.3-3.7-6.9-5-10.5-.4-1.2-4.2-1.6-4.2-1.6l-9.2-.3-2.1-.2c-.7-.1-1.9.2-1.8-1.5.1-1.5.9-1.5 1.9-1.4l8.6.6c1.7.1 3.4 0 5-.3-.4-4.4.4-8.8 2.3-12.8 4.3-9 13.7-11 21.6-7.5 8.8 3.9 13.6 11.1 15.9 20.3.4 1.5 2.7 3.2 2.7 3.2 4.4.2 4.8.1 5.8-2.7 2.5-6.9 6.5-12.7 12.9-16.6 2.4-1.5 5.2-2.4 8.1-2.5 1-.2 2 0 2.9.6 1.2.1 2.4.5 3.5 1 5.9 3.1 8.2 8.3 8.4 14.7.2 9.5-3.4 17.4-10.4 23.8-.5.5-1 .9-1.5 1.4-2.4 2.8-5.9 4.2-9.5 3.7-10.8.3-15.1-8.5-15.2-16.6 0-3.6 0-3.6-3.5-3.6-3.9 0-3.8 0-4.5 4-1.2 6.5-4.3 11.8-11 13.8-3 .7-10.6.5-14.1-1.7z" fill="#111"/><ellipse cx="378.3" cy="296.2" fill="#a2771f" rx="20.6" ry="14.2" transform="matrix(.4217 -.9067 .9067 .4217 -49.7839 514.2695)"/><path d="m349.2 210.6c-.9 2.5-1.5 5.1-1.9 7.8-.4 3.5-.7 7-1.1 10.5-.3 8.8.4 17.5 2 26.1.4 1.9 1.3 3.8 1.8 5.7.4 1 .3 2.2-.2 3.1-.4.6-1.1.9-1.8.6-.7-.2-1.3-.8-1.4-1.6-.5-2.8-1-5.5-1.4-8.3-1.5-8.6-2-17.3-1.6-26.1.2-4.5.6-9 1.4-13.5.2-1.1.4-3.5.5-4.6" fill="#7a277c"/><path d="m345.5 210.5c0-.2.4-1.7.4-1.9.2-.5.3-1 .5-1.5.3-.8.6-1.6.9-2.4.4-.8.7-1.6 1-2.4.3-.7.6-1.4 1-2.1s1-1.5 1.5-2.2c.2-.3.4-.6.6-.9 2.5-3.7 5.8-6.8 9.7-9 1.2-.6 2.3-1.4 3.4-2.2 1.2-1.2 3.1-1.3 4.4-.2 1.1.8 1.5 2.4.9 3.6-.5 1.6-2.1 2.5-3.7 2h-.1c-1.4-.3-2.9.1-4 1-2 1.5-3.9 3.1-5.6 5-.8.8-1.5 1.7-2.1 2.6-.9 1.5-1.7 2.9-2.6 4.4-.2.4-.3.8-.5 1.2s-.4 1-.6 1.5c-.3.8-1.1 2.8-1.4 3.7" fill="#7a277c"/><path d="m379.2 219.5c-1.4 1.9-2.5 3.9-3.5 6.1l-3.5 8.5c-2.4 7.3-3.9 14.8-4.7 22.4-.2 1.7.1 3.5.1 5.2.1 1-.3 1.9-1 2.6-.5.4-1.1.4-1.6.1-.6-.3-.9-1-.8-1.7.3-2.4.5-4.9.8-7.3.9-7.6 2.5-15 5-22.3 1.2-3.8 2.7-7.4 4.4-11 .4-.9 1.2-2.8 1.5-3.7" fill="#7a277c"/><path d="m376.1 218.5c.1-.2.7-1.4.8-1.5.3-.4.5-.8.8-1.1.4-.6.9-1.2 1.4-1.8.5-.5 1-1.1 1.4-1.8.4-.5.9-1 1.4-1.5.6-.5 1.2-1 1.8-1.5l.7-.6c3-2.5 6.5-4.3 10.3-5.2 1.1-.3 2.3-.6 3.4-1 1.3-.7 2.9-.3 3.8.9.7 1 .7 2.4-.1 3.3-.8 1.2-2.4 1.6-3.7.8-1.1-.6-2.4-.6-3.6-.2-2.1.7-4.1 1.7-5.9 2.8-.8.5-1.7 1.1-2.4 1.7-.5.4-1 .9-1.4 1.3-.7.5-1.3 1.1-1.8 1.7-.2.3-.5.6-.7.9s-.6.7-.9 1.1c-.5.6-1.6 2.1-2.1 2.7" fill="#7a277c"/><path d="m384.6 273.9c-10.8-.4-16.9 6-21.6 14.6-.9 1.7-1.6 3.5-2 5.4-.4 1.5-2.5 1.8-2.5 1.8s-4.1.5-5.7-.2c-1.8-.8-1.9-4-1.9-4-.7-5.5-6.4-15.1-13.7-18.9-10.5-5.5-21.9.2-23.8 12-.3 1.8-.4 5.5-.4 5.5l.1 2.3-5.8-.3c-.1-3.7 0-7.3.4-11 1.2-10.9 12.4-18.8 23.7-17.1 3.9.5 7.7 1.8 11.1 3.9 2.2 1.4 4.5 2.6 6.7 4 8 4.7 15.7 3.8 23.4-.7 1.8-1.1 3.4-2.4 5.2-3.5 3-1.8 4.5-1.3 5.8 1.9.7 1.3 1 2.8 1 4.3z" fill="#eaeaea"/><path d="m361.7 332c-8.5 2.7-15.3 1.1-21.3-4-.9-.7-1.9-1.5-.7-2.7s1.8 0 2.6.6c7.5 6 15.6 6.4 23.7 1 .9-.6 1.9-1.5 2.7-.2s-.4 1.9-1.3 2.5c-1.8 1.3-3.7 2.2-5.7 2.8z" fill="#2d2d2d"/><path d="m322.1 306.3c-3.5-4.6-7.8-14.3-5.6-22.8 2.3-8.9 10.6-12.6 19-8.7 10.8 5 16.9 19.5 12.8 30.5-2.5 6.8-9.3 10.2-15.7 8-4.2-1-7.9-3.5-10.5-7z" fill="#a2771f"/><path d="m331.1 283.6c2.7-.1 5.4.4 7.8 1.5.6.3 1.4.6 1 1.5-.2.7-1 1-1.6.8-.1 0-.2-.1-.3-.1-4.7-2.2-10.2-1.6-14.3 1.5-.7.5-1.4.6-1.9-.3s.2-1.3.7-1.6c2.5-2 5.5-3.1 8.6-3.3z" fill="#2d2d2d"/><path d="m333.7 300.8c-1.1.2-2.2-.3-2.9-1.2-.8-1.2-1.3-2.5-2.7-3.1-.4-.1-.6-.5-.5-.9 0-.1.1-.2.2-.3.5-.5 1.1-.4 1.6 0 1.8 1.1 3.9 1.7 6 1.6.9-.1 1.8-.3 2.7-.4.7-.1 1.6-.6 1.9.5.2.8-.7 1.2-1.3 1.3-1.3.1-2.4.8-3.1 1.9-.4.4-1.1.7-1.9.6z" fill="#2d2d2d"/><path d="m379.7 298.8.8-.1c.5-.1 1-.4 1.3.2s-.2 1-.8 1.3l-1 .4c-.7-.1-1.1.3-1.5.8-.9 1.2-2.6 1.5-3.8.6-.4-.3-.6-.6-.8-1-.3-.8-.9-1.4-1.6-1.8-.4-.2-1-.6-.7-1.1s1.1-.4 1.7-.1c1.9 1 4.2 1.3 6.4.8z" fill="#2d2d2d"/><path d="m381.2 288c.5.1 1 .3 1.5.5.6.3 1.2.6 1.7 1 .8.6 2.4.9 1.5 2.3s-1.8.1-2.7-.3c-.7-.4-1.4-.7-2.1-.9-2.4-.8-5-.8-7.4 0-.7.2-1.5.6-1.9-.4s.3-1.4 1.2-1.8c2.6-1 5.5-1.1 8.2-.4z" fill="#2d2d2d"/><path d="m419.6 211.3h139.9v139.8h-139.9z" fill="#29720e"/><path d="m488.9 228.6c8.4 1.2 24 8.8 31.4 13 11.1 6.2 11 18.1 9.3 29.4-.2 1.3-.8 3.6-.9 5-1.4.3-3.2-1.1-4.3-2-.7-1.4-.9-2.9-1.5-4.3-1-2.2-1.1-2.7-3.3-1.6-1.1.6-2.1 1.3-3.1 2.1-4.8 3.4-10 5.5-16 5.5-4.3 0-8-1.8-11.6-3.8-2.4-1.4-4.8-2.8-7.2-4.2-7.2-4-18-4.8-25.6 1.7-4.8 4.1-6.5 9.4-6.9 15.4-.1 1.7 0 3.4 0 5 0 1 .1 10.6-.9 11.3-2.4.6-4.5.6-6-1.4-4.3-5.9-1.6-22.5-.4-29.7.6-3.6.6-3.6-3.2-3.1-3 .5-5.8 1.5-8.5 2.8.4-2.9 1.3-5.7 2.9-8.2 3-5.7 7.6-10.4 13.1-13.6.8-.5 2.1-.8 2.1-1.9s-1.3-1.4-2.2-1.9c-2.3-1.3-4.6-2.6-7.5-4.2 12.1-3.6 23.7-7 35.9-7.4-.8-1.9-2.7-3-4.4-4.9 0 0 14.1.3 18.8 1z" fill="#f7da0b"/><path d="m524.7 313.7c-.2 6.1-7 16.1-10.7 19.2-2.6 2.4-5.6 4.3-8.8 5.7-6.9 2.7-18 3.3-26 .9s-20.3-9.6-25.7-14.9c-8.1-8.1-8.4-14.5-9.4-23.1 1.9-.7 2.5-2.1 2.4-3.9-.1-2.1.9-3.1 3-3 4.2.1 4.3 0 5.7 4.2 1 3 3.1 5.4 4 8.4l12.1 8.5c1.1 0 2.2.1 3.3.2 8.1.6 14-3.6 16-11.5.2-.7.2-1.3.4-2 .4-1.5 0-3.5 1.6-4.3 2-.9 4.3-.6 6.5-.2 1.2.2 1.4 1.4 1.4 2.4 0 2.2.2 4.4.7 6.5 1.5 6.7 5.7 10.4 12.5 11.1.4 0 .8.1 1.2.2z" fill="#fbeed4"/><path d="m466.5 314.6c-3.1-1.8-5.8-4.3-7.6-7.3-2-3.3-3.7-6.9-5-10.5-.4-1.2-4.2-1.6-4.2-1.6l-9.2-.3-2.2-.2c-.7-.1-1.9.2-1.8-1.5.1-1.5.9-1.5 1.9-1.4l8.6.6c1.7.1 3.4 0 5-.3-.4-4.4.4-8.8 2.3-12.8 4.3-9 13.7-11 21.7-7.5 8.8 3.9 13.6 11.1 15.9 20.3.4 1.5 2.7 3.2 2.7 3.2 4.4.2 4.8.1 5.8-2.7 2.5-6.9 6.5-12.7 12.9-16.6 2.4-1.5 5.2-2.4 8.1-2.5 1-.2 2 0 2.9.6 1.2.1 2.4.5 3.5 1 5.9 3.1 8.2 8.3 8.4 14.7.2 9.5-3.4 17.4-10.4 23.8-.5.5-1 .9-1.5 1.4-2.4 2.8-5.9 4.2-9.5 3.7-10.8.3-15.1-8.5-15.2-16.6 0-3.6 0-3.6-3.5-3.6-3.9 0-3.8 0-4.5 4-1.2 6.5-4.3 11.8-11 13.8-3.1.7-10.6.5-14.1-1.7z" fill="#111"/><ellipse cx="518.1" cy="296.2" fill="#f7da9f" rx="20.6" ry="14.2" transform="matrix(.4217 -.9067 .9067 .4217 31.1057 641.078)"/><path d="m489 210.6c-.9 2.5-1.5 5.1-1.9 7.8-.3 3.5-.7 7-1.1 10.5-.3 8.8.4 17.5 2 26.1.4 1.9 1.3 3.8 1.8 5.7.4 1 .3 2.2-.2 3.1-.4.6-1.1.9-1.8.6-.8-.2-1.3-.8-1.4-1.6-.5-2.8-1-5.5-1.4-8.3-1.5-8.6-2-17.3-1.5-26.1.2-4.5.6-9 1.4-13.5.2-1.1.4-3.5.5-4.6" fill="#ab9707"/><path d="m485.4 210.5c0-.2.4-1.7.4-1.9.2-.5.3-1 .5-1.5.3-.8.6-1.6.9-2.4.4-.8.7-1.6 1-2.4.3-.7.7-1.4 1-2.1s1-1.5 1.5-2.2l.6-.9c2.5-3.7 5.8-6.8 9.7-9 1.2-.6 2.3-1.4 3.4-2.2 1.2-1.2 3.1-1.3 4.4-.2 1.1.8 1.5 2.4.9 3.6-.5 1.6-2.1 2.5-3.7 2h-.1c-1.4-.3-2.9.1-4 1-2 1.5-3.9 3.1-5.6 5-.8.8-1.5 1.7-2.1 2.6-.4.6-.8 1.3-1.2 1.9-.6.8-1 1.6-1.4 2.4-.2.4-.3.8-.5 1.2s-.4 1-.6 1.5c-.3.8-1.1 2.8-1.4 3.7" fill="#ab9707"/><path d="m519.1 219.5c-1.4 1.9-2.5 3.9-3.5 6.1l-3.5 8.6c-2.4 7.3-3.9 14.8-4.7 22.4-.2 1.7.2 3.5.1 5.2.1 1-.3 1.9-1 2.6-.5.4-1.1.4-1.6.1-.6-.3-.9-1-.8-1.7.3-2.4.5-4.9.8-7.3.9-7.6 2.5-15 5-22.3 1.2-3.8 2.7-7.4 4.4-11 .4-.9 1.2-2.8 1.5-3.7" fill="#ab9707"/><path d="m516 218.5c.1-.2.7-1.4.8-1.5.3-.4.5-.8.8-1.1.4-.6.9-1.2 1.4-1.8.5-.5 1-1.1 1.4-1.8.4-.5.9-1 1.4-1.5s1.2-1 1.8-1.5l.7-.6c3-2.5 6.5-4.3 10.3-5.2 1.1-.3 2.3-.6 3.4-1 1.3-.7 2.9-.3 3.8.9.7 1 .7 2.4-.2 3.3-.8 1.2-2.4 1.6-3.7.8-1.1-.6-2.4-.6-3.6-.2-2.1.7-4.1 1.7-5.9 2.8-.8.5-1.7 1.1-2.4 1.7-.5.4-1 .9-1.4 1.3-.7.5-1.3 1.1-1.8 1.7-.2.3-.5.6-.7.9s-.6.7-.9 1.1c-.5.6-1.6 2.1-2.1 2.7" fill="#ab9707"/><path d="m524.4 273.9c-10.8-.4-16.9 6-21.6 14.6-.9 1.7-1.6 3.5-2 5.4-.3 1.5-2.4 1.8-2.4 1.8s-4.1.5-5.7-.2c-1.8-.8-1.9-4-1.9-4-.7-5.5-6.4-15.1-13.7-18.9-10.5-5.5-21.9.2-23.8 12-.3 1.8-.4 5.5-.4 5.5l.1 2.3-5.8-.3c-.1-3.7 0-7.3.4-11 1.2-10.9 12.4-18.8 23.7-17.1 3.9.5 7.7 1.8 11 3.9 2.2 1.4 4.5 2.6 6.7 4 8 4.7 15.7 3.8 23.4-.7 1.8-1.1 3.5-2.4 5.2-3.5 3-1.8 4.5-1.3 5.8 1.9.7 1.3 1.1 2.8 1 4.3z" fill="#fbeed4"/><path d="m501.5 332c-8.5 2.7-15.3 1.1-21.3-4-.8-.7-1.8-1.5-.7-2.7s1.8 0 2.6.6c7.5 6 15.6 6.4 23.7 1 .9-.6 1.9-1.5 2.7-.2s-.4 1.9-1.3 2.5c-1.7 1.3-3.6 2.2-5.7 2.8z" fill="#2d2d2d"/><path d="m461.9 306.3c-3.5-4.6-7.8-14.3-5.6-22.8 2.3-8.9 10.6-12.6 19-8.7 10.8 5 16.9 19.5 12.8 30.5-2.5 6.8-9.3 10.2-15.7 8-4.2-1-7.9-3.5-10.5-7z" fill="#f7da9f"/><path d="m470.9 283.6c2.7-.1 5.4.4 7.8 1.5.6.3 1.4.6 1 1.5-.2.7-1 1-1.6.8-.1 0-.2-.1-.3-.1-4.7-2.2-10.2-1.6-14.3 1.5-.7.5-1.4.6-1.9-.3s.2-1.3.7-1.6c2.5-2 5.5-3.1 8.6-3.3z" fill="#2d2d2d"/><path d="m473.5 300.8c-1.1.2-2.2-.3-2.9-1.2-.8-1.2-1.3-2.5-2.7-3.1-.4-.1-.6-.5-.5-.9 0-.1.1-.2.2-.3.5-.5 1-.4 1.6 0 1.8 1.1 3.9 1.7 6 1.6.9-.1 1.8-.3 2.7-.4.7-.1 1.6-.6 1.9.5.2.8-.7 1.2-1.3 1.3-1.3.1-2.4.8-3.1 1.9-.3.4-1.1.7-1.9.6z" fill="#2d2d2d"/><path d="m519.5 298.8c.3 0 .5-.1.8-.1.5-.1 1-.4 1.3.2s-.2 1-.8 1.3l-1 .4c-.7-.1-1.1.3-1.5.8-.9 1.2-2.6 1.5-3.9.5-.4-.3-.6-.6-.8-1-.3-.8-.9-1.4-1.6-1.8-.4-.2-1-.6-.7-1.1s1.1-.4 1.7-.1c2 1.1 4.3 1.4 6.5.9z" fill="#2d2d2d"/><path d="m521 288c.5.1 1 .3 1.5.5.6.3 1.2.6 1.7 1 .8.6 2.4.9 1.5 2.3s-1.8.1-2.7-.3c-.7-.4-1.4-.7-2.1-.9-2.4-.8-5-.8-7.4 0-.7.2-1.5.6-1.9-.4s.3-1.4 1.2-1.8c2.7-1 5.5-1.1 8.2-.4z" fill="#2d2d2d"/><path d="m0 391.8h139.9v139.9h-139.9z" fill="#4a00ff"/><path d="m69.3 409.1c8.4 1.2 24 8.8 31.4 13 11.1 6.3 11 18.1 9.3 29.5-.2 1.3-.8 3.6-.9 5-1.4.3-3.2-1.1-4.3-2-.7-1.4-.9-2.9-1.5-4.3-1-2.2-1.1-2.7-3.3-1.6-1.1.6-2.1 1.3-3.1 2.1-4.8 3.4-10 5.5-16 5.5-4.3 0-8-1.8-11.6-3.8-2.4-1.4-4.8-2.8-7.2-4.2-7.2-4-18-4.8-25.6 1.7-4.8 4.1-6.5 9.5-6.9 15.4-.1 1.7 0 3.4 0 5 0 1 .1 10.6-.9 11.3-2.4.6-4.5.6-6-1.4-4.3-5.9-1.6-22.5-.4-29.7.6-3.6.6-3.6-3.2-3.1-3 .5-5.8 1.5-8.5 2.8.4-2.9 1.3-5.7 2.8-8.2 3-5.7 7.6-10.4 13.1-13.6.8-.5 2.1-.8 2.1-1.9s-1.3-1.4-2.2-1.9c-2.3-1.3-4.6-2.6-7.5-4.2 12.1-3.6 23.7-7 35.9-7.4-.8-1.9-2.7-3-4.4-4.9.1 0 14.3.2 18.9.9z" fill="#a194fa"/><path d="m105.1 494.2c-.2 6.2-7 16.1-10.7 19.2-2.6 2.4-5.6 4.3-8.8 5.7-6.9 2.7-18 3.3-26 .9s-20.3-9.5-25.6-14.9c-8.1-8.1-8.4-14.5-9.4-23.1 1.9-.7 2.5-2.1 2.4-3.9-.1-2.1.9-3.1 3-3 4.2.1 4.3 0 5.7 4.2 1 3 3.1 5.4 4 8.3l12.1 8.5c1.1 0 2.2.1 3.3.2 8.1.6 14-3.6 16-11.5.2-.6.2-1.3.4-2 .4-1.5 0-3.5 1.6-4.3 2-.9 4.3-.6 6.5-.2 1.2.2 1.4 1.4 1.4 2.4 0 2.2.2 4.4.7 6.5 1.5 6.7 5.7 10.4 12.6 11.1.4 0 .8.1 1.2.2z" fill="#ffa300"/><path d="m46.9 495.2c-3.1-1.8-5.8-4.3-7.6-7.3-2-3.3-3.7-6.9-5-10.5-.4-1.2-4.2-1.6-4.2-1.6l-9.2-.3-2.1-.2c-.7-.1-1.9.2-1.8-1.5.1-1.5.9-1.5 1.9-1.4l8.6.6c1.7.1 3.4 0 5-.3-.4-4.4.4-8.8 2.3-12.9 4.3-9 13.7-10.9 21.7-7.4 8.8 3.9 13.6 11.1 15.9 20.3.4 1.5 2.7 3.2 2.7 3.2 4.4.1 4.8.1 5.8-2.7 2.5-6.9 6.5-12.7 12.9-16.6 2.4-1.5 5.2-2.4 8.1-2.5 1-.2 2 0 2.9.6 1.2.1 2.4.5 3.5 1 5.9 3.1 8.2 8.3 8.4 14.7.2 9.5-3.4 17.4-10.4 23.8-.5.5-1 .9-1.4 1.4-2.3 2.8-5.9 4.2-9.5 3.7-10.8.3-15.1-8.5-15.2-16.6 0-3.6 0-3.6-3.5-3.6-3.9 0-3.8 0-4.5 4-1.2 6.6-4.3 11.8-11.1 13.8-3.1.6-10.7.5-14.2-1.7z" fill="#fff"/><ellipse cx="98.6" cy="476.7" fill="#b5591c" rx="20.6" ry="14.2" transform="matrix(.4217 -.9067 .9067 .4217 -375.2717 365.0916)"/><path d="m69.5 391.1c-.9 2.5-1.5 5.1-1.9 7.8l-1.1 10.5c-.3 8.8.4 17.5 2 26.1.4 1.9 1.3 3.8 1.8 5.7.4 1 .3 2.2-.2 3.1-.4.6-1.1.8-1.8.6-.8-.2-1.3-.8-1.4-1.6-.4-2.8-1-5.5-1.4-8.3-1.5-8.6-2-17.3-1.6-26.1.2-4.5.6-9 1.4-13.5.2-1.1.4-3.5.5-4.6" fill="#413e68"/><path d="m65.8 391c0-.2.4-1.7.4-1.9.2-.5.3-1 .5-1.5.3-.8.6-1.6.9-2.4.4-.8.7-1.6 1-2.4.3-.7.6-1.4 1-2.1s1-1.5 1.5-2.2c.2-.3.4-.6.6-.9 2.5-3.7 5.8-6.8 9.7-9 1.2-.6 2.3-1.4 3.4-2.2 1.2-1.2 3.1-1.3 4.4-.2 1.1.8 1.5 2.4.9 3.6-.5 1.6-2.1 2.5-3.7 2h-.1c-1.4-.3-2.9.1-4 1-2 1.5-3.9 3.1-5.6 5-.8.8-1.5 1.7-2.1 2.6-.9 1.5-1.7 2.9-2.6 4.4-.2.4-.3.8-.5 1.2s-.4 1-.6 1.5c-.3.8-1.1 2.9-1.4 3.7" fill="#413e68"/><path d="m99.5 400.1c-1.4 1.9-2.5 3.9-3.5 6.1l-3.4 8.6c-2.4 7.3-3.9 14.8-4.7 22.4-.2 1.7.2 3.5.1 5.2.1 1-.3 1.9-1 2.6-.5.4-1.1.4-1.6.1-.6-.3-.9-1-.8-1.7.3-2.4.5-4.9.8-7.3.9-7.6 2.5-15 5-22.2 1.2-3.8 2.7-7.4 4.4-11 .4-.9 1.2-2.8 1.5-3.7" fill="#413e68"/><path d="m96.4 399.1c.1-.2.7-1.4.8-1.5.3-.4.5-.8.8-1.1.4-.6.9-1.2 1.4-1.8.5-.5 1-1.1 1.4-1.8.4-.5.9-1 1.4-1.5s1.2-1 1.8-1.5l.7-.6c3-2.5 6.5-4.3 10.3-5.2 1.1-.3 2.3-.6 3.4-1 1.3-.7 2.9-.3 3.8.9.7 1 .7 2.4-.1 3.3-.8 1.2-2.4 1.6-3.7.8-1.1-.6-2.4-.6-3.6-.1-2.1.7-4.1 1.7-5.9 2.8-.9.5-1.7 1.1-2.4 1.7-1.1 1-2.2 2-3.2 3-.2.3-.5.6-.7.9-.3.4-.6.7-.9 1.1-.5.6-1.6 2.1-2.1 2.7" fill="#413e68"/><path d="m104.9 454.5c-10.8-.4-16.9 6.1-21.6 14.6-.9 1.7-1.6 3.5-2 5.4-.4 1.5-2.4 1.8-2.4 1.8s-4.1.5-5.7-.2c-1.8-.8-1.9-4-1.9-4-.7-5.5-6.4-15.1-13.7-18.9-10.5-5.5-21.9.2-23.8 12-.3 1.8-.4 5.5-.4 5.5l.1 2.3-5.8-.3c-.1-3.7 0-7.3.4-11 1.2-10.9 12.4-18.8 23.7-17.1 3.9.5 7.7 1.9 11 3.9 2.2 1.4 4.5 2.6 6.8 4 7.9 4.7 15.7 3.8 23.4-.8 1.8-1.1 3.4-2.4 5.2-3.5 3-1.8 4.5-1.3 5.8 2 .6 1.3.9 2.8.9 4.3z" fill="#ffa300"/><path d="m82 512.6c-8.5 2.7-15.3 1.1-21.3-4.1-.8-.7-1.8-1.5-.7-2.7s1.8 0 2.6.6c7.5 6 15.6 6.4 23.7 1 .9-.6 1.9-1.5 2.7-.2s-.4 1.9-1.3 2.5c-1.8 1.3-3.7 2.3-5.7 2.9z" fill="#fff"/><path d="m42.4 486.9c-3.5-4.6-7.8-14.3-5.6-22.8 2.3-8.9 10.6-12.6 19-8.7 10.8 5 16.9 19.5 12.8 30.5-2.5 6.8-9.3 10.2-15.7 8-4.2-1.1-7.9-3.5-10.5-7z" fill="#b5591c"/><path d="m51.4 464.2c2.7-.1 5.4.4 7.8 1.5.6.3 1.4.6 1 1.5-.2.7-1 1-1.6.8-.1 0-.2-.1-.3-.1-4.7-2.2-10.2-1.6-14.3 1.5-.7.5-1.4.6-1.9-.3s.2-1.3.7-1.6c2.5-2 5.5-3.1 8.6-3.3z" fill="#fff"/><path d="m54 481.3c-1.1.2-2.2-.3-2.9-1.2-.8-1.2-1.3-2.5-2.7-3.1-.4-.1-.6-.5-.5-.9 0-.1.1-.2.2-.3.5-.5 1-.3 1.6 0 1.8 1.1 3.9 1.7 6 1.6.9-.1 1.8-.3 2.7-.4.7-.1 1.6-.6 1.9.5.2.8-.7 1.2-1.3 1.3-1.3.1-2.4.8-3.1 1.9-.4.5-1.2.8-1.9.6z" fill="#fff"/><path d="m100 479.4c.3 0 .5-.1.8-.1.5-.1 1-.4 1.3.2s-.2 1-.8 1.2c-.3.1-.6.3-.9.4-.7-.1-1.1.4-1.5.9-.9 1.2-2.6 1.5-3.9.5-.4-.3-.6-.6-.8-1-.3-.8-.9-1.4-1.6-1.8-.4-.2-1-.6-.7-1.1s1.1-.4 1.7-.1c1.9 1 4.2 1.4 6.4.9z" fill="#fff"/><path d="m101.5 468.5c.5.1 1 .3 1.5.5.6.3 1.2.6 1.7 1 .8.6 2.4.9 1.6 2.3s-1.8.1-2.7-.3c-.7-.4-1.4-.7-2.1-.9-2.4-.8-5-.8-7.4 0-.7.2-1.5.6-1.9-.4s.3-1.4 1.2-1.8c2.5-.9 5.4-1.1 8.1-.4z" fill="#fff"/><path d="m139.9 391.8h139.9v139.9h-139.9z" fill="#494032"/><path d="m209.2 409.1c8.4 1.2 24 8.8 31.4 13 11.1 6.3 11 18.1 9.3 29.5-.2 1.3-.8 3.6-.9 5-1.4.3-3.2-1.1-4.3-2-.7-1.4-.9-2.9-1.5-4.3-1-2.2-1.1-2.7-3.3-1.6-1.1.6-2.1 1.3-3.1 2.1-4.8 3.4-10 5.5-16 5.5-4.3 0-8-1.8-11.6-3.8-2.4-1.4-4.8-2.8-7.2-4.2-7.2-4-18-4.8-25.6 1.7-4.8 4.1-6.5 9.5-6.9 15.4-.1 1.7 0 3.4 0 5 0 1 .1 10.6-.9 11.3-2.4.6-4.5.6-6-1.4-4.3-5.9-1.6-22.5-.4-29.7.6-3.6.6-3.6-3.1-3.1-3 .5-5.8 1.5-8.5 2.8.4-2.9 1.3-5.7 2.8-8.2 3-5.7 7.6-10.4 13.1-13.6.9-.5 2.1-.8 2.1-1.9s-1.4-1.4-2.2-1.9c-2.3-1.3-4.6-2.6-7.5-4.2 12.1-3.6 23.7-7 35.9-7.4-.8-1.9-2.7-3-4.4-4.9 0 0 14.1.2 18.8.9z" fill="#07e56b"/><path d="m244.9 494.2c-.2 6.2-7 16.1-10.7 19.2-2.6 2.4-5.6 4.3-8.8 5.7-6.9 2.7-18 3.3-26 .9s-20.3-9.5-25.6-14.9c-8.1-8.1-8.4-14.5-9.4-23.1 1.9-.7 2.5-2.1 2.4-3.9-.1-2.1.9-3.1 3-3 4.2.1 4.4 0 5.7 4.2 1 3 3.1 5.4 4 8.3l12 8.5c1.1 0 2.2.1 3.3.2 8.1.6 14-3.6 16-11.5.2-.6.2-1.3.4-2 .4-1.5 0-3.5 1.6-4.3 2-.9 4.3-.6 6.5-.2 1.2.2 1.4 1.4 1.4 2.4 0 2.2.2 4.4.7 6.5 1.5 6.7 5.7 10.4 12.5 11.1.4 0 .8.1 1.2.2z" fill="#27faff"/><path d="m186.8 495.2c-3.1-1.8-5.8-4.3-7.6-7.3-2-3.3-3.7-6.9-5-10.5-.4-1.2-4.2-1.6-4.2-1.6l-9.1-.3-2.1-.2c-.7-.1-1.9.2-1.8-1.5.1-1.5.9-1.5 1.9-1.4l8.6.6c1.7.1 3.4 0 5-.3-.4-4.4.4-8.8 2.3-12.9 4.3-9 13.7-10.9 21.6-7.4 8.8 3.9 13.6 11.1 15.9 20.3.4 1.5 2.7 3.2 2.7 3.2 4.4.1 4.8.1 5.8-2.7 2.5-6.9 6.5-12.7 12.9-16.6 2.4-1.5 5.2-2.4 8.1-2.5 1-.2 2 0 2.9.6 1.2.1 2.4.5 3.5 1 5.9 3.1 8.2 8.3 8.4 14.7.2 9.5-3.4 17.4-10.4 23.8-.5.5-1 .9-1.5 1.4-2.3 2.8-5.9 4.2-9.5 3.7-10.8.3-15.1-8.5-15.2-16.6 0-3.6 0-3.6-3.5-3.6-3.9 0-3.8 0-4.5 4-1.2 6.6-4.3 11.8-11.1 13.8-3.1.6-10.6.5-14.1-1.7z" fill="#111"/><ellipse cx="238.4" cy="476.7" fill="#bbd6c7" rx="20.6" ry="14.2" transform="matrix(.4217 -.9067 .9067 .4217 -294.3928 491.9016)"/><path d="m209.3 391.1c-.9 2.5-1.5 5.1-1.9 7.8l-1 10.5c-.3 8.8.4 17.5 2 26.1.4 1.9 1.3 3.8 1.8 5.7.4 1 .3 2.2-.2 3.1-.4.6-1.1.8-1.8.6-.8-.2-1.3-.8-1.4-1.6-.4-2.8-1-5.5-1.4-8.3-1.5-8.6-2-17.3-1.6-26.1.2-4.5.6-9 1.4-13.5.2-1.1.4-3.5.5-4.6" fill="#067031"/><path d="m205.7 391c0-.2.4-1.7.4-1.9.2-.5.3-1 .5-1.5.3-.8.6-1.6.9-2.4.4-.8.7-1.6 1-2.4.3-.7.6-1.4 1-2.1s1-1.5 1.5-2.2c.2-.3.4-.6.5-.9 2.5-3.7 5.8-6.8 9.7-9 1.2-.6 2.3-1.4 3.4-2.2 1.2-1.2 3.1-1.3 4.4-.2 1.1.8 1.5 2.4.9 3.6-.5 1.6-2.2 2.5-3.8 2-1.4-.3-2.9.1-4 1-2 1.5-3.9 3.1-5.6 5-.8.8-1.5 1.7-2.1 2.6-.9 1.5-1.7 2.9-2.6 4.4-.2.4-.3.8-.5 1.2s-.4 1-.6 1.5c-.3.8-1.1 2.9-1.4 3.7" fill="#067031"/><path d="m239.4 400.1c-1.4 1.9-2.5 3.9-3.5 6.1l-3.5 8.6c-2.4 7.3-3.9 14.8-4.7 22.4-.2 1.7.1 3.5.1 5.2.1 1-.3 1.9-1 2.6-.5.4-1.1.4-1.6.1-.6-.4-.9-1-.8-1.7.3-2.4.5-4.9.8-7.3.9-7.6 2.5-15 5-22.2 1.2-3.8 2.7-7.4 4.4-11 .4-.9 1.2-2.8 1.5-3.7" fill="#067031"/><path d="m236.3 399.1c.1-.2.7-1.4.8-1.5.3-.4.5-.8.8-1.1.4-.6.9-1.2 1.4-1.8.5-.5 1-1.1 1.4-1.8.4-.5.9-1 1.4-1.5s1.2-1 1.8-1.5l.7-.6c3-2.5 6.5-4.3 10.3-5.2 1.1-.3 2.3-.6 3.4-1 1.3-.7 2.9-.3 3.7.9.8 1 .7 2.4-.1 3.3-.8 1.2-2.5 1.6-3.7.8-1.1-.6-2.4-.6-3.6-.1-2.1.7-4.1 1.7-5.9 2.8-.8.5-1.7 1.1-2.4 1.7-.5.4-1 .9-1.4 1.3-.7.5-1.3 1.1-1.8 1.7-.2.3-.5.6-.7.9-.3.4-.6.7-.9 1.1-.5.6-1.6 2.1-2.1 2.7" fill="#067031"/><path d="m244.7 454.5c-10.8-.4-16.9 6.1-21.6 14.6-.9 1.7-1.6 3.5-2 5.4-.4 1.5-2.4 1.8-2.4 1.8s-4.1.5-5.7-.2c-1.9-.8-1.9-4-1.9-4-.7-5.5-6.4-15.1-13.7-18.9-10.5-5.5-21.9.2-23.8 12-.2 1.8-.4 3.7-.4 5.5l.1 2.3-5.7-.3c-.1-3.7 0-7.3.4-11 1.2-10.9 12.4-18.8 23.7-17.1 3.9.5 7.7 1.9 11 3.9 2.2 1.4 4.5 2.6 6.7 4 8 4.7 15.7 3.8 23.4-.8 1.8-1.1 3.5-2.4 5.2-3.5 3-1.8 4.5-1.3 5.8 2 .6 1.3 1 2.8.9 4.3z" fill="#27faff"/><path d="m221.8 512.6c-8.5 2.7-15.3 1.1-21.3-4.1-.8-.7-1.8-1.5-.7-2.7s1.8 0 2.6.6c7.5 6 15.6 6.4 23.7 1 .9-.6 1.9-1.5 2.7-.2s-.4 1.9-1.3 2.5c-1.7 1.3-3.6 2.3-5.7 2.9z" fill="#795d81"/><path d="m182.2 486.9c-3.5-4.6-7.8-14.3-5.6-22.8 2.4-8.9 10.6-12.6 19-8.7 10.8 5 16.9 19.5 12.8 30.5-2.5 6.8-9.3 10.2-15.7 8-4.2-1.1-7.9-3.6-10.5-7z" fill="#bbd6c7"/><path d="m191.2 464.2c2.7-.1 5.4.4 7.8 1.5.6.3 1.4.6 1 1.5-.2.7-1 1-1.6.8-.1 0-.2-.1-.3-.1-4.7-2.2-10.2-1.6-14.3 1.5-.7.5-1.4.6-2-.3s.2-1.3.7-1.6c2.6-2 5.6-3.1 8.7-3.3z" fill="#795d81"/><path d="m193.8 481.3c-1.1.2-2.2-.3-2.9-1.2-.8-1.2-1.3-2.5-2.7-3.1-.4-.1-.6-.5-.5-.9 0-.1.1-.2.2-.3.5-.5 1-.3 1.6 0 1.8 1.1 3.9 1.7 6 1.6.9-.1 1.8-.3 2.7-.4.7-.1 1.6-.6 1.9.5.2.8-.7 1.2-1.3 1.3-1.3.1-2.4.8-3.1 1.9-.3.5-1.1.8-1.9.6z" fill="#795d81"/><path d="m239.8 479.4c.3 0 .5-.1.8-.1.5-.1 1-.4 1.3.2s-.2 1-.8 1.2c-.3.1-.6.3-1 .4-.7-.1-1.1.4-1.5.9-.9 1.2-2.6 1.5-3.8.6-.4-.3-.6-.6-.8-1-.3-.8-.9-1.4-1.6-1.8-.4-.2-1-.6-.7-1.1s1.1-.4 1.7-.1c1.9.9 4.2 1.3 6.4.8z" fill="#795d81"/><path d="m241.3 468.5c.5.1 1 .3 1.5.5.6.3 1.2.6 1.7 1 .8.6 2.4.9 1.5 2.3s-1.8.1-2.7-.3c-.7-.4-1.4-.7-2.1-.9-2.4-.8-5-.8-7.4 0-.7.2-1.5.6-1.9-.4s.3-1.4 1.2-1.8c2.6-.9 5.5-1.1 8.2-.4z" fill="#795d81"/><path d="m279.7 391.8h139.9v139.9h-139.9z" fill="#ff03ff"/><path d="m349 409.1c8.4 1.2 24 8.8 31.4 13 11.1 6.3 11 18.1 9.3 29.5-.2 1.3-.8 3.6-.9 5-1.4.3-3.2-1.1-4.3-2-.7-1.4-.9-2.9-1.5-4.3-1-2.2-1.1-2.7-3.3-1.6-1.1.6-2.1 1.3-3.1 2.1-4.8 3.4-10 5.5-16 5.5-4.3 0-8-1.8-11.6-3.8-2.4-1.4-4.8-2.8-7.2-4.2-7.2-4-18-4.8-25.6 1.7-4.8 4.1-6.5 9.5-6.9 15.4-.1 1.7 0 3.4 0 5 0 1 .1 10.6-.9 11.3-2.4.6-4.5.6-6-1.4-4.3-5.9-1.5-22.5-.4-29.7.6-3.6.5-3.6-3.2-3.1-3 .5-5.8 1.5-8.5 2.8.4-2.9 1.3-5.7 2.8-8.2 3-5.7 7.6-10.4 13.1-13.6.9-.5 2.1-.8 2.1-1.9s-1.4-1.4-2.2-1.9c-2.3-1.3-4.6-2.6-7.5-4.2 12.1-3.6 23.7-7 35.9-7.4-.8-1.9-2.7-3-4.4-4.9.1 0 14.3.2 18.9.9z" fill="#aa8bff"/><path d="m384.8 494.2c-.2 6.2-7 16.1-10.7 19.2-2.6 2.4-5.6 4.3-8.8 5.7-6.9 2.7-18 3.3-26 .9s-20.3-9.5-25.6-14.9c-8.1-8.1-8.4-14.5-9.4-23.1 1.9-.7 2.5-2.1 2.4-3.9-.1-2.1.9-3.1 3-3 4.2.1 4.3 0 5.7 4.2 1 3 3.1 5.4 4 8.3l12.1 8.5c1.1 0 2.2.1 3.3.2 8.1.6 14-3.6 16-11.5.2-.6.2-1.3.4-2 .4-1.5 0-3.5 1.6-4.3 2-.9 4.3-.6 6.5-.2 1.2.2 1.4 1.4 1.4 2.4 0 2.2.2 4.4.7 6.5 1.5 6.7 5.7 10.4 12.5 11.1.4 0 .8.1 1.2.2z" fill="#441ab2"/><path d="m326.6 495.2c-3.1-1.8-5.8-4.3-7.6-7.3-2-3.3-3.7-6.9-5-10.5-.4-1.2-4.2-1.6-4.2-1.6l-9.2-.3-2.1-.2c-.7-.1-1.9.2-1.8-1.5.1-1.5.9-1.5 1.9-1.4l8.6.6c1.7.1 3.4 0 5-.3-.4-4.4.4-8.8 2.3-12.9 4.3-9 13.7-10.9 21.6-7.4 8.8 3.9 13.6 11.1 15.9 20.3.4 1.5 2.7 3.2 2.7 3.2 4.4.1 4.8.1 5.8-2.7 2.5-6.9 6.5-12.7 12.9-16.6 2.4-1.5 5.2-2.4 8.1-2.5 1-.2 2 0 2.9.6 1.2.1 2.4.5 3.5 1 5.9 3.1 8.2 8.3 8.4 14.7.2 9.5-3.4 17.4-10.4 23.8-.5.5-1 .9-1.5 1.4-2.3 2.8-5.9 4.2-9.5 3.7-10.8.3-15.1-8.5-15.2-16.6 0-3.6 0-3.6-3.5-3.6-3.9 0-3.8 0-4.5 4-1.2 6.6-4.3 11.8-11 13.8-3 .6-10.6.5-14.1-1.7z" fill="#111"/><ellipse cx="378.3" cy="476.7" fill="#ffd58b" rx="20.6" ry="14.2" transform="matrix(.4217 -.9067 .9067 .4217 -213.5139 618.7115)"/><path d="m349.2 391.1c-.9 2.5-1.5 5.1-1.9 7.8-.4 3.5-.7 7-1.1 10.5-.3 8.8.4 17.5 2 26.1.4 1.9 1.3 3.8 1.8 5.7.4 1 .3 2.2-.2 3.1-.4.6-1.1.9-1.8.6-.7-.2-1.3-.8-1.4-1.6-.5-2.8-1-5.5-1.4-8.3-1.5-8.6-2-17.3-1.6-26.1.2-4.5.6-9 1.4-13.5.2-1.1.4-3.5.5-4.6" fill="#b27b1a"/><path d="m345.5 391c0-.2.4-1.7.4-1.9.2-.5.3-1 .5-1.5.3-.8.6-1.6.9-2.4.4-.8.7-1.6 1-2.4.3-.7.6-1.4 1-2.1s1-1.5 1.5-2.2c.2-.3.4-.6.6-.9 2.5-3.7 5.8-6.8 9.7-9 1.2-.6 2.3-1.4 3.4-2.2 1.2-1.2 3.1-1.3 4.4-.2 1.1.8 1.5 2.4.9 3.6-.5 1.6-2.2 2.5-3.8 2-1.4-.3-2.9.1-4 1-2 1.5-3.9 3.1-5.6 5-.8.8-1.5 1.7-2.1 2.6-.4.6-.8 1.3-1.1 1.9-.6.8-1 1.6-1.4 2.4-.2.4-.3.8-.5 1.2s-.4 1-.6 1.5c-.3.8-1.1 2.9-1.4 3.7" fill="#b27b1a"/><path d="m379.2 400.1c-1.4 1.9-2.5 3.9-3.5 6.1l-3.5 8.6c-2.4 7.3-3.9 14.8-4.7 22.4-.2 1.7.1 3.5.1 5.2.1 1-.3 1.9-1 2.6-.5.4-1.1.4-1.6.1-.6-.4-.9-1-.8-1.7.3-2.4.5-4.9.8-7.3.9-7.6 2.5-15 5-22.2 1.2-3.8 2.7-7.4 4.4-11 .4-.9 1.2-2.8 1.5-3.7" fill="#b27b1a"/><path d="m376.1 399.1c.1-.2.7-1.4.8-1.5.3-.4.5-.8.8-1.1.4-.6.9-1.2 1.4-1.8.5-.5 1-1.1 1.4-1.8.4-.5.9-1 1.4-1.5s1.2-1 1.8-1.5l.7-.6c3-2.5 6.5-4.3 10.3-5.2 1.1-.3 2.3-.6 3.4-1 1.3-.7 2.9-.3 3.8.9.7 1 .7 2.4-.1 3.3-.8 1.2-2.4 1.6-3.7.8-1.1-.6-2.4-.6-3.6-.1-2.1.7-4.1 1.7-5.9 2.8-.8.5-1.7 1.1-2.4 1.7-.5.4-1 .9-1.4 1.3-.7.5-1.3 1.1-1.8 1.7-.2.3-.5.6-.7.9s-.6.7-.9 1.1c-.5.6-1.6 2.1-2.1 2.7" fill="#b27b1a"/><path d="m384.6 454.5c-10.8-.4-16.9 6.1-21.6 14.6-.9 1.7-1.6 3.5-2 5.4-.4 1.5-2.5 1.8-2.5 1.8s-4.1.5-5.7-.2c-1.8-.8-1.9-4-1.9-4-.7-5.5-6.4-15.1-13.7-18.9-10.5-5.5-21.9.2-23.8 12-.3 1.8-.4 5.5-.4 5.5l.1 2.3-5.8-.3c-.1-3.7 0-7.3.4-11 1.2-10.9 12.4-18.8 23.7-17.1 3.9.5 7.7 1.9 11 3.9 2.2 1.4 4.5 2.6 6.7 4 8 4.7 15.7 3.8 23.4-.8 1.8-1.1 3.4-2.4 5.2-3.5 3-1.8 4.5-1.3 5.8 2 .8 1.3 1.1 2.8 1.1 4.3z" fill="#441ab2"/><path d="m361.7 512.6c-8.5 2.7-15.3 1.1-21.3-4.1-.9-.7-1.9-1.5-.7-2.7s1.8 0 2.6.6c7.5 6 15.6 6.4 23.7 1 .9-.6 1.9-1.5 2.7-.2s-.4 1.9-1.3 2.5c-1.8 1.3-3.7 2.3-5.7 2.9z" fill="#ff03ff"/><path d="m322.1 486.9c-3.5-4.6-7.8-14.3-5.6-22.8 2.3-8.9 10.6-12.6 19-8.7 10.8 5 16.9 19.5 12.8 30.5-2.5 6.8-9.3 10.2-15.7 8-4.2-1.1-7.9-3.6-10.5-7z" fill="#ffd58b"/><path d="m331.1 464.2c2.7-.1 5.4.4 7.8 1.5.6.3 1.4.6 1 1.5-.2.7-1 1-1.6.8-.1 0-.2-.1-.3-.1-4.7-2.2-10.2-1.6-14.3 1.5-.7.5-1.4.6-1.9-.3s.2-1.3.7-1.6c2.5-2 5.5-3.1 8.6-3.3z" fill="#ff03ff"/><path d="m333.7 481.3c-1.1.2-2.2-.3-2.9-1.2-.8-1.2-1.3-2.5-2.7-3.1-.4-.1-.6-.5-.5-.9 0-.1.1-.2.2-.3.5-.5 1.1-.3 1.6 0 1.8 1.1 3.9 1.7 6 1.6.9-.1 1.8-.3 2.7-.4.7-.1 1.6-.6 1.9.5.2.8-.7 1.2-1.3 1.3-1.3.1-2.4.8-3.1 1.9-.4.5-1.1.8-1.9.6z" fill="#ff03ff"/><path d="m379.7 479.4c.3 0 .5-.1.8-.1.5-.1 1-.4 1.3.2s-.2 1-.8 1.2c-.3.1-.6.3-1 .4-.7-.1-1.1.4-1.5.9-.9 1.2-2.6 1.5-3.8.6-.4-.3-.6-.6-.8-1-.3-.8-.9-1.4-1.6-1.8-.4-.2-1-.6-.7-1.1s1.1-.4 1.7-.1c1.9.9 4.2 1.3 6.4.8z" fill="#ff03ff"/><path d="m381.2 468.5c.5.1 1 .3 1.5.5.6.3 1.2.6 1.7 1 .8.6 2.4.9 1.5 2.3s-1.8.1-2.7-.3c-.7-.4-1.4-.7-2.1-.9-2.4-.8-5-.8-7.4 0-.7.2-1.5.6-1.9-.4s.3-1.4 1.2-1.8c2.6-.9 5.5-1.1 8.2-.4z" fill="#ff03ff"/><path d="m419.6 391.8h139.9v139.9h-139.9z" fill="#edff00"/><path d="m488.9 409.1c8.4 1.2 24 8.8 31.4 13 11.1 6.3 11 18.1 9.3 29.5-.2 1.3-.8 3.6-.9 5-1.4.3-3.2-1.1-4.3-2-.7-1.4-.9-2.9-1.5-4.3-1-2.2-1.1-2.7-3.3-1.6-1.1.6-2.1 1.3-3.1 2.1-4.8 3.4-10 5.5-16 5.5-4.3 0-8-1.8-11.6-3.8-2.4-1.4-4.8-2.8-7.2-4.2-7.2-4-18-4.8-25.6 1.7-4.8 4.1-6.5 9.5-6.9 15.4-.1 1.7 0 3.4 0 5 0 1 .1 10.6-.9 11.3-2.4.6-4.5.6-6-1.4-4.3-5.9-1.6-22.5-.4-29.7.6-3.6.6-3.6-3.2-3.1-3 .5-5.8 1.5-8.5 2.8.4-2.9 1.3-5.7 2.9-8.2 3-5.7 7.6-10.4 13.1-13.6.8-.5 2.1-.8 2.1-1.9s-1.3-1.4-2.2-1.9c-2.3-1.3-4.6-2.6-7.5-4.2 12.1-3.6 23.7-7 35.9-7.4-.8-1.9-2.7-3-4.4-4.9 0 0 14.1.2 18.8.9z" fill="#3a3938"/><path d="m524.7 494.2c-.2 6.2-7 16.1-10.7 19.2-2.6 2.4-5.6 4.3-8.8 5.7-6.9 2.7-18 3.3-26 .9s-20.3-9.5-25.6-14.9c-8.1-8.1-8.4-14.5-9.4-23.1 1.9-.7 2.5-2.1 2.4-3.9-.1-2.1.9-3.1 3-3 4.2.1 4.3 0 5.7 4.2 1 3 3.1 5.4 4 8.3l12.1 8.5c1.1 0 2.2.1 3.3.2 8.1.6 14-3.6 16-11.5.2-.6.2-1.3.4-2 .4-1.5 0-3.5 1.6-4.3 2-.9 4.3-.6 6.5-.2 1.2.2 1.4 1.4 1.4 2.4 0 2.2.2 4.4.7 6.5 1.5 6.7 5.7 10.4 12.5 11.1.4 0 .8.1 1.2.2z" fill="#f94b4b"/><path d="m466.5 495.2c-3.1-1.8-5.8-4.3-7.6-7.3-2-3.3-3.7-6.9-5-10.5-.4-1.2-4.2-1.6-4.2-1.6l-9.2-.3-2.1-.2c-.7-.1-1.9.2-1.8-1.5.1-1.5.9-1.5 1.9-1.4l8.6.6c1.7.1 3.4 0 5-.3-.4-4.4.4-8.8 2.3-12.9 4.3-9 13.7-10.9 21.7-7.4 8.8 3.9 13.6 11.1 15.9 20.3.4 1.5 2.7 3.2 2.7 3.2 4.4.1 4.8.1 5.8-2.7 2.5-6.9 6.5-12.7 12.9-16.6 2.4-1.5 5.2-2.4 8.1-2.5 1-.2 2 0 2.9.6 1.2.1 2.4.5 3.5 1 5.9 3.1 8.2 8.3 8.4 14.7.2 9.5-3.4 17.4-10.4 23.8-.5.5-1 .9-1.5 1.4-2.3 2.8-5.9 4.2-9.5 3.7-10.8.3-15.1-8.5-15.2-16.6 0-3.6 0-3.6-3.5-3.6-3.9 0-3.8 0-4.5 4-1.2 6.6-4.3 11.8-11 13.8-3.2.6-10.7.5-14.2-1.7z" fill="#111"/><ellipse cx="518.1" cy="476.7" fill="#062aff" rx="20.6" ry="14.2" transform="matrix(.4217 -.9067 .9067 .4217 -132.6301 745.5109)"/><path d="m489 391.1c-.9 2.5-1.5 5.1-1.9 7.8-.3 3.5-.7 7-1.1 10.5-.3 8.8.4 17.5 2 26.1.4 1.9 1.3 3.8 1.8 5.7.4 1 .3 2.2-.2 3.1-.4.6-1.1.8-1.8.6-.8-.2-1.3-.8-1.4-1.6-.5-2.8-1-5.5-1.4-8.3-1.5-8.6-2-17.3-1.6-26.1.2-4.5.6-9 1.4-13.5.2-1.1.4-3.5.5-4.6" fill="#fff"/><path d="m485.4 391c0-.2.4-1.7.4-1.9.2-.5.3-1 .5-1.5.3-.8.6-1.6.9-2.4.4-.8.7-1.6 1-2.4.3-.7.7-1.4 1-2.1s1-1.5 1.5-2.2l.6-.9c2.5-3.7 5.8-6.8 9.7-9 1.2-.6 2.3-1.4 3.4-2.2 1.2-1.2 3.1-1.3 4.4-.2 1.1.8 1.5 2.4.9 3.6-.5 1.6-2.1 2.5-3.7 2h-.1c-1.4-.3-2.9.1-4 1-2 1.5-3.9 3.1-5.6 5-.8.8-1.5 1.7-2.1 2.6-.4.6-.8 1.3-1.2 1.9-.6.8-1 1.6-1.4 2.4-.2.4-.3.8-.5 1.2s-.4 1-.6 1.5c-.3.8-1.1 2.9-1.4 3.7" fill="#fff"/><path d="m519.1 400.1c-1.4 1.9-2.5 3.9-3.5 6.1l-3.5 8.6c-2.4 7.3-3.9 14.8-4.7 22.4-.2 1.7.2 3.5.1 5.2.1 1-.3 1.9-1 2.6-.5.4-1.1.4-1.6.1-.6-.3-.9-1-.8-1.7.3-2.4.5-4.9.8-7.3.9-7.6 2.5-15 5-22.2 1.2-3.8 2.7-7.4 4.4-11 .4-.9 1.2-2.8 1.5-3.7" fill="#fff"/><path d="m516 399.1c.1-.2.7-1.4.8-1.5.3-.4.5-.8.8-1.1.4-.6.9-1.2 1.4-1.8s1-1.1 1.4-1.8c.4-.5.9-1 1.4-1.5s1.2-1 1.8-1.5l.7-.6c3-2.5 6.5-4.3 10.3-5.2 1.1-.3 2.3-.6 3.4-1 1.3-.7 2.9-.3 3.8.9.7 1 .7 2.4-.2 3.3-.8 1.2-2.4 1.6-3.7.8-1.1-.6-2.4-.6-3.6-.1-2.1.7-4.1 1.7-5.9 2.8-.9.5-1.7 1.1-2.4 1.7-1.1 1-2.2 2-3.2 3-.2.3-.5.6-.7.9-.3.4-.6.7-.9 1.1-.5.6-1.6 2.1-2.1 2.7" fill="#fff"/><path d="m524.4 454.5c-10.8-.4-16.9 6.1-21.6 14.6-.9 1.7-1.6 3.5-2 5.4-.3 1.5-2.4 1.8-2.4 1.8s-4.1.5-5.7-.2c-1.8-.8-1.9-4-1.9-4-.7-5.5-6.4-15.1-13.7-18.9-10.5-5.5-21.9.2-23.8 12-.3 1.8-.4 5.5-.4 5.5l.1 2.3-5.8-.3c-.1-3.7 0-7.3.4-11 1.2-10.9 12.4-18.8 23.7-17.1 3.9.5 7.7 1.9 11 3.9 2.2 1.4 4.5 2.6 6.7 4 8 4.7 15.7 3.8 23.4-.8 1.8-1.1 3.5-2.4 5.2-3.5 3-1.8 4.5-1.3 5.8 2 .7 1.3 1.1 2.8 1 4.3z" fill="#f94b4b"/><path d="m501.5 512.6c-8.5 2.7-15.3 1.1-21.3-4.1-.8-.7-1.8-1.5-.7-2.7s1.8 0 2.6.6c7.5 6 15.6 6.4 23.7 1 .9-.6 1.9-1.5 2.7-.2s-.4 1.9-1.3 2.5c-1.7 1.3-3.6 2.3-5.7 2.9z" fill="#00f9ff"/><path d="m461.9 486.9c-3.5-4.6-7.8-14.3-5.6-22.8 2.3-8.9 10.6-12.6 19-8.7 10.8 5 16.9 19.5 12.8 30.5-2.5 6.8-9.3 10.2-15.7 8-4.2-1.1-7.9-3.5-10.5-7z" fill="#062aff"/><path d="m470.9 464.2c2.7-.1 5.4.4 7.8 1.5.6.3 1.4.6 1 1.5-.2.7-1 1-1.6.8-.1 0-.2-.1-.3-.1-4.7-2.2-10.2-1.6-14.3 1.5-.7.5-1.4.6-1.9-.3s.2-1.3.7-1.6c2.5-2 5.5-3.1 8.6-3.3z" fill="#00f9ff"/><path d="m473.5 481.3c-1.1.2-2.2-.3-2.9-1.2-.8-1.2-1.3-2.5-2.7-3.1-.4-.1-.6-.5-.5-.9 0-.1.1-.2.2-.3.5-.5 1-.3 1.6 0 1.8 1.1 3.9 1.7 6 1.6.9-.1 1.8-.3 2.7-.4.7-.1 1.6-.6 1.9.5.2.8-.7 1.2-1.3 1.3-1.3.1-2.4.8-3.1 1.9-.3.5-1.1.8-1.9.6z" fill="#00f9ff"/><path d="m519.5 479.4c.3 0 .5-.1.8-.1.5-.1 1-.4 1.3.2s-.2 1-.8 1.2c-.3.1-.6.3-1 .4-.7-.1-1.1.4-1.5.9-.9 1.2-2.6 1.5-3.9.5-.4-.3-.6-.6-.8-1-.3-.8-.9-1.4-1.6-1.8-.4-.2-1-.6-.7-1.1s1.1-.4 1.7-.1c2 1 4.3 1.4 6.5.9z" fill="#00f9ff"/><path d="m521 468.5c.5.1 1 .3 1.5.5.6.3 1.2.6 1.7 1 .8.6 2.4.9 1.5 2.3s-1.8.1-2.7-.3c-.7-.4-1.4-.7-2.1-.9-2.4-.8-5-.8-7.4 0-.7.2-1.5.6-1.9-.4s.3-1.4 1.2-1.8c2.7-.9 5.5-1.1 8.2-.4z" fill="#00f9ff"/></svg>