<svg viewBox="0 0 113.2 157.14" xmlns="http://www.w3.org/2000/svg"><g fill="#fff" stroke="#111" stroke-miterlimit="10"><path d="m59.34 44.2c8.41 1.24 24 8.8 31.44 13 11.08 6.25 11 18.1 9.33 29.44-.2 1.33-.76 3.63-.89 5-1.41.31-3.25-1.14-4.32-2-.7-1.36-.89-2.89-1.51-4.27-1-2.2-1.14-2.67-3.32-1.59a25.78 25.78 0 0 0 -3.14 2.12c-4.78 3.37-10 5.51-16 5.48-4.31 0-8-1.82-11.61-3.84-2.43-1.35-4.79-2.82-7.21-4.18-7.21-4-18-4.76-25.61 1.67-4.83 4.09-6.49 9.44-6.91 15.41-.12 1.68 0 3.37 0 5 0 1 .1 10.64-.91 11.32-2.43.56-4.5.58-6-1.44-4.33-5.92-1.56-22.5-.37-29.68.6-3.62.56-3.62-3.16-3.12a31.93 31.93 0 0 0 -8.53 2.88 21.46 21.46 0 0 1 2.85-8.26 34 34 0 0 1 13.13-13.58c.85-.5 2.14-.79 2.1-1.94s-1.35-1.36-2.19-1.85c-2.31-1.34-4.64-2.61-7.48-4.2 12.11-3.65 23.68-7 35.88-7.35-.76-1.86-2.7-3-4.43-4.86.07-.08 14.23.15 18.86.84z"/><path d="m95.14 129.29c-.2 6.16-7 16.12-10.73 19.25a32.46 32.46 0 0 1 -8.8 5.71c-6.94 2.7-18 3.27-26 .86s-20.28-9.58-25.65-15c-8.12-8.11-8.43-14.49-9.43-23.11 1.86-.66 2.47-2.07 2.4-3.92-.08-2.08.9-3.12 3-3 4.24.07 4.34 0 5.66 4.17 1 3 3.12 5.36 4 8.35l12.06 8.54a21.14 21.14 0 0 1 3.27.22c8.08.62 14-3.62 16-11.52.17-.65.25-1.33.41-2 .36-1.51 0-3.54 1.6-4.29 2-.94 4.3-.59 6.46-.21 1.24.21 1.37 1.37 1.37 2.4a30.8 30.8 0 0 0 .69 6.5c1.55 6.76 5.68 10.48 12.55 11.16a8.92 8.92 0 0 1 1.24.21z"/><path d="m37 130.22a21.08 21.08 0 0 1 -7.64-7.34 55.2 55.2 0 0 1 -5-10.53c-.42-1.25-4.19-1.63-4.19-1.63l-9.17-.34s-1.39-.11-2.14-.19-1.86.16-1.77-1.55c.09-1.52.87-1.5 1.94-1.4l8.64.55a17.14 17.14 0 0 0 5-.29 25.49 25.49 0 0 1 2.33-12.84c4.33-9 13.67-10.94 21.65-7.45 8.83 3.87 13.63 11.15 15.89 20.28.38 1.55 2.72 3.2 2.72 3.2 4.43.15 4.84.09 5.84-2.67 2.51-6.92 6.48-12.7 12.91-16.58a17.06 17.06 0 0 1 8.11-2.5 3.87 3.87 0 0 1 2.88.62 9 9 0 0 1 3.46 1c5.94 3.09 8.25 8.33 8.41 14.66.24 9.52-3.41 17.41-10.43 23.79-.49.45-1 .91-1.45 1.37a10.72 10.72 0 0 1 -9.54 3.72c-10.83.3-15.14-8.54-15.18-16.63 0-3.58 0-3.58-3.52-3.58-3.89 0-3.8 0-4.53 4-1.19 6.55-4.3 11.83-11 13.76-3.22.96-10.74.76-14.22-1.43z"/><ellipse cx="88.61" cy="111.82" rx="20.6" ry="14.22" transform="matrix(.42166895 -.90674985 .90674985 .42166895 -50.15 145.02)"/><path d="m59.54 26.19a34.92 34.92 0 0 0 -1.87 7.81l-1.05 10.51a119.94 119.94 0 0 0 2 26.14c.36 1.94 1.28 3.76 1.8 5.68a3.62 3.62 0 0 1 -.24 3.16 1.53 1.53 0 0 1 -1.77.63 1.86 1.86 0 0 1 -1.41-1.6c-.45-2.78-1-5.55-1.44-8.32a120.39 120.39 0 0 1 -1.56-26.07 106 106 0 0 1 1.4-13.41c.17-1.07.4-3.49.47-4.57"/><path d="m55.86 26.1a18.73 18.73 0 0 1 .44-1.94c.18-.49.31-1 .47-1.5a19.83 19.83 0 0 1 .94-2.42 15.89 15.89 0 0 0 1-2.41c.31-.71.65-1.41 1-2.09s1-1.47 1.51-2.23l.55-.9a29.33 29.33 0 0 1 9.67-9 29.3 29.3 0 0 0 3.38-2.16 3.35 3.35 0 0 1 4.39-.25 2.91 2.91 0 0 1 .88 3.64 3 3 0 0 1 -3.73 2 .32.32 0 0 1 -.09 0 4.87 4.87 0 0 0 -4 1 36.15 36.15 0 0 0 -5.62 5 26.72 26.72 0 0 0 -2.14 2.63 12.54 12.54 0 0 0 -1.14 1.93 12.47 12.47 0 0 0 -1.43 2.44c-.17.39-.32.78-.46 1.18s-.39 1-.59 1.49c-.34.81-1.13 2.84-1.41 3.67"/><path d="m89.55 35.11a30.87 30.87 0 0 0 -3.47 6.09l-3.45 8.57a104.8 104.8 0 0 0 -4.63 22.42c-.17 1.71.16 3.47.12 5.21a3.14 3.14 0 0 1 -1 2.59 1.31 1.31 0 0 1 -1.64.09 1.6 1.6 0 0 1 -.77-1.68c.3-2.44.52-4.89.82-7.33a104.91 104.91 0 0 1 5-22.25 89.94 89.94 0 0 1 4.43-11c.4-.85 1.19-2.83 1.51-3.72"/><path d="m86.49 34.14c.08-.16.73-1.37.84-1.52.27-.37.5-.76.76-1.14a14.82 14.82 0 0 1 1.38-1.8 13 13 0 0 0 1.44-1.78c.44-.52.89-1 1.37-1.5s1.22-1 1.81-1.5l.68-.62a25.79 25.79 0 0 1 10.3-5.18 24.89 24.89 0 0 0 3.36-1 2.92 2.92 0 0 1 3.75.86 2.55 2.55 0 0 1 -.15 3.26 2.64 2.64 0 0 1 -3.66.81 4.27 4.27 0 0 0 -3.58-.15 31.21 31.21 0 0 0 -5.93 2.87 24.08 24.08 0 0 0 -2.48 1.63 11.25 11.25 0 0 0 -1.38 1.34 11.09 11.09 0 0 0 -1.79 1.7c-.24.28-.46.57-.67.87s-.57.74-.87 1.11c-.48.59-1.63 2.11-2.07 2.73"/><path d="m94.93 89.56c-10.76-.39-16.93 6.06-21.57 14.63a21.34 21.34 0 0 0 -2 5.39c-.35 1.52-2.44 1.77-2.44 1.77s-4.12.52-5.74-.2c-1.84-.83-1.93-4-1.93-4-.71-5.54-6.41-15.09-13.71-18.87-10.54-5.47-21.86.23-23.81 11.94-.3 1.82-.4 5.5-.4 5.5l.1 2.33-5.75-.32a91.83 91.83 0 0 1 .36-11c1.21-10.86 12.39-18.82 23.73-17.08a28.2 28.2 0 0 1 11.06 3.91c2.2 1.4 4.5 2.64 6.75 4 8 4.67 15.73 3.81 23.37-.75 1.8-1.08 3.45-2.41 5.23-3.52 3-1.83 4.48-1.32 5.79 1.94a10 10 0 0 1 .96 4.33z"/><path d="m72 147.64c-8.54 2.73-15.29 1.08-21.3-4-.84-.72-1.84-1.5-.69-2.66s1.81 0 2.56.59c7.46 6 15.64 6.37 23.68 1 .91-.61 1.88-1.55 2.73-.17s-.44 1.87-1.32 2.5a18.21 18.21 0 0 1 -5.66 2.74z"/><path d="m32.41 122c-3.46-4.65-7.84-14.28-5.6-22.78 2.35-8.94 10.58-12.57 19-8.67 10.77 4.95 16.9 19.45 12.83 30.45-2.54 6.8-9.28 10.25-15.73 8a18.82 18.82 0 0 1 -10.5-7z"/><path d="m41.42 99.25a17.6 17.6 0 0 1 7.8 1.53c.58.27 1.37.59 1 1.46a1.26 1.26 0 0 1 -1.62.76.85.85 0 0 1 -.25-.13 13.78 13.78 0 0 0 -14.28 1.54c-.69.49-1.43.57-1.94-.28s.18-1.26.7-1.64a16 16 0 0 1 8.59-3.24z"/><path d="m44 116.4a2.91 2.91 0 0 1 -2.87-1.23c-.77-1.17-1.26-2.51-2.72-3.11a.72.72 0 0 1 -.24-1.24c.5-.49 1-.34 1.61 0a10.37 10.37 0 0 0 6 1.56c.91-.08 1.81-.3 2.73-.41.68-.08 1.62-.64 1.87.48.19.82-.66 1.21-1.26 1.31a4.28 4.28 0 0 0 -3.1 1.88 2 2 0 0 1 -2.02.76z"/><path d="m90 114.46c.27 0 .54-.09.8-.15.47-.11 1-.38 1.27.23s-.23 1-.77 1.26l-1 .4c-.73-.11-1.07.35-1.51.84a2.74 2.74 0 0 1 -4.68-.46 4.43 4.43 0 0 0 -1.59-1.84c-.39-.22-1-.56-.71-1.1s1.12-.41 1.67-.11a9.33 9.33 0 0 0 6.52.93z"/><path d="m91.51 103.61a8.24 8.24 0 0 1 1.51.54 9.2 9.2 0 0 1 1.68 1c.77.59 2.38.89 1.55 2.3s-1.82.07-2.7-.31a12.43 12.43 0 0 0 -2.09-.9 11.28 11.28 0 0 0 -7.39 0c-.74.22-1.51.61-1.9-.4s.32-1.43 1.18-1.78a13.47 13.47 0 0 1 8.16-.45z"/></g></svg>