<?xml version="1.0" encoding="utf-8"?>
<!-- Generator: Adobe Illustrator 22.0.1, SVG Export Plug-In . SVG Version: 6.00 Build 0)  -->
<svg version="1.1" id="Layer_1" xmlns="http://www.w3.org/2000/svg" xmlns:xlink="http://www.w3.org/1999/xlink" x="0px" y="0px"
	 viewBox="0 0 469.9 634.3" style="enable-background:new 0 0 469.9 634.3;" xml:space="preserve">
<style type="text/css">
	.st0{fill:#FFFFFF;}
	.st1{fill:#292B28;}
	.st2{fill:#150E00;}
</style>
<g id="Layer_2_1_">
	<g>
		<path class="st0" d="M112.2,0c0,0,5.1,82.5,79.4,188.4l4.7,15.1H235v30.1h-31.4c0,0,5,18.1,5,24.7H235v17.8c0,0-23.6,0.4-26.6,6.2
			s-5.2,35.1-5.2,35.1c-1.3,0.6-3.2-13.6-13.9-14.1c-9-0.4-17.3,9.1-29.5,16.9c-16,10.3-64.6,6.6-71.2-0.9s-25.5-9.9-29.7-0.5
			s-25,50.8-24.3,60.1s-10,36-23.4,10.7c0.4,0.1,11.1,48.1,39,55.3c28.7,7.4,112.4-112.7,127.8-114c15.9-1.4,17.4,13.3,17.3,28.7
			c0,0-33.4-20.7-34,50.7c0.2-1.7,9.8,16.9,15.3,17.4c6.5,0.5,23.2-1.2,30.5,1.2c6.1,2,22.6,12.8,27.9,12.2v22.7
			c0,0-17.4-28.5-33.8-26.8s-36.2,2.9-39.7-0.6s-12.1-24.4-14.6-25.1c-0.9-0.2-73.3,80.4-84,77.6c-9.4-2.5-57.3-21.5-62.4-94
			c-1.4-20.5,0-75.1,0-74.3c1.7-0.1,7.2,33,11,36.4c3,2.7,37.2-58.1,26-115.6c-2.1,0.1-13.3-48.5-13.3-62.4s-0.6-90.4-0.6-90.4
			s12-25.9,21-34.8c0,0-7.6,97-2.3,128.1c2.4,14.1,14.9,44.6,15.5,52.7s-0.6,20.2-0.6,20.2l20.8,37c0,0,51.4,19.6,58.4,15
			s47.4-21.4,47.4-21.4L177,261c0,0-23.1-53.2-39.3-75.1S63.7,58.1,74.7,24C74.7,24,77.8,19,112.2,0z"/>
		<path d="M53.8,65.7c0,0-3.3,83.7,54.1,112.6c56,28.1,75.4,30.4,94,76.9L195,146.6l-12.8,32.5C160.1,167.6,59,136.5,53.8,65.7z"/>
		<path d="M171.4,252.1c1.7,12.5,2.7,32.1,2.7,32.1s-21.6,16.1-60.1,13.1s-44.4-38.6-44.4-38.6H62c-3-8.6,8.2-22.4,15.9-32
			c-14.6,4.4-25,0.1-25,0.1l-22.2-21.5c0,0,30.2,78.3,50.2,93.4c21.4,16.2,56.4,19.3,105.1-2.3c3.5-1.6,5.1-4.3,14.6,5.2
			C200.5,301.5,196.6,264.5,171.4,252.1z"/>
		<path class="st0" d="M235,487.9c0,0-9.2-10.5-14.7-12.4c-6.9-2.4-59.6,23.5-58.7,24.3l-6.3,10c0,0,3.7,3.4,5,3.5
			c10.7,0.6,34.4-8.9,42.7-9.1c9.4-0.2,25.2,10.9,31.9,7.9L235,487.9z"/>
		<path class="st1" d="M235,499.3c0,0-52.1-5.8-67-0.5s25.1-14.6,25.1-14.6s-52.5,5.2-58,16.2c-5.6,11.3,6.7,20.2,11.9,19.9
			c7.1-0.5,20-15.5,29.2-17.7c10.3-2.5,52.4-3.5,58.8,1.8L235,499.3z"/>
		<path class="st0" d="M235,569.4c0,0-18.2,3.5-33.9,49c-0.7,2-5.2,6.9-5.2,6.9s-33.4-5-46.1-12.2c0,0,25.4,20,85.2,21.3L235,569.4z
			"/>
		<path class="st2" d="M184.2,420.3c0,0,7.6,1,11.4,1.9s9.5,1.6,10.5,4.1c1,2.4,1.9-3.7,0-4.6s-18-8.7-21.4-6.8
			S182.4,419,184.2,420.3z"/>
		<path class="st0" d="M357.7,0c0,0-5.1,82.5-79.4,188.4l-4.7,15.1h-38.7v30.1h31.4c0,0-5,18.1-5,24.7H235v17.8
			c0,0,23.6,0.4,26.7,6.2s5.2,35.1,5.2,35.1c1.3,0.6,3.2-13.6,13.9-14.1c9-0.4,17.3,9.1,29.5,16.9c16,10.3,64.6,6.6,71.2-0.9
			s25.5-9.9,29.7-0.5s25,50.8,24.3,60.1s10,36,23.3,10.7c-0.4,0.1-11.1,48.1-39,55.3c-28.7,7.4-112.4-112.7-127.8-114
			c-15.9-1.4-17.4,13.3-17.4,28.7c0,0,33.4-20.7,34,50.7c-0.2-1.7-9.8,16.9-15.3,17.4c-6.5,0.5-23.2-1.2-30.5,1.2
			c-6.1,2-22.6,12.8-27.9,12.2v22.7c0,0,17.4-28.5,33.7-26.8s36.2,2.9,39.7-0.6s12.1-24.4,14.6-25.1c0.9-0.2,73.3,80.4,84,77.6
			c9.4-2.5,57.3-21.5,62.4-94c1.5-20.5,0-75.1,0-74.3c-1.7-0.1-7.2,33-11,36.4c-3,2.7-37.2-58.1-26-115.6
			c2.1,0.1,13.3-48.5,13.3-62.4s0.6-90.4,0.6-90.4s-12-25.9-21-34.8c0,0,7.6,97,2.3,128.1c-2.4,14.1-14.9,44.6-15.5,52.7
			s0.6,20.2,0.6,20.2l-20.8,37c0,0-51.4,19.6-58.4,15S286,285.2,286,285.2l6.9-24.3c0,0,23.2-53.2,39.4-75.2s74-127.7,63-161.8
			C395.3,24,392.1,19,357.7,0z"/>
		<path d="M416.2,65.7c0,0,3.3,83.7-54.1,112.6c-56,28.1-75.4,30.4-94,76.9l6.8-108.5l12.8,32.5C309.8,167.6,410.9,136.5,416.2,65.7
			z"/>
		<path d="M298.5,252.1c-1.7,12.5-2.7,32.1-2.7,32.1s21.6,16.1,60.1,13.1s44.4-38.6,44.4-38.6h7.6c3-8.6-8.2-22.4-15.8-32
			c14.6,4.4,25,0.1,25,0.1l22.2-21.5c0,0-30.2,78.3-50.2,93.4c-21.4,16.2-56.4,19.3-105.1-2.3c-3.5-1.6-5.1-4.3-14.6,5.2
			C269.4,301.5,273.3,264.5,298.5,252.1z"/>
		<path class="st0" d="M234.9,487.9c0,0,9.2-10.5,14.7-12.4c6.9-2.4,59.6,23.5,58.7,24.3l6.3,10c0,0-3.7,3.4-5,3.5
			c-10.7,0.6-34.4-8.9-42.7-9.1c-9.4-0.2-25.2,10.9-31.9,7.9L234.9,487.9z"/>
		<path class="st1" d="M234.9,499.3c0,0,52.1-5.8,67-0.5s-25.1-14.6-25.1-14.6s52.5,5.2,58,16.2c5.6,11.3-6.7,20.2-11.9,19.9
			c-7.1-0.5-20-15.5-29.2-17.7c-10.3-2.5-52.4-3.5-58.8,1.8L234.9,499.3z"/>
		<path class="st0" d="M234.9,569.4c0,0,18.2,3.5,33.9,49c0.7,2,5.2,6.9,5.2,6.9s33.4-5,46.1-12.2c0,0-25.4,20-85.2,21.3
			L234.9,569.4z"/>
		<path class="st2" d="M285.7,420.3c0,0-7.6,1-11.4,1.9s-9.5,1.6-10.5,4.1c-1,2.4-1.9-3.7,0-4.6s18-8.7,21.4-6.8
			S287.5,419,285.7,420.3z"/>
	</g>
</g>
</svg>
