<svg height="48" viewBox="0 0 48 48" width="48" xmlns="http://www.w3.org/2000/svg" xmlns:xlink="http://www.w3.org/1999/xlink"><linearGradient id="a" x1="14.457031%" x2="88.042969%" y1="88.439453%" y2="9.337891%"><stop offset="0" stop-color="#f3e1ff"/><stop offset="1" stop-color="#d5f1fa"/></linearGradient><linearGradient id="b" x1="28.970102%" x2="100%" y1="100%" y2="0%"><stop offset="0" stop-color="#816cff"/><stop offset="1" stop-color="#e14176"/></linearGradient><g fill="none" fill-rule="evenodd"><path d="m24 0c-13.25472 0-24 10.74528-24 24 0 13.25472 10.74528 24 24 24 13.25472 0 24-10.74528 24-24 0-13.25472-10.74528-24-24-24z" fill="url(#a)"/><path d="m31.863092 10.592623c-.1196079.0401418-.2373173.0888855-.3521789.142408-.4575478.21409-.8685814.5275789-1.2017749.9270861l-5.6500506 6.5163636-3.3338337 4.0017622c-.5999382.7187306-.8847189 1.6333918-.8021325 2.5738585.0806879.9404667.5192503 1.7920478 1.23405 2.3941759.627467.5304461 1.4248532.8229083 2.2469204.8229083 1.0422976 0 2.0219435-.4587642 2.6883305-1.2568229l.8220672-.9872988v-.0009558l8.1608679-9.5298712c.1044196-.1252044.1946002-.2570991.2790851-.3928168.281933-.4501624.4603956-.9548031.5173518-1.4833377.0113912-.1146911.0189854-.2303379.0189854-.3469405.0018985-.1156468-.0018986-.2341609-.0123405-.3507635-.010442-.1175583-.0265796-.2341609-.0474635-.3488519-.148086-.8009259-.5629167-1.517745-1.1865866-2.0462797-.1566294-.1318947-.3246501-.2504088-.5002649-.3517192-.5277937-.3058428-1.1315289-.4692776-1.7476047-.4692776-.3910989 0-.7727052.0630801-1.1334275.186373zm-19.08316.6346238c-.7147998.6030838-1.1524129 1.4537092-1.2349993 2.3951316-.0816372.9404667.2040929 1.8541721.8021325 2.5738585l7.1498961 8.3160575c-.0180361-1.0962553.345534-2.14759 1.0489425-2.9905693l2.8022429-3.3623596-5.6348623-6.4972484c-.6654378-.7980586-1.6441344-1.2558671-2.6854828-1.2558671-.8230164 0-1.6213519.2915064-2.2478696.8209968zm14.6908911 16.144678c-.8590887 1.0322195-2.1225661 1.6228785-3.4667313 1.6228785-1.0612831 0-2.0912402-.376569-2.9009669-1.0618481-.2192812-.1844614-.4167292-.3899496-.5942426-.6069068v10.2734516c0 1.9449692 1.5719899 3.52675 3.5028036 3.52675 1.931763 0 3.5028036-1.5817808 3.5028036-3.52675v-10.2801419z" fill="url(#b)"/></g></svg>